%TF.GenerationSoftware,KiCad,Pcbnew,8.0.4*%
%TF.CreationDate,2024-10-18T17:00:11+02:00*%
%TF.ProjectId,Atari_SIO2SD_Mini,41746172-695f-4534-994f-3253445f4d69,rev?*%
%TF.SameCoordinates,Original*%
%TF.FileFunction,Drillmap*%
%TF.FilePolarity,Positive*%
%FSLAX45Y45*%
G04 Gerber Fmt 4.5, Leading zero omitted, Abs format (unit mm)*
G04 Created by KiCad (PCBNEW 8.0.4) date 2024-10-18 17:00:11*
%MOMM*%
%LPD*%
G01*
G04 APERTURE LIST*
%ADD10C,0.050000*%
%ADD11C,0.200000*%
G04 APERTURE END LIST*
D10*
X16550000Y-5449843D02*
G75*
G02*
X16949997Y-5849843I0J-399997D01*
G01*
X13450000Y-11300000D02*
G75*
G02*
X13050000Y-10900000I0J400000D01*
G01*
X14150000Y-5450000D02*
X15850000Y-5450000D01*
X13450000Y-11300000D02*
X16550000Y-11300000D01*
X16950000Y-10900000D02*
G75*
G02*
X16550000Y-11300000I-400000J0D01*
G01*
X13050000Y-6300000D02*
X13050000Y-5850000D01*
X16950000Y-10900000D02*
X16950000Y-6300000D01*
X13050000Y-10900000D02*
X13050000Y-6300000D01*
X13450000Y-5450000D02*
X14150000Y-5450000D01*
X13050000Y-5850000D02*
G75*
G02*
X13450000Y-5450000I400000J0D01*
G01*
X16950000Y-6300000D02*
X16950000Y-5849843D01*
X15850000Y-5450000D02*
X16550000Y-5450000D01*
D11*
X13308276Y-11613984D02*
X13308276Y-11413984D01*
X13308276Y-11413984D02*
X13355895Y-11413984D01*
X13355895Y-11413984D02*
X13384467Y-11423508D01*
X13384467Y-11423508D02*
X13403514Y-11442555D01*
X13403514Y-11442555D02*
X13413038Y-11461603D01*
X13413038Y-11461603D02*
X13422562Y-11499698D01*
X13422562Y-11499698D02*
X13422562Y-11528269D01*
X13422562Y-11528269D02*
X13413038Y-11566365D01*
X13413038Y-11566365D02*
X13403514Y-11585412D01*
X13403514Y-11585412D02*
X13384467Y-11604460D01*
X13384467Y-11604460D02*
X13355895Y-11613984D01*
X13355895Y-11613984D02*
X13308276Y-11613984D01*
X13508276Y-11613984D02*
X13508276Y-11480650D01*
X13508276Y-11518746D02*
X13517800Y-11499698D01*
X13517800Y-11499698D02*
X13527324Y-11490174D01*
X13527324Y-11490174D02*
X13546372Y-11480650D01*
X13546372Y-11480650D02*
X13565419Y-11480650D01*
X13632086Y-11613984D02*
X13632086Y-11480650D01*
X13632086Y-11413984D02*
X13622562Y-11423508D01*
X13622562Y-11423508D02*
X13632086Y-11433031D01*
X13632086Y-11433031D02*
X13641610Y-11423508D01*
X13641610Y-11423508D02*
X13632086Y-11413984D01*
X13632086Y-11413984D02*
X13632086Y-11433031D01*
X13755895Y-11613984D02*
X13736848Y-11604460D01*
X13736848Y-11604460D02*
X13727324Y-11585412D01*
X13727324Y-11585412D02*
X13727324Y-11413984D01*
X13860657Y-11613984D02*
X13841610Y-11604460D01*
X13841610Y-11604460D02*
X13832086Y-11585412D01*
X13832086Y-11585412D02*
X13832086Y-11413984D01*
X14089229Y-11613984D02*
X14089229Y-11413984D01*
X14089229Y-11413984D02*
X14155895Y-11556841D01*
X14155895Y-11556841D02*
X14222562Y-11413984D01*
X14222562Y-11413984D02*
X14222562Y-11613984D01*
X14403514Y-11613984D02*
X14403514Y-11509222D01*
X14403514Y-11509222D02*
X14393991Y-11490174D01*
X14393991Y-11490174D02*
X14374943Y-11480650D01*
X14374943Y-11480650D02*
X14336848Y-11480650D01*
X14336848Y-11480650D02*
X14317800Y-11490174D01*
X14403514Y-11604460D02*
X14384467Y-11613984D01*
X14384467Y-11613984D02*
X14336848Y-11613984D01*
X14336848Y-11613984D02*
X14317800Y-11604460D01*
X14317800Y-11604460D02*
X14308276Y-11585412D01*
X14308276Y-11585412D02*
X14308276Y-11566365D01*
X14308276Y-11566365D02*
X14317800Y-11547317D01*
X14317800Y-11547317D02*
X14336848Y-11537793D01*
X14336848Y-11537793D02*
X14384467Y-11537793D01*
X14384467Y-11537793D02*
X14403514Y-11528269D01*
X14498753Y-11480650D02*
X14498753Y-11680650D01*
X14498753Y-11490174D02*
X14517800Y-11480650D01*
X14517800Y-11480650D02*
X14555895Y-11480650D01*
X14555895Y-11480650D02*
X14574943Y-11490174D01*
X14574943Y-11490174D02*
X14584467Y-11499698D01*
X14584467Y-11499698D02*
X14593991Y-11518746D01*
X14593991Y-11518746D02*
X14593991Y-11575888D01*
X14593991Y-11575888D02*
X14584467Y-11594936D01*
X14584467Y-11594936D02*
X14574943Y-11604460D01*
X14574943Y-11604460D02*
X14555895Y-11613984D01*
X14555895Y-11613984D02*
X14517800Y-11613984D01*
X14517800Y-11613984D02*
X14498753Y-11604460D01*
X14679705Y-11594936D02*
X14689229Y-11604460D01*
X14689229Y-11604460D02*
X14679705Y-11613984D01*
X14679705Y-11613984D02*
X14670181Y-11604460D01*
X14670181Y-11604460D02*
X14679705Y-11594936D01*
X14679705Y-11594936D02*
X14679705Y-11613984D01*
X14679705Y-11490174D02*
X14689229Y-11499698D01*
X14689229Y-11499698D02*
X14679705Y-11509222D01*
X14679705Y-11509222D02*
X14670181Y-11499698D01*
X14670181Y-11499698D02*
X14679705Y-11490174D01*
X14679705Y-11490174D02*
X14679705Y-11509222D01*
M02*
