G04 #@! TF.GenerationSoftware,KiCad,Pcbnew,8.0.4*
G04 #@! TF.CreationDate,2024-10-18T17:00:07+02:00*
G04 #@! TF.ProjectId,Atari_SIO2SD_Mini,41746172-695f-4534-994f-3253445f4d69,rev?*
G04 #@! TF.SameCoordinates,Original*
G04 #@! TF.FileFunction,Legend,Bot*
G04 #@! TF.FilePolarity,Positive*
%FSLAX46Y46*%
G04 Gerber Fmt 4.6, Leading zero omitted, Abs format (unit mm)*
G04 Created by KiCad (PCBNEW 8.0.4) date 2024-10-18 17:00:07*
%MOMM*%
%LPD*%
G01*
G04 APERTURE LIST*
%ADD10C,0.100000*%
%ADD11C,0.200000*%
%ADD12C,0.000000*%
%ADD13C,2.000000*%
%ADD14C,1.500000*%
%ADD15R,1.800000X1.800000*%
%ADD16C,1.800000*%
%ADD17R,1.700000X1.700000*%
%ADD18O,1.700000X1.700000*%
%ADD19C,5.600000*%
G04 APERTURE END LIST*
D10*
G36*
X156359661Y-82776978D02*
G01*
X156439367Y-82856684D01*
X156478080Y-82934109D01*
X156478080Y-83100978D01*
X156439367Y-83178403D01*
X156359661Y-83258109D01*
X156188592Y-83300877D01*
X155867569Y-83300877D01*
X155696499Y-83258109D01*
X155616792Y-83178402D01*
X155578080Y-83100978D01*
X155578080Y-82934109D01*
X155616792Y-82856685D01*
X155696499Y-82776978D01*
X155867569Y-82734211D01*
X156188592Y-82734211D01*
X156359661Y-82776978D01*
G37*
G36*
X156689191Y-84607226D02*
G01*
X155366969Y-84607226D01*
X155366969Y-83760315D01*
X155481886Y-83760315D01*
X155481886Y-83798583D01*
X155508946Y-83825643D01*
X155528080Y-83829449D01*
X156302702Y-83829449D01*
X155792651Y-84067473D01*
X155782261Y-84075095D01*
X155780026Y-84075908D01*
X155779439Y-84077165D01*
X155776921Y-84079013D01*
X155771076Y-84095085D01*
X155763843Y-84110586D01*
X155764641Y-84112782D01*
X155763843Y-84114978D01*
X155771076Y-84130478D01*
X155776921Y-84146551D01*
X155779439Y-84148398D01*
X155780026Y-84149656D01*
X155782261Y-84150468D01*
X155792651Y-84158091D01*
X156302702Y-84396115D01*
X155528080Y-84396115D01*
X155508946Y-84399921D01*
X155481886Y-84426981D01*
X155481886Y-84465249D01*
X155508946Y-84492309D01*
X155528080Y-84496115D01*
X156528080Y-84496115D01*
X156547214Y-84492309D01*
X156553496Y-84486026D01*
X156561849Y-84482989D01*
X156566499Y-84473023D01*
X156574274Y-84465249D01*
X156574274Y-84456363D01*
X156578032Y-84448311D01*
X156574274Y-84437976D01*
X156574274Y-84426981D01*
X156567991Y-84420698D01*
X156564954Y-84412346D01*
X156549225Y-84400806D01*
X155932029Y-84112782D01*
X156549225Y-83824758D01*
X156564954Y-83813218D01*
X156567991Y-83804865D01*
X156574274Y-83798583D01*
X156574274Y-83787587D01*
X156578032Y-83777253D01*
X156574274Y-83769200D01*
X156574274Y-83760315D01*
X156566499Y-83752540D01*
X156561849Y-83742575D01*
X156553496Y-83739537D01*
X156547214Y-83733255D01*
X156528080Y-83729449D01*
X155528080Y-83729449D01*
X155508946Y-83733255D01*
X155481886Y-83760315D01*
X155366969Y-83760315D01*
X155366969Y-82922306D01*
X155478080Y-82922306D01*
X155478080Y-83112782D01*
X155478568Y-83115238D01*
X155478206Y-83116327D01*
X155480322Y-83124054D01*
X155481886Y-83131916D01*
X155482697Y-83132727D01*
X155483359Y-83135143D01*
X155530979Y-83230381D01*
X155535894Y-83236715D01*
X155540345Y-83243375D01*
X155635583Y-83338613D01*
X155640085Y-83341621D01*
X155641172Y-83343432D01*
X155646710Y-83346048D01*
X155651804Y-83349452D01*
X155653915Y-83349452D01*
X155658811Y-83351765D01*
X155849287Y-83399384D01*
X155855404Y-83399681D01*
X155861414Y-83400877D01*
X156194747Y-83400877D01*
X156200756Y-83399681D01*
X156206874Y-83399384D01*
X156397350Y-83351765D01*
X156402246Y-83349452D01*
X156404357Y-83349452D01*
X156409450Y-83346048D01*
X156414989Y-83343432D01*
X156416075Y-83341621D01*
X156420578Y-83338613D01*
X156515816Y-83243375D01*
X156520266Y-83236715D01*
X156525182Y-83230381D01*
X156572801Y-83135143D01*
X156573462Y-83132727D01*
X156574274Y-83131916D01*
X156575837Y-83124054D01*
X156577954Y-83116327D01*
X156577591Y-83115238D01*
X156578080Y-83112782D01*
X156578080Y-82922306D01*
X156577591Y-82919849D01*
X156577954Y-82918761D01*
X156575837Y-82911033D01*
X156574274Y-82903172D01*
X156573462Y-82902360D01*
X156572801Y-82899945D01*
X156525182Y-82804707D01*
X156520266Y-82798372D01*
X156515816Y-82791713D01*
X156420578Y-82696475D01*
X156416075Y-82693466D01*
X156414989Y-82691656D01*
X156409450Y-82689039D01*
X156404357Y-82685636D01*
X156402246Y-82685636D01*
X156397350Y-82683323D01*
X156206874Y-82635704D01*
X156200756Y-82635406D01*
X156194747Y-82634211D01*
X155861414Y-82634211D01*
X155855404Y-82635406D01*
X155849287Y-82635704D01*
X155658811Y-82683323D01*
X155653915Y-82685636D01*
X155651804Y-82685636D01*
X155646710Y-82689039D01*
X155641172Y-82691656D01*
X155640085Y-82693466D01*
X155635583Y-82696475D01*
X155540345Y-82791713D01*
X155535894Y-82798372D01*
X155530979Y-82804707D01*
X155483359Y-82899945D01*
X155482697Y-82902360D01*
X155481886Y-82903172D01*
X155480322Y-82911033D01*
X155478206Y-82918761D01*
X155478568Y-82919849D01*
X155478080Y-82922306D01*
X155366969Y-82922306D01*
X155366969Y-81922306D01*
X155478080Y-81922306D01*
X155478080Y-82160401D01*
X155479643Y-82168262D01*
X155480646Y-82176213D01*
X155528266Y-82319070D01*
X155537927Y-82336018D01*
X155572156Y-82353132D01*
X155608460Y-82341031D01*
X155625574Y-82306802D01*
X155623134Y-82287446D01*
X155578080Y-82152286D01*
X155578080Y-81934109D01*
X155616792Y-81856685D01*
X155652937Y-81820541D01*
X155730361Y-81781830D01*
X155801992Y-81781830D01*
X155879415Y-81820541D01*
X155915559Y-81856686D01*
X155957095Y-81939758D01*
X156003383Y-82124909D01*
X156005722Y-82129861D01*
X156007169Y-82135143D01*
X156054787Y-82230380D01*
X156059702Y-82236713D01*
X156064154Y-82243375D01*
X156111772Y-82290994D01*
X156118438Y-82295448D01*
X156124767Y-82300360D01*
X156220005Y-82347979D01*
X156222420Y-82348640D01*
X156223232Y-82349452D01*
X156231093Y-82351015D01*
X156238821Y-82353132D01*
X156239909Y-82352769D01*
X156242366Y-82353258D01*
X156337604Y-82353258D01*
X156340060Y-82352769D01*
X156341149Y-82353132D01*
X156348876Y-82351015D01*
X156356738Y-82349452D01*
X156357549Y-82348640D01*
X156359965Y-82347979D01*
X156455202Y-82300361D01*
X156461535Y-82295445D01*
X156468197Y-82290994D01*
X156515816Y-82243376D01*
X156520270Y-82236709D01*
X156525182Y-82230381D01*
X156572801Y-82135143D01*
X156573462Y-82132727D01*
X156574274Y-82131916D01*
X156575837Y-82124054D01*
X156577954Y-82116327D01*
X156577591Y-82115238D01*
X156578080Y-82112782D01*
X156578080Y-81874687D01*
X156576516Y-81866825D01*
X156575514Y-81858875D01*
X156527895Y-81716019D01*
X156518234Y-81699070D01*
X156484005Y-81681956D01*
X156447701Y-81694057D01*
X156430587Y-81728286D01*
X156433027Y-81747641D01*
X156478080Y-81882800D01*
X156478080Y-82100978D01*
X156439368Y-82178401D01*
X156403224Y-82214546D01*
X156325801Y-82253258D01*
X156254170Y-82253258D01*
X156176746Y-82214546D01*
X156140601Y-82178402D01*
X156099066Y-82095331D01*
X156052778Y-81910179D01*
X156050438Y-81905226D01*
X156048992Y-81899945D01*
X156001373Y-81804707D01*
X155996461Y-81798378D01*
X155992007Y-81791712D01*
X155944388Y-81744094D01*
X155937726Y-81739642D01*
X155931393Y-81734727D01*
X155836156Y-81687109D01*
X155833740Y-81686447D01*
X155832929Y-81685636D01*
X155825067Y-81684072D01*
X155817340Y-81681956D01*
X155816251Y-81682318D01*
X155813795Y-81681830D01*
X155718557Y-81681830D01*
X155716100Y-81682318D01*
X155715012Y-81681956D01*
X155707284Y-81684072D01*
X155699423Y-81685636D01*
X155698611Y-81686447D01*
X155696196Y-81687109D01*
X155600958Y-81734728D01*
X155594629Y-81739639D01*
X155587963Y-81744094D01*
X155540345Y-81791713D01*
X155535894Y-81798372D01*
X155530979Y-81804707D01*
X155483359Y-81899945D01*
X155482697Y-81902360D01*
X155481886Y-81903172D01*
X155480322Y-81911033D01*
X155478206Y-81918761D01*
X155478568Y-81919849D01*
X155478080Y-81922306D01*
X155366969Y-81922306D01*
X155366969Y-81284124D01*
X155481886Y-81284124D01*
X155481886Y-81322392D01*
X155508946Y-81349452D01*
X155528080Y-81353258D01*
X156528080Y-81353258D01*
X156547214Y-81349452D01*
X156574274Y-81322392D01*
X156574274Y-81284124D01*
X156547214Y-81257064D01*
X156528080Y-81253258D01*
X155528080Y-81253258D01*
X155508946Y-81257064D01*
X155481886Y-81284124D01*
X155366969Y-81284124D01*
X155366969Y-81142147D01*
X156689191Y-81142147D01*
X156689191Y-84607226D01*
G37*
G36*
X156832534Y-105421863D02*
G01*
X156915606Y-105463399D01*
X156996759Y-105544552D01*
X157038080Y-105668514D01*
X157038080Y-105848496D01*
X156138080Y-105848496D01*
X156138080Y-105668515D01*
X156179401Y-105544552D01*
X156260554Y-105463399D01*
X156343628Y-105421862D01*
X156522807Y-105377068D01*
X156653354Y-105377068D01*
X156832534Y-105421863D01*
G37*
G36*
X157249191Y-108154845D02*
G01*
X155926969Y-108154845D01*
X155926969Y-107565163D01*
X156038080Y-107565163D01*
X156038080Y-107660401D01*
X156039643Y-107668262D01*
X156040646Y-107676213D01*
X156088266Y-107819070D01*
X156089506Y-107821245D01*
X156089506Y-107822392D01*
X156093955Y-107829050D01*
X156097927Y-107836018D01*
X156098954Y-107836531D01*
X156100345Y-107838613D01*
X156195583Y-107933851D01*
X156202242Y-107938301D01*
X156208577Y-107943217D01*
X156303815Y-107990836D01*
X156309096Y-107992282D01*
X156314049Y-107994622D01*
X156504525Y-108042241D01*
X156510642Y-108042538D01*
X156516652Y-108043734D01*
X156659509Y-108043734D01*
X156665518Y-108042538D01*
X156671636Y-108042241D01*
X156862112Y-107994622D01*
X156867064Y-107992282D01*
X156872346Y-107990836D01*
X156967583Y-107943218D01*
X156973916Y-107938302D01*
X156980578Y-107933851D01*
X157075816Y-107838613D01*
X157077206Y-107836531D01*
X157078234Y-107836018D01*
X157082204Y-107829052D01*
X157086655Y-107822392D01*
X157086655Y-107821244D01*
X157087895Y-107819069D01*
X157135514Y-107676213D01*
X157136516Y-107668262D01*
X157138080Y-107660401D01*
X157138080Y-107517544D01*
X157137591Y-107515087D01*
X157137954Y-107513999D01*
X157135837Y-107506271D01*
X157134274Y-107498410D01*
X157133462Y-107497598D01*
X157132801Y-107495183D01*
X157085182Y-107399945D01*
X157073221Y-107384533D01*
X157036916Y-107372432D01*
X157002688Y-107389546D01*
X156990587Y-107425851D01*
X156995740Y-107444667D01*
X157038080Y-107529347D01*
X157038080Y-107652288D01*
X156996759Y-107776249D01*
X156915606Y-107857403D01*
X156832534Y-107898939D01*
X156653354Y-107943734D01*
X156522807Y-107943734D01*
X156343628Y-107898939D01*
X156260554Y-107857402D01*
X156179401Y-107776249D01*
X156138080Y-107652286D01*
X156138080Y-107573277D01*
X156179401Y-107449314D01*
X156204030Y-107424687D01*
X156466652Y-107424687D01*
X156466652Y-107565163D01*
X156470458Y-107584297D01*
X156497518Y-107611357D01*
X156535786Y-107611357D01*
X156562846Y-107584297D01*
X156566652Y-107565163D01*
X156566652Y-107374687D01*
X156562846Y-107355553D01*
X156535786Y-107328493D01*
X156516652Y-107324687D01*
X156183319Y-107324687D01*
X156164185Y-107328493D01*
X156164184Y-107328493D01*
X156147963Y-107339332D01*
X156100345Y-107386951D01*
X156098954Y-107389032D01*
X156097927Y-107389546D01*
X156093955Y-107396513D01*
X156089506Y-107403172D01*
X156089506Y-107404318D01*
X156088266Y-107406494D01*
X156040646Y-107549351D01*
X156039643Y-107557301D01*
X156038080Y-107565163D01*
X155926969Y-107565163D01*
X155926969Y-106368381D01*
X156038479Y-106368381D01*
X156041886Y-106380873D01*
X156041886Y-106393821D01*
X156046740Y-106398675D01*
X156048548Y-106405302D01*
X156063273Y-106418099D01*
X156899802Y-106896115D01*
X156088080Y-106896115D01*
X156068946Y-106899921D01*
X156041886Y-106926981D01*
X156041886Y-106965249D01*
X156068946Y-106992309D01*
X156088080Y-106996115D01*
X157088080Y-106996115D01*
X157107214Y-106992309D01*
X157112068Y-106987454D01*
X157118695Y-106985647D01*
X157125120Y-106974402D01*
X157134274Y-106965249D01*
X157134274Y-106958383D01*
X157137681Y-106952421D01*
X157134274Y-106939928D01*
X157134274Y-106926981D01*
X157129418Y-106922125D01*
X157127612Y-106915501D01*
X157112887Y-106902703D01*
X156276358Y-106424687D01*
X157088080Y-106424687D01*
X157107214Y-106420881D01*
X157134274Y-106393821D01*
X157134274Y-106355553D01*
X157107214Y-106328493D01*
X157088080Y-106324687D01*
X156088080Y-106324687D01*
X156068946Y-106328493D01*
X156064091Y-106333347D01*
X156057465Y-106335155D01*
X156051039Y-106346399D01*
X156041886Y-106355553D01*
X156041886Y-106362418D01*
X156038479Y-106368381D01*
X155926969Y-106368381D01*
X155926969Y-105660401D01*
X156038080Y-105660401D01*
X156038080Y-105898496D01*
X156041886Y-105917630D01*
X156068946Y-105944690D01*
X156088080Y-105948496D01*
X157088080Y-105948496D01*
X157107214Y-105944690D01*
X157134274Y-105917630D01*
X157138080Y-105898496D01*
X157138080Y-105660401D01*
X157136516Y-105652539D01*
X157135514Y-105644589D01*
X157087895Y-105501733D01*
X157086655Y-105499557D01*
X157086655Y-105498410D01*
X157082204Y-105491749D01*
X157078234Y-105484784D01*
X157077206Y-105484270D01*
X157075816Y-105482189D01*
X156980578Y-105386951D01*
X156973916Y-105382499D01*
X156967583Y-105377584D01*
X156872346Y-105329966D01*
X156867064Y-105328519D01*
X156862112Y-105326180D01*
X156671636Y-105278561D01*
X156665518Y-105278263D01*
X156659509Y-105277068D01*
X156516652Y-105277068D01*
X156510642Y-105278263D01*
X156504525Y-105278561D01*
X156314049Y-105326180D01*
X156309096Y-105328519D01*
X156303815Y-105329966D01*
X156208577Y-105377585D01*
X156202242Y-105382500D01*
X156195583Y-105386951D01*
X156100345Y-105482189D01*
X156098954Y-105484270D01*
X156097927Y-105484784D01*
X156093955Y-105491751D01*
X156089506Y-105498410D01*
X156089506Y-105499556D01*
X156088266Y-105501732D01*
X156040646Y-105644589D01*
X156039643Y-105652539D01*
X156038080Y-105660401D01*
X155926969Y-105660401D01*
X155926969Y-105165957D01*
X157249191Y-105165957D01*
X157249191Y-108154845D01*
G37*
G36*
X158899661Y-81348407D02*
G01*
X158979367Y-81428113D01*
X159018080Y-81505538D01*
X159018080Y-81672407D01*
X158979367Y-81749832D01*
X158899661Y-81829538D01*
X158728592Y-81872306D01*
X158407569Y-81872306D01*
X158236499Y-81829538D01*
X158156792Y-81749831D01*
X158118080Y-81672407D01*
X158118080Y-81505538D01*
X158156792Y-81428114D01*
X158236499Y-81348407D01*
X158407569Y-81305640D01*
X158728592Y-81305640D01*
X158899661Y-81348407D01*
G37*
G36*
X159229191Y-84607226D02*
G01*
X157906969Y-84607226D01*
X157906969Y-83760315D01*
X158021886Y-83760315D01*
X158021886Y-83798583D01*
X158048946Y-83825643D01*
X158068080Y-83829449D01*
X158842702Y-83829449D01*
X158332651Y-84067473D01*
X158322261Y-84075095D01*
X158320026Y-84075908D01*
X158319439Y-84077165D01*
X158316921Y-84079013D01*
X158311076Y-84095085D01*
X158303843Y-84110586D01*
X158304641Y-84112782D01*
X158303843Y-84114978D01*
X158311076Y-84130478D01*
X158316921Y-84146551D01*
X158319439Y-84148398D01*
X158320026Y-84149656D01*
X158322261Y-84150468D01*
X158332651Y-84158091D01*
X158842702Y-84396115D01*
X158068080Y-84396115D01*
X158048946Y-84399921D01*
X158021886Y-84426981D01*
X158021886Y-84465249D01*
X158048946Y-84492309D01*
X158068080Y-84496115D01*
X159068080Y-84496115D01*
X159087214Y-84492309D01*
X159093496Y-84486026D01*
X159101849Y-84482989D01*
X159106499Y-84473023D01*
X159114274Y-84465249D01*
X159114274Y-84456363D01*
X159118032Y-84448311D01*
X159114274Y-84437976D01*
X159114274Y-84426981D01*
X159107991Y-84420698D01*
X159104954Y-84412346D01*
X159089225Y-84400806D01*
X158472029Y-84112782D01*
X159089225Y-83824758D01*
X159104954Y-83813218D01*
X159107991Y-83804865D01*
X159114274Y-83798583D01*
X159114274Y-83787587D01*
X159118032Y-83777253D01*
X159114274Y-83769200D01*
X159114274Y-83760315D01*
X159106499Y-83752540D01*
X159101849Y-83742575D01*
X159093496Y-83739537D01*
X159087214Y-83733255D01*
X159068080Y-83729449D01*
X158068080Y-83729449D01*
X158048946Y-83733255D01*
X158021886Y-83760315D01*
X157906969Y-83760315D01*
X157906969Y-83284124D01*
X158021886Y-83284124D01*
X158021886Y-83322392D01*
X158048946Y-83349452D01*
X158068080Y-83353258D01*
X159068080Y-83353258D01*
X159087214Y-83349452D01*
X159114274Y-83322392D01*
X159114274Y-83284124D01*
X159087214Y-83257064D01*
X159068080Y-83253258D01*
X158068080Y-83253258D01*
X158048946Y-83257064D01*
X158021886Y-83284124D01*
X157906969Y-83284124D01*
X157906969Y-82493735D01*
X158018080Y-82493735D01*
X158018080Y-82731830D01*
X158019643Y-82739691D01*
X158020646Y-82747642D01*
X158068266Y-82890499D01*
X158077927Y-82907447D01*
X158112156Y-82924561D01*
X158148460Y-82912460D01*
X158165574Y-82878231D01*
X158163134Y-82858875D01*
X158118080Y-82723715D01*
X158118080Y-82505538D01*
X158156792Y-82428114D01*
X158192937Y-82391970D01*
X158270361Y-82353259D01*
X158341992Y-82353259D01*
X158419415Y-82391970D01*
X158455559Y-82428115D01*
X158497095Y-82511187D01*
X158543383Y-82696338D01*
X158545722Y-82701290D01*
X158547169Y-82706572D01*
X158594787Y-82801809D01*
X158599702Y-82808142D01*
X158604154Y-82814804D01*
X158651772Y-82862423D01*
X158658438Y-82866877D01*
X158664767Y-82871789D01*
X158760005Y-82919408D01*
X158762420Y-82920069D01*
X158763232Y-82920881D01*
X158771093Y-82922444D01*
X158778821Y-82924561D01*
X158779909Y-82924198D01*
X158782366Y-82924687D01*
X158877604Y-82924687D01*
X158880060Y-82924198D01*
X158881149Y-82924561D01*
X158888876Y-82922444D01*
X158896738Y-82920881D01*
X158897549Y-82920069D01*
X158899965Y-82919408D01*
X158995202Y-82871790D01*
X159001535Y-82866874D01*
X159008197Y-82862423D01*
X159055816Y-82814805D01*
X159060270Y-82808138D01*
X159065182Y-82801810D01*
X159112801Y-82706572D01*
X159113462Y-82704156D01*
X159114274Y-82703345D01*
X159115837Y-82695483D01*
X159117954Y-82687756D01*
X159117591Y-82686667D01*
X159118080Y-82684211D01*
X159118080Y-82446116D01*
X159116516Y-82438254D01*
X159115514Y-82430304D01*
X159067895Y-82287448D01*
X159058234Y-82270499D01*
X159024005Y-82253385D01*
X158987701Y-82265486D01*
X158970587Y-82299715D01*
X158973027Y-82319070D01*
X159018080Y-82454229D01*
X159018080Y-82672407D01*
X158979368Y-82749830D01*
X158943224Y-82785975D01*
X158865801Y-82824687D01*
X158794170Y-82824687D01*
X158716746Y-82785975D01*
X158680601Y-82749831D01*
X158639066Y-82666760D01*
X158592778Y-82481608D01*
X158590438Y-82476655D01*
X158588992Y-82471374D01*
X158541373Y-82376136D01*
X158536461Y-82369807D01*
X158532007Y-82363141D01*
X158484388Y-82315523D01*
X158477726Y-82311071D01*
X158471393Y-82306156D01*
X158376156Y-82258538D01*
X158373740Y-82257876D01*
X158372929Y-82257065D01*
X158365067Y-82255501D01*
X158357340Y-82253385D01*
X158356251Y-82253747D01*
X158353795Y-82253259D01*
X158258557Y-82253259D01*
X158256100Y-82253747D01*
X158255012Y-82253385D01*
X158247284Y-82255501D01*
X158239423Y-82257065D01*
X158238611Y-82257876D01*
X158236196Y-82258538D01*
X158140958Y-82306157D01*
X158134629Y-82311068D01*
X158127963Y-82315523D01*
X158080345Y-82363142D01*
X158075894Y-82369801D01*
X158070979Y-82376136D01*
X158023359Y-82471374D01*
X158022697Y-82473789D01*
X158021886Y-82474601D01*
X158020322Y-82482462D01*
X158018206Y-82490190D01*
X158018568Y-82491278D01*
X158018080Y-82493735D01*
X157906969Y-82493735D01*
X157906969Y-81493735D01*
X158018080Y-81493735D01*
X158018080Y-81684211D01*
X158018568Y-81686667D01*
X158018206Y-81687756D01*
X158020322Y-81695483D01*
X158021886Y-81703345D01*
X158022697Y-81704156D01*
X158023359Y-81706572D01*
X158070979Y-81801810D01*
X158075894Y-81808144D01*
X158080345Y-81814804D01*
X158175583Y-81910042D01*
X158180085Y-81913050D01*
X158181172Y-81914861D01*
X158186710Y-81917477D01*
X158191804Y-81920881D01*
X158193915Y-81920881D01*
X158198811Y-81923194D01*
X158389287Y-81970813D01*
X158395404Y-81971110D01*
X158401414Y-81972306D01*
X158734747Y-81972306D01*
X158740756Y-81971110D01*
X158746874Y-81970813D01*
X158937350Y-81923194D01*
X158942246Y-81920881D01*
X158944357Y-81920881D01*
X158949450Y-81917477D01*
X158954989Y-81914861D01*
X158956075Y-81913050D01*
X158960578Y-81910042D01*
X159055816Y-81814804D01*
X159060266Y-81808144D01*
X159065182Y-81801810D01*
X159112801Y-81706572D01*
X159113462Y-81704156D01*
X159114274Y-81703345D01*
X159115837Y-81695483D01*
X159117954Y-81687756D01*
X159117591Y-81686667D01*
X159118080Y-81684211D01*
X159118080Y-81493735D01*
X159117591Y-81491278D01*
X159117954Y-81490190D01*
X159115837Y-81482462D01*
X159114274Y-81474601D01*
X159113462Y-81473789D01*
X159112801Y-81471374D01*
X159065182Y-81376136D01*
X159060266Y-81369801D01*
X159055816Y-81363142D01*
X158960578Y-81267904D01*
X158956075Y-81264895D01*
X158954989Y-81263085D01*
X158949450Y-81260468D01*
X158944357Y-81257065D01*
X158942246Y-81257065D01*
X158937350Y-81254752D01*
X158746874Y-81207133D01*
X158740756Y-81206835D01*
X158734747Y-81205640D01*
X158401414Y-81205640D01*
X158395404Y-81206835D01*
X158389287Y-81207133D01*
X158198811Y-81254752D01*
X158193915Y-81257065D01*
X158191804Y-81257065D01*
X158186710Y-81260468D01*
X158181172Y-81263085D01*
X158180085Y-81264895D01*
X158175583Y-81267904D01*
X158080345Y-81363142D01*
X158075894Y-81369801D01*
X158070979Y-81376136D01*
X158023359Y-81471374D01*
X158022697Y-81473789D01*
X158021886Y-81474601D01*
X158020322Y-81482462D01*
X158018206Y-81490190D01*
X158018568Y-81491278D01*
X158018080Y-81493735D01*
X157906969Y-81493735D01*
X157906969Y-81094529D01*
X159229191Y-81094529D01*
X159229191Y-84607226D01*
G37*
G36*
X149629191Y-108103420D02*
G01*
X148306969Y-108103420D01*
X148306969Y-107546029D01*
X148421886Y-107546029D01*
X148421886Y-107584297D01*
X148448946Y-107611357D01*
X148468080Y-107615163D01*
X148799033Y-107615163D01*
X148799033Y-107946115D01*
X148802839Y-107965249D01*
X148829899Y-107992309D01*
X148868167Y-107992309D01*
X148895227Y-107965249D01*
X148899033Y-107946115D01*
X148899033Y-107615163D01*
X149229985Y-107615163D01*
X149249119Y-107611357D01*
X149276179Y-107584297D01*
X149276179Y-107546029D01*
X149249119Y-107518969D01*
X149229985Y-107515163D01*
X148899033Y-107515163D01*
X148899033Y-107184211D01*
X148895227Y-107165077D01*
X148868167Y-107138017D01*
X148829899Y-107138017D01*
X148802839Y-107165077D01*
X148799033Y-107184211D01*
X148799033Y-107515163D01*
X148468080Y-107515163D01*
X148448946Y-107518969D01*
X148421886Y-107546029D01*
X148306969Y-107546029D01*
X148306969Y-106374687D01*
X148418080Y-106374687D01*
X148418080Y-106612782D01*
X148418568Y-106615238D01*
X148418206Y-106616327D01*
X148420322Y-106624054D01*
X148421886Y-106631916D01*
X148422697Y-106632727D01*
X148423359Y-106635143D01*
X148470979Y-106730381D01*
X148475894Y-106736715D01*
X148480345Y-106743375D01*
X148527963Y-106790994D01*
X148544184Y-106801833D01*
X148582453Y-106801833D01*
X148609513Y-106774773D01*
X148609513Y-106736504D01*
X148598674Y-106720283D01*
X148556792Y-106678402D01*
X148518080Y-106600978D01*
X148518080Y-106386490D01*
X148556792Y-106309066D01*
X148592937Y-106272922D01*
X148670361Y-106234211D01*
X148884849Y-106234211D01*
X148962272Y-106272922D01*
X148998416Y-106309067D01*
X149037128Y-106386490D01*
X149037128Y-106600978D01*
X148998416Y-106678401D01*
X148956535Y-106720284D01*
X148945696Y-106736505D01*
X148945696Y-106739148D01*
X148944021Y-106741196D01*
X148945696Y-106757945D01*
X148945696Y-106774773D01*
X148947565Y-106776642D01*
X148947829Y-106779275D01*
X148960858Y-106789935D01*
X148972756Y-106801833D01*
X148975400Y-106801833D01*
X148977447Y-106803508D01*
X148996865Y-106805391D01*
X149473055Y-106757772D01*
X149484721Y-106754214D01*
X149487214Y-106754214D01*
X149488307Y-106753120D01*
X149491715Y-106752081D01*
X149502373Y-106739054D01*
X149514274Y-106727154D01*
X149514968Y-106723660D01*
X149515949Y-106722463D01*
X149515700Y-106719981D01*
X149518080Y-106708020D01*
X149518080Y-106231830D01*
X149514274Y-106212696D01*
X149487214Y-106185636D01*
X149448946Y-106185636D01*
X149421886Y-106212696D01*
X149418080Y-106231830D01*
X149418080Y-106662770D01*
X149102243Y-106694354D01*
X149131849Y-106635143D01*
X149132510Y-106632727D01*
X149133322Y-106631916D01*
X149134885Y-106624054D01*
X149137002Y-106616327D01*
X149136639Y-106615238D01*
X149137128Y-106612782D01*
X149137128Y-106374687D01*
X149136639Y-106372230D01*
X149137002Y-106371142D01*
X149134885Y-106363414D01*
X149133322Y-106355553D01*
X149132510Y-106354741D01*
X149131849Y-106352326D01*
X149084230Y-106257088D01*
X149079318Y-106250759D01*
X149074864Y-106244093D01*
X149027245Y-106196475D01*
X149020583Y-106192023D01*
X149014250Y-106187108D01*
X148919013Y-106139490D01*
X148916597Y-106138828D01*
X148915786Y-106138017D01*
X148907924Y-106136453D01*
X148900197Y-106134337D01*
X148899108Y-106134699D01*
X148896652Y-106134211D01*
X148658557Y-106134211D01*
X148656100Y-106134699D01*
X148655012Y-106134337D01*
X148647284Y-106136453D01*
X148639423Y-106138017D01*
X148638611Y-106138828D01*
X148636196Y-106139490D01*
X148540958Y-106187109D01*
X148534629Y-106192020D01*
X148527963Y-106196475D01*
X148480345Y-106244094D01*
X148475894Y-106250753D01*
X148470979Y-106257088D01*
X148423359Y-106352326D01*
X148422697Y-106354741D01*
X148421886Y-106355553D01*
X148420322Y-106363414D01*
X148418206Y-106371142D01*
X148418568Y-106372230D01*
X148418080Y-106374687D01*
X148306969Y-106374687D01*
X148306969Y-105561619D01*
X148418206Y-105561619D01*
X148419387Y-105565163D01*
X148418206Y-105568707D01*
X148425293Y-105582883D01*
X148430307Y-105597923D01*
X148433649Y-105599593D01*
X148435320Y-105602936D01*
X148452269Y-105612597D01*
X149452268Y-105945930D01*
X149471624Y-105948370D01*
X149505852Y-105931256D01*
X149517954Y-105894952D01*
X149500839Y-105860723D01*
X149483891Y-105851062D01*
X148626193Y-105565163D01*
X149483891Y-105279264D01*
X149500839Y-105269603D01*
X149517954Y-105235374D01*
X149505852Y-105199070D01*
X149471624Y-105181956D01*
X149452268Y-105184396D01*
X148452269Y-105517729D01*
X148435320Y-105527390D01*
X148433649Y-105530732D01*
X148430307Y-105532403D01*
X148425293Y-105547442D01*
X148418206Y-105561619D01*
X148306969Y-105561619D01*
X148306969Y-105070845D01*
X149629191Y-105070845D01*
X149629191Y-108103420D01*
G37*
G36*
X164023224Y-83963398D02*
G01*
X164059368Y-83999543D01*
X164098080Y-84076966D01*
X164098080Y-84396115D01*
X163674271Y-84396115D01*
X163674271Y-84076966D01*
X163712982Y-83999542D01*
X163749127Y-83963398D01*
X163826551Y-83924687D01*
X163945801Y-83924687D01*
X164023224Y-83963398D01*
G37*
G36*
X164309191Y-84607226D02*
G01*
X162986969Y-84607226D01*
X162986969Y-83863872D01*
X163099264Y-83863872D01*
X163105914Y-83901558D01*
X163119407Y-83915649D01*
X163574271Y-84234053D01*
X163574271Y-84396115D01*
X163148080Y-84396115D01*
X163128946Y-84399921D01*
X163101886Y-84426981D01*
X163101886Y-84465249D01*
X163128946Y-84492309D01*
X163148080Y-84496115D01*
X164148080Y-84496115D01*
X164167214Y-84492309D01*
X164194274Y-84465249D01*
X164198080Y-84446115D01*
X164198080Y-84065163D01*
X164197591Y-84062706D01*
X164197954Y-84061618D01*
X164195837Y-84053890D01*
X164194274Y-84046029D01*
X164193462Y-84045217D01*
X164192801Y-84042802D01*
X164145182Y-83947564D01*
X164140270Y-83941235D01*
X164135816Y-83934569D01*
X164088197Y-83886951D01*
X164081535Y-83882499D01*
X164075202Y-83877584D01*
X163979965Y-83829966D01*
X163977549Y-83829304D01*
X163976738Y-83828493D01*
X163968876Y-83826929D01*
X163961149Y-83824813D01*
X163960060Y-83825175D01*
X163957604Y-83824687D01*
X163814747Y-83824687D01*
X163812290Y-83825175D01*
X163811202Y-83824813D01*
X163803474Y-83826929D01*
X163795613Y-83828493D01*
X163794801Y-83829304D01*
X163792386Y-83829966D01*
X163697148Y-83877585D01*
X163690819Y-83882496D01*
X163684153Y-83886951D01*
X163636535Y-83934570D01*
X163632083Y-83941231D01*
X163627168Y-83947565D01*
X163579550Y-84042802D01*
X163578888Y-84045217D01*
X163578077Y-84046029D01*
X163576513Y-84053890D01*
X163574397Y-84061618D01*
X163574759Y-84062706D01*
X163574271Y-84065163D01*
X163574271Y-84111987D01*
X163176753Y-83833725D01*
X163158895Y-83825871D01*
X163121209Y-83832521D01*
X163099264Y-83863872D01*
X162986969Y-83863872D01*
X162986969Y-82969925D01*
X163098080Y-82969925D01*
X163098080Y-83446115D01*
X163101886Y-83465249D01*
X163128946Y-83492309D01*
X163148080Y-83496115D01*
X164148080Y-83496115D01*
X164167214Y-83492309D01*
X164194274Y-83465249D01*
X164198080Y-83446115D01*
X164198080Y-82969925D01*
X164194274Y-82950791D01*
X164167214Y-82923731D01*
X164128946Y-82923731D01*
X164101886Y-82950791D01*
X164098080Y-82969925D01*
X164098080Y-83396115D01*
X163721890Y-83396115D01*
X163721890Y-83112782D01*
X163718084Y-83093648D01*
X163691024Y-83066588D01*
X163652756Y-83066588D01*
X163625696Y-83093648D01*
X163621890Y-83112782D01*
X163621890Y-83396115D01*
X163198080Y-83396115D01*
X163198080Y-82969925D01*
X163194274Y-82950791D01*
X163167214Y-82923731D01*
X163128946Y-82923731D01*
X163101886Y-82950791D01*
X163098080Y-82969925D01*
X162986969Y-82969925D01*
X162986969Y-82208020D01*
X163098080Y-82208020D01*
X163098080Y-82446115D01*
X163099643Y-82453976D01*
X163100646Y-82461927D01*
X163148266Y-82604784D01*
X163157927Y-82621732D01*
X163192156Y-82638846D01*
X163228460Y-82626745D01*
X163245574Y-82592516D01*
X163243134Y-82573160D01*
X163198080Y-82438000D01*
X163198080Y-82219823D01*
X163236792Y-82142399D01*
X163272937Y-82106255D01*
X163350361Y-82067544D01*
X163421992Y-82067544D01*
X163499415Y-82106255D01*
X163535559Y-82142400D01*
X163577095Y-82225472D01*
X163623383Y-82410623D01*
X163625722Y-82415575D01*
X163627169Y-82420857D01*
X163674787Y-82516094D01*
X163679702Y-82522427D01*
X163684154Y-82529089D01*
X163731772Y-82576708D01*
X163738438Y-82581162D01*
X163744767Y-82586074D01*
X163840005Y-82633693D01*
X163842420Y-82634354D01*
X163843232Y-82635166D01*
X163851093Y-82636729D01*
X163858821Y-82638846D01*
X163859909Y-82638483D01*
X163862366Y-82638972D01*
X163957604Y-82638972D01*
X163960060Y-82638483D01*
X163961149Y-82638846D01*
X163968876Y-82636729D01*
X163976738Y-82635166D01*
X163977549Y-82634354D01*
X163979965Y-82633693D01*
X164075202Y-82586075D01*
X164081535Y-82581159D01*
X164088197Y-82576708D01*
X164135816Y-82529090D01*
X164140270Y-82522423D01*
X164145182Y-82516095D01*
X164192801Y-82420857D01*
X164193462Y-82418441D01*
X164194274Y-82417630D01*
X164195837Y-82409768D01*
X164197954Y-82402041D01*
X164197591Y-82400952D01*
X164198080Y-82398496D01*
X164198080Y-82160401D01*
X164196516Y-82152539D01*
X164195514Y-82144589D01*
X164147895Y-82001733D01*
X164138234Y-81984784D01*
X164104005Y-81967670D01*
X164067701Y-81979771D01*
X164050587Y-82014000D01*
X164053027Y-82033355D01*
X164098080Y-82168514D01*
X164098080Y-82386692D01*
X164059368Y-82464115D01*
X164023224Y-82500260D01*
X163945801Y-82538972D01*
X163874170Y-82538972D01*
X163796746Y-82500260D01*
X163760601Y-82464116D01*
X163719066Y-82381045D01*
X163672778Y-82195893D01*
X163670438Y-82190940D01*
X163668992Y-82185659D01*
X163621373Y-82090421D01*
X163616461Y-82084092D01*
X163612007Y-82077426D01*
X163564388Y-82029808D01*
X163557726Y-82025356D01*
X163551393Y-82020441D01*
X163456156Y-81972823D01*
X163453740Y-81972161D01*
X163452929Y-81971350D01*
X163445067Y-81969786D01*
X163437340Y-81967670D01*
X163436251Y-81968032D01*
X163433795Y-81967544D01*
X163338557Y-81967544D01*
X163336100Y-81968032D01*
X163335012Y-81967670D01*
X163327284Y-81969786D01*
X163319423Y-81971350D01*
X163318611Y-81972161D01*
X163316196Y-81972823D01*
X163220958Y-82020442D01*
X163214629Y-82025353D01*
X163207963Y-82029808D01*
X163160345Y-82077427D01*
X163155894Y-82084086D01*
X163150979Y-82090421D01*
X163103359Y-82185659D01*
X163102697Y-82188074D01*
X163101886Y-82188886D01*
X163100322Y-82196747D01*
X163098206Y-82204475D01*
X163098568Y-82205563D01*
X163098080Y-82208020D01*
X162986969Y-82208020D01*
X162986969Y-81112782D01*
X163098080Y-81112782D01*
X163098080Y-81588972D01*
X163101886Y-81608106D01*
X163128946Y-81635166D01*
X163148080Y-81638972D01*
X164148080Y-81638972D01*
X164167214Y-81635166D01*
X164194274Y-81608106D01*
X164198080Y-81588972D01*
X164198080Y-81112782D01*
X164194274Y-81093648D01*
X164167214Y-81066588D01*
X164128946Y-81066588D01*
X164101886Y-81093648D01*
X164098080Y-81112782D01*
X164098080Y-81538972D01*
X163721890Y-81538972D01*
X163721890Y-81255639D01*
X163718084Y-81236505D01*
X163691024Y-81209445D01*
X163652756Y-81209445D01*
X163625696Y-81236505D01*
X163621890Y-81255639D01*
X163621890Y-81538972D01*
X163198080Y-81538972D01*
X163198080Y-81112782D01*
X163194274Y-81093648D01*
X163167214Y-81066588D01*
X163128946Y-81066588D01*
X163101886Y-81093648D01*
X163098080Y-81112782D01*
X162986969Y-81112782D01*
X162986969Y-80522219D01*
X163101886Y-80522219D01*
X163101886Y-80560487D01*
X163128946Y-80587547D01*
X163148080Y-80591353D01*
X164098080Y-80591353D01*
X164098080Y-80827067D01*
X164101886Y-80846201D01*
X164128946Y-80873261D01*
X164167214Y-80873261D01*
X164194274Y-80846201D01*
X164198080Y-80827067D01*
X164198080Y-80255639D01*
X164194274Y-80236505D01*
X164167214Y-80209445D01*
X164128946Y-80209445D01*
X164101886Y-80236505D01*
X164098080Y-80255639D01*
X164098080Y-80491353D01*
X163148080Y-80491353D01*
X163128946Y-80495159D01*
X163101886Y-80522219D01*
X162986969Y-80522219D01*
X162986969Y-80098334D01*
X164309191Y-80098334D01*
X164309191Y-84607226D01*
G37*
G36*
X154149191Y-84603420D02*
G01*
X152826969Y-84603420D01*
X152826969Y-84046029D01*
X152941886Y-84046029D01*
X152941886Y-84084297D01*
X152968946Y-84111357D01*
X152988080Y-84115163D01*
X153319033Y-84115163D01*
X153319033Y-84446115D01*
X153322839Y-84465249D01*
X153349899Y-84492309D01*
X153388167Y-84492309D01*
X153415227Y-84465249D01*
X153419033Y-84446115D01*
X153419033Y-84115163D01*
X153749985Y-84115163D01*
X153769119Y-84111357D01*
X153796179Y-84084297D01*
X153796179Y-84046029D01*
X153769119Y-84018969D01*
X153749985Y-84015163D01*
X153419033Y-84015163D01*
X153419033Y-83684211D01*
X153415227Y-83665077D01*
X153388167Y-83638017D01*
X153349899Y-83638017D01*
X153322839Y-83665077D01*
X153319033Y-83684211D01*
X153319033Y-84015163D01*
X152988080Y-84015163D01*
X152968946Y-84018969D01*
X152941886Y-84046029D01*
X152826969Y-84046029D01*
X152826969Y-82874687D01*
X152938080Y-82874687D01*
X152938080Y-83112782D01*
X152938568Y-83115238D01*
X152938206Y-83116327D01*
X152940322Y-83124054D01*
X152941886Y-83131916D01*
X152942697Y-83132727D01*
X152943359Y-83135143D01*
X152990979Y-83230381D01*
X152995894Y-83236715D01*
X153000345Y-83243375D01*
X153047963Y-83290994D01*
X153064184Y-83301833D01*
X153102453Y-83301833D01*
X153129513Y-83274773D01*
X153129513Y-83236504D01*
X153118674Y-83220283D01*
X153076792Y-83178402D01*
X153038080Y-83100978D01*
X153038080Y-82886490D01*
X153076792Y-82809066D01*
X153112937Y-82772922D01*
X153190361Y-82734211D01*
X153404849Y-82734211D01*
X153482272Y-82772922D01*
X153518416Y-82809067D01*
X153557128Y-82886490D01*
X153557128Y-83100978D01*
X153518416Y-83178401D01*
X153476535Y-83220284D01*
X153465696Y-83236505D01*
X153465696Y-83239148D01*
X153464021Y-83241196D01*
X153465696Y-83257945D01*
X153465696Y-83274773D01*
X153467565Y-83276642D01*
X153467829Y-83279275D01*
X153480858Y-83289935D01*
X153492756Y-83301833D01*
X153495400Y-83301833D01*
X153497447Y-83303508D01*
X153516865Y-83305391D01*
X153993055Y-83257772D01*
X154004721Y-83254214D01*
X154007214Y-83254214D01*
X154008307Y-83253120D01*
X154011715Y-83252081D01*
X154022373Y-83239054D01*
X154034274Y-83227154D01*
X154034968Y-83223660D01*
X154035949Y-83222463D01*
X154035700Y-83219981D01*
X154038080Y-83208020D01*
X154038080Y-82731830D01*
X154034274Y-82712696D01*
X154007214Y-82685636D01*
X153968946Y-82685636D01*
X153941886Y-82712696D01*
X153938080Y-82731830D01*
X153938080Y-83162770D01*
X153622243Y-83194354D01*
X153651849Y-83135143D01*
X153652510Y-83132727D01*
X153653322Y-83131916D01*
X153654885Y-83124054D01*
X153657002Y-83116327D01*
X153656639Y-83115238D01*
X153657128Y-83112782D01*
X153657128Y-82874687D01*
X153656639Y-82872230D01*
X153657002Y-82871142D01*
X153654885Y-82863414D01*
X153653322Y-82855553D01*
X153652510Y-82854741D01*
X153651849Y-82852326D01*
X153604230Y-82757088D01*
X153599318Y-82750759D01*
X153594864Y-82744093D01*
X153547245Y-82696475D01*
X153540583Y-82692023D01*
X153534250Y-82687108D01*
X153439013Y-82639490D01*
X153436597Y-82638828D01*
X153435786Y-82638017D01*
X153427924Y-82636453D01*
X153420197Y-82634337D01*
X153419108Y-82634699D01*
X153416652Y-82634211D01*
X153178557Y-82634211D01*
X153176100Y-82634699D01*
X153175012Y-82634337D01*
X153167284Y-82636453D01*
X153159423Y-82638017D01*
X153158611Y-82638828D01*
X153156196Y-82639490D01*
X153060958Y-82687109D01*
X153054629Y-82692020D01*
X153047963Y-82696475D01*
X153000345Y-82744094D01*
X152995894Y-82750753D01*
X152990979Y-82757088D01*
X152943359Y-82852326D01*
X152942697Y-82854741D01*
X152941886Y-82855553D01*
X152940322Y-82863414D01*
X152938206Y-82871142D01*
X152938568Y-82872230D01*
X152938080Y-82874687D01*
X152826969Y-82874687D01*
X152826969Y-82061619D01*
X152938206Y-82061619D01*
X152939387Y-82065163D01*
X152938206Y-82068707D01*
X152945293Y-82082883D01*
X152950307Y-82097923D01*
X152953649Y-82099593D01*
X152955320Y-82102936D01*
X152972269Y-82112597D01*
X153972268Y-82445930D01*
X153991624Y-82448370D01*
X154025852Y-82431256D01*
X154037954Y-82394952D01*
X154020839Y-82360723D01*
X154003891Y-82351062D01*
X153146193Y-82065163D01*
X154003891Y-81779264D01*
X154020839Y-81769603D01*
X154037954Y-81735374D01*
X154025852Y-81699070D01*
X153991624Y-81681956D01*
X153972268Y-81684396D01*
X152972269Y-82017729D01*
X152955320Y-82027390D01*
X152953649Y-82030732D01*
X152950307Y-82032403D01*
X152945293Y-82047442D01*
X152938206Y-82061619D01*
X152826969Y-82061619D01*
X152826969Y-81570845D01*
X154149191Y-81570845D01*
X154149191Y-84603420D01*
G37*
G36*
X151752534Y-104279006D02*
G01*
X151835606Y-104320542D01*
X151916759Y-104401695D01*
X151958080Y-104525657D01*
X151958080Y-104705639D01*
X151058080Y-104705639D01*
X151058080Y-104525658D01*
X151099401Y-104401695D01*
X151180554Y-104320542D01*
X151263628Y-104279005D01*
X151442807Y-104234211D01*
X151573354Y-104234211D01*
X151752534Y-104279006D01*
G37*
G36*
X152169191Y-108154845D02*
G01*
X150846969Y-108154845D01*
X150846969Y-107565163D01*
X150958080Y-107565163D01*
X150958080Y-107660401D01*
X150959643Y-107668262D01*
X150960646Y-107676213D01*
X151008266Y-107819070D01*
X151009506Y-107821245D01*
X151009506Y-107822392D01*
X151013955Y-107829050D01*
X151017927Y-107836018D01*
X151018954Y-107836531D01*
X151020345Y-107838613D01*
X151115583Y-107933851D01*
X151122242Y-107938301D01*
X151128577Y-107943217D01*
X151223815Y-107990836D01*
X151229096Y-107992282D01*
X151234049Y-107994622D01*
X151424525Y-108042241D01*
X151430642Y-108042538D01*
X151436652Y-108043734D01*
X151579509Y-108043734D01*
X151585518Y-108042538D01*
X151591636Y-108042241D01*
X151782112Y-107994622D01*
X151787064Y-107992282D01*
X151792346Y-107990836D01*
X151887583Y-107943218D01*
X151893916Y-107938302D01*
X151900578Y-107933851D01*
X151995816Y-107838613D01*
X151997206Y-107836531D01*
X151998234Y-107836018D01*
X152002204Y-107829052D01*
X152006655Y-107822392D01*
X152006655Y-107821244D01*
X152007895Y-107819069D01*
X152055514Y-107676213D01*
X152056516Y-107668262D01*
X152058080Y-107660401D01*
X152058080Y-107565163D01*
X152056516Y-107557301D01*
X152055514Y-107549351D01*
X152007895Y-107406495D01*
X152006655Y-107404319D01*
X152006655Y-107403171D01*
X152002200Y-107396504D01*
X151998234Y-107389546D01*
X151997207Y-107389032D01*
X151995816Y-107386950D01*
X151948197Y-107339332D01*
X151931976Y-107328493D01*
X151893708Y-107328493D01*
X151866648Y-107355553D01*
X151866648Y-107393821D01*
X151877487Y-107410042D01*
X151916759Y-107449315D01*
X151958080Y-107573276D01*
X151958080Y-107652288D01*
X151916759Y-107776249D01*
X151835606Y-107857403D01*
X151752534Y-107898939D01*
X151573354Y-107943734D01*
X151442807Y-107943734D01*
X151263628Y-107898939D01*
X151180554Y-107857402D01*
X151099401Y-107776249D01*
X151058080Y-107652286D01*
X151058080Y-107573277D01*
X151099401Y-107449314D01*
X151138674Y-107410043D01*
X151149513Y-107393822D01*
X151149513Y-107355553D01*
X151122453Y-107328493D01*
X151084184Y-107328493D01*
X151067963Y-107339332D01*
X151020345Y-107386951D01*
X151018954Y-107389032D01*
X151017927Y-107389546D01*
X151013955Y-107396513D01*
X151009506Y-107403172D01*
X151009506Y-107404318D01*
X151008266Y-107406494D01*
X150960646Y-107549351D01*
X150959643Y-107557301D01*
X150958080Y-107565163D01*
X150846969Y-107565163D01*
X150846969Y-106260315D01*
X150961886Y-106260315D01*
X150961886Y-106298583D01*
X150988946Y-106325643D01*
X151008080Y-106329449D01*
X151782702Y-106329449D01*
X151272651Y-106567473D01*
X151262261Y-106575095D01*
X151260026Y-106575908D01*
X151259439Y-106577165D01*
X151256921Y-106579013D01*
X151251076Y-106595085D01*
X151243843Y-106610586D01*
X151244641Y-106612782D01*
X151243843Y-106614978D01*
X151251076Y-106630478D01*
X151256921Y-106646551D01*
X151259439Y-106648398D01*
X151260026Y-106649656D01*
X151262261Y-106650468D01*
X151272651Y-106658091D01*
X151782702Y-106896115D01*
X151008080Y-106896115D01*
X150988946Y-106899921D01*
X150961886Y-106926981D01*
X150961886Y-106965249D01*
X150988946Y-106992309D01*
X151008080Y-106996115D01*
X152008080Y-106996115D01*
X152027214Y-106992309D01*
X152033496Y-106986026D01*
X152041849Y-106982989D01*
X152046499Y-106973023D01*
X152054274Y-106965249D01*
X152054274Y-106956363D01*
X152058032Y-106948311D01*
X152054274Y-106937976D01*
X152054274Y-106926981D01*
X152047991Y-106920698D01*
X152044954Y-106912346D01*
X152029225Y-106900806D01*
X151412029Y-106612782D01*
X152029225Y-106324758D01*
X152044954Y-106313218D01*
X152047991Y-106304865D01*
X152054274Y-106298583D01*
X152054274Y-106287587D01*
X152058032Y-106277253D01*
X152054274Y-106269200D01*
X152054274Y-106260315D01*
X152046499Y-106252540D01*
X152041849Y-106242575D01*
X152033496Y-106239537D01*
X152027214Y-106233255D01*
X152008080Y-106229449D01*
X151008080Y-106229449D01*
X150988946Y-106233255D01*
X150961886Y-106260315D01*
X150846969Y-106260315D01*
X150846969Y-105225524D01*
X150958479Y-105225524D01*
X150961886Y-105238016D01*
X150961886Y-105250964D01*
X150966740Y-105255818D01*
X150968548Y-105262445D01*
X150983273Y-105275242D01*
X151819802Y-105753258D01*
X151008080Y-105753258D01*
X150988946Y-105757064D01*
X150961886Y-105784124D01*
X150961886Y-105822392D01*
X150988946Y-105849452D01*
X151008080Y-105853258D01*
X152008080Y-105853258D01*
X152027214Y-105849452D01*
X152032068Y-105844597D01*
X152038695Y-105842790D01*
X152045120Y-105831545D01*
X152054274Y-105822392D01*
X152054274Y-105815526D01*
X152057681Y-105809564D01*
X152054274Y-105797071D01*
X152054274Y-105784124D01*
X152049418Y-105779268D01*
X152047612Y-105772644D01*
X152032887Y-105759846D01*
X151196358Y-105281830D01*
X152008080Y-105281830D01*
X152027214Y-105278024D01*
X152054274Y-105250964D01*
X152054274Y-105212696D01*
X152027214Y-105185636D01*
X152008080Y-105181830D01*
X151008080Y-105181830D01*
X150988946Y-105185636D01*
X150984091Y-105190490D01*
X150977465Y-105192298D01*
X150971039Y-105203542D01*
X150961886Y-105212696D01*
X150961886Y-105219561D01*
X150958479Y-105225524D01*
X150846969Y-105225524D01*
X150846969Y-104517544D01*
X150958080Y-104517544D01*
X150958080Y-104755639D01*
X150961886Y-104774773D01*
X150988946Y-104801833D01*
X151008080Y-104805639D01*
X152008080Y-104805639D01*
X152027214Y-104801833D01*
X152054274Y-104774773D01*
X152058080Y-104755639D01*
X152058080Y-104517544D01*
X152056516Y-104509682D01*
X152055514Y-104501732D01*
X152007895Y-104358876D01*
X152006655Y-104356700D01*
X152006655Y-104355553D01*
X152002204Y-104348892D01*
X151998234Y-104341927D01*
X151997206Y-104341413D01*
X151995816Y-104339332D01*
X151900578Y-104244094D01*
X151893916Y-104239642D01*
X151887583Y-104234727D01*
X151792346Y-104187109D01*
X151787064Y-104185662D01*
X151782112Y-104183323D01*
X151591636Y-104135704D01*
X151585518Y-104135406D01*
X151579509Y-104134211D01*
X151436652Y-104134211D01*
X151430642Y-104135406D01*
X151424525Y-104135704D01*
X151234049Y-104183323D01*
X151229096Y-104185662D01*
X151223815Y-104187109D01*
X151128577Y-104234728D01*
X151122242Y-104239643D01*
X151115583Y-104244094D01*
X151020345Y-104339332D01*
X151018954Y-104341413D01*
X151017927Y-104341927D01*
X151013955Y-104348894D01*
X151009506Y-104355553D01*
X151009506Y-104356699D01*
X151008266Y-104358875D01*
X150960646Y-104501732D01*
X150959643Y-104509682D01*
X150958080Y-104517544D01*
X150846969Y-104517544D01*
X150846969Y-104023100D01*
X152169191Y-104023100D01*
X152169191Y-108154845D01*
G37*
G36*
X154292534Y-107469482D02*
G01*
X154375606Y-107511018D01*
X154456759Y-107592171D01*
X154498080Y-107716133D01*
X154498080Y-107896115D01*
X153598080Y-107896115D01*
X153598080Y-107716134D01*
X153639401Y-107592171D01*
X153720554Y-107511018D01*
X153803628Y-107469481D01*
X153982807Y-107424687D01*
X154113354Y-107424687D01*
X154292534Y-107469482D01*
G37*
G36*
X154389966Y-106755639D02*
G01*
X153883795Y-106924362D01*
X153883795Y-106586915D01*
X154389966Y-106755639D01*
G37*
G36*
X154389966Y-105136591D02*
G01*
X153883795Y-105305314D01*
X153883795Y-104967867D01*
X154389966Y-105136591D01*
G37*
G36*
X154379661Y-103181739D02*
G01*
X154459367Y-103261445D01*
X154498080Y-103338870D01*
X154498080Y-103505739D01*
X154459367Y-103583164D01*
X154379661Y-103662870D01*
X154208592Y-103705638D01*
X153887569Y-103705638D01*
X153716499Y-103662870D01*
X153636792Y-103583163D01*
X153598080Y-103505739D01*
X153598080Y-103338870D01*
X153636792Y-103261446D01*
X153716499Y-103181739D01*
X153887569Y-103138972D01*
X154208592Y-103138972D01*
X154379661Y-103181739D01*
G37*
G36*
X154709191Y-108107226D02*
G01*
X153386969Y-108107226D01*
X153386969Y-107708020D01*
X153498080Y-107708020D01*
X153498080Y-107946115D01*
X153501886Y-107965249D01*
X153528946Y-107992309D01*
X153548080Y-107996115D01*
X154548080Y-107996115D01*
X154567214Y-107992309D01*
X154594274Y-107965249D01*
X154598080Y-107946115D01*
X154598080Y-107708020D01*
X154596516Y-107700158D01*
X154595514Y-107692208D01*
X154547895Y-107549352D01*
X154546655Y-107547176D01*
X154546655Y-107546029D01*
X154542204Y-107539368D01*
X154538234Y-107532403D01*
X154537206Y-107531889D01*
X154535816Y-107529808D01*
X154440578Y-107434570D01*
X154433916Y-107430118D01*
X154427583Y-107425203D01*
X154332346Y-107377585D01*
X154327064Y-107376138D01*
X154322112Y-107373799D01*
X154131636Y-107326180D01*
X154125518Y-107325882D01*
X154119509Y-107324687D01*
X153976652Y-107324687D01*
X153970642Y-107325882D01*
X153964525Y-107326180D01*
X153774049Y-107373799D01*
X153769096Y-107376138D01*
X153763815Y-107377585D01*
X153668577Y-107425204D01*
X153662242Y-107430119D01*
X153655583Y-107434570D01*
X153560345Y-107529808D01*
X153558954Y-107531889D01*
X153557927Y-107532403D01*
X153553955Y-107539370D01*
X153549506Y-107546029D01*
X153549506Y-107547175D01*
X153548266Y-107549351D01*
X153500646Y-107692208D01*
X153499643Y-107700158D01*
X153498080Y-107708020D01*
X153386969Y-107708020D01*
X153386969Y-106425850D01*
X153498206Y-106425850D01*
X153515320Y-106460079D01*
X153532269Y-106469740D01*
X153783795Y-106553582D01*
X153783795Y-106957696D01*
X153532269Y-107041538D01*
X153515320Y-107051199D01*
X153498206Y-107085428D01*
X153510307Y-107121732D01*
X153544536Y-107138846D01*
X153563891Y-107136406D01*
X154563891Y-106803073D01*
X154580839Y-106793412D01*
X154582510Y-106790069D01*
X154585852Y-106788399D01*
X154590865Y-106773360D01*
X154597954Y-106759183D01*
X154596772Y-106755639D01*
X154597954Y-106752095D01*
X154590865Y-106737917D01*
X154585852Y-106722879D01*
X154582510Y-106721208D01*
X154580839Y-106717866D01*
X154563891Y-106708205D01*
X153563891Y-106374872D01*
X153544536Y-106372432D01*
X153510307Y-106389546D01*
X153498206Y-106425850D01*
X153386969Y-106425850D01*
X153386969Y-105926981D01*
X153501886Y-105926981D01*
X153501886Y-105965249D01*
X153528946Y-105992309D01*
X153548080Y-105996115D01*
X154498080Y-105996115D01*
X154498080Y-106231829D01*
X154501886Y-106250963D01*
X154528946Y-106278023D01*
X154567214Y-106278023D01*
X154594274Y-106250963D01*
X154598080Y-106231829D01*
X154598080Y-105660401D01*
X154594274Y-105641267D01*
X154567214Y-105614207D01*
X154528946Y-105614207D01*
X154501886Y-105641267D01*
X154498080Y-105660401D01*
X154498080Y-105896115D01*
X153548080Y-105896115D01*
X153528946Y-105899921D01*
X153501886Y-105926981D01*
X153386969Y-105926981D01*
X153386969Y-104806802D01*
X153498206Y-104806802D01*
X153515320Y-104841031D01*
X153532269Y-104850692D01*
X153783795Y-104934534D01*
X153783795Y-105338648D01*
X153532269Y-105422490D01*
X153515320Y-105432151D01*
X153498206Y-105466380D01*
X153510307Y-105502684D01*
X153544536Y-105519798D01*
X153563891Y-105517358D01*
X154563891Y-105184025D01*
X154580839Y-105174364D01*
X154582510Y-105171021D01*
X154585852Y-105169351D01*
X154590865Y-105154312D01*
X154597954Y-105140135D01*
X154596772Y-105136591D01*
X154597954Y-105133047D01*
X154590865Y-105118869D01*
X154585852Y-105103831D01*
X154582510Y-105102160D01*
X154580839Y-105098818D01*
X154563891Y-105089157D01*
X153563891Y-104755824D01*
X153544536Y-104753384D01*
X153510307Y-104770498D01*
X153498206Y-104806802D01*
X153386969Y-104806802D01*
X153386969Y-103327067D01*
X153498080Y-103327067D01*
X153498080Y-103517543D01*
X153498568Y-103519999D01*
X153498206Y-103521088D01*
X153500322Y-103528815D01*
X153501886Y-103536677D01*
X153502697Y-103537488D01*
X153503359Y-103539904D01*
X153550979Y-103635142D01*
X153555894Y-103641476D01*
X153560345Y-103648136D01*
X153655583Y-103743374D01*
X153660085Y-103746382D01*
X153661172Y-103748193D01*
X153666710Y-103750809D01*
X153671804Y-103754213D01*
X153673915Y-103754213D01*
X153678811Y-103756526D01*
X153869287Y-103804145D01*
X153875404Y-103804442D01*
X153881414Y-103805638D01*
X154214747Y-103805638D01*
X154220756Y-103804442D01*
X154226874Y-103804145D01*
X154417350Y-103756526D01*
X154422246Y-103754213D01*
X154424357Y-103754213D01*
X154429450Y-103750809D01*
X154434989Y-103748193D01*
X154436075Y-103746382D01*
X154440578Y-103743374D01*
X154535816Y-103648136D01*
X154540266Y-103641476D01*
X154545182Y-103635142D01*
X154592801Y-103539904D01*
X154593462Y-103537488D01*
X154594274Y-103536677D01*
X154595837Y-103528815D01*
X154597954Y-103521088D01*
X154597591Y-103519999D01*
X154598080Y-103517543D01*
X154598080Y-103327067D01*
X154597591Y-103324610D01*
X154597954Y-103323522D01*
X154595837Y-103315794D01*
X154594274Y-103307933D01*
X154593462Y-103307121D01*
X154592801Y-103304706D01*
X154545182Y-103209468D01*
X154540266Y-103203133D01*
X154535816Y-103196474D01*
X154440578Y-103101236D01*
X154436075Y-103098227D01*
X154434989Y-103096417D01*
X154429450Y-103093800D01*
X154424357Y-103090397D01*
X154422246Y-103090397D01*
X154417350Y-103088084D01*
X154226874Y-103040465D01*
X154220756Y-103040167D01*
X154214747Y-103038972D01*
X153881414Y-103038972D01*
X153875404Y-103040167D01*
X153869287Y-103040465D01*
X153678811Y-103088084D01*
X153673915Y-103090397D01*
X153671804Y-103090397D01*
X153666710Y-103093800D01*
X153661172Y-103096417D01*
X153660085Y-103098227D01*
X153655583Y-103101236D01*
X153560345Y-103196474D01*
X153555894Y-103203133D01*
X153550979Y-103209468D01*
X153503359Y-103304706D01*
X153502697Y-103307121D01*
X153501886Y-103307933D01*
X153500322Y-103315794D01*
X153498206Y-103323522D01*
X153498568Y-103324610D01*
X153498080Y-103327067D01*
X153386969Y-103327067D01*
X153386969Y-102279448D01*
X153498080Y-102279448D01*
X153498080Y-102469924D01*
X153498568Y-102472380D01*
X153498206Y-102473469D01*
X153500322Y-102481196D01*
X153501886Y-102489058D01*
X153502697Y-102489869D01*
X153503359Y-102492285D01*
X153550979Y-102587523D01*
X153555894Y-102593857D01*
X153560345Y-102600517D01*
X153607963Y-102648136D01*
X153614629Y-102652590D01*
X153620958Y-102657502D01*
X153716196Y-102705121D01*
X153718611Y-102705782D01*
X153719423Y-102706594D01*
X153727284Y-102708157D01*
X153735012Y-102710274D01*
X153736100Y-102709911D01*
X153738557Y-102710400D01*
X154548080Y-102710400D01*
X154567214Y-102706594D01*
X154594274Y-102679534D01*
X154594274Y-102641266D01*
X154567214Y-102614206D01*
X154548080Y-102610400D01*
X153750361Y-102610400D01*
X153672937Y-102571688D01*
X153636792Y-102535544D01*
X153598080Y-102458120D01*
X153598080Y-102291251D01*
X153636792Y-102213827D01*
X153672937Y-102177683D01*
X153750361Y-102138972D01*
X154548080Y-102138972D01*
X154567214Y-102135166D01*
X154594274Y-102108106D01*
X154594274Y-102069838D01*
X154567214Y-102042778D01*
X154548080Y-102038972D01*
X153738557Y-102038972D01*
X153736100Y-102039460D01*
X153735012Y-102039098D01*
X153727284Y-102041214D01*
X153719423Y-102042778D01*
X153718611Y-102043589D01*
X153716196Y-102044251D01*
X153620958Y-102091870D01*
X153614629Y-102096781D01*
X153607963Y-102101236D01*
X153560345Y-102148855D01*
X153555894Y-102155514D01*
X153550979Y-102161849D01*
X153503359Y-102257087D01*
X153502697Y-102259502D01*
X153501886Y-102260314D01*
X153500322Y-102268175D01*
X153498206Y-102275903D01*
X153498568Y-102276991D01*
X153498080Y-102279448D01*
X153386969Y-102279448D01*
X153386969Y-101450790D01*
X153501886Y-101450790D01*
X153501886Y-101489058D01*
X153528946Y-101516118D01*
X153548080Y-101519924D01*
X154498080Y-101519924D01*
X154498080Y-101755638D01*
X154501886Y-101774772D01*
X154528946Y-101801832D01*
X154567214Y-101801832D01*
X154594274Y-101774772D01*
X154598080Y-101755638D01*
X154598080Y-101184210D01*
X154594274Y-101165076D01*
X154567214Y-101138016D01*
X154528946Y-101138016D01*
X154501886Y-101165076D01*
X154498080Y-101184210D01*
X154498080Y-101419924D01*
X153548080Y-101419924D01*
X153528946Y-101423730D01*
X153501886Y-101450790D01*
X153386969Y-101450790D01*
X153386969Y-101026905D01*
X154709191Y-101026905D01*
X154709191Y-108107226D01*
G37*
G36*
X161769191Y-84654845D02*
G01*
X160446969Y-84654845D01*
X160446969Y-84112782D01*
X160558080Y-84112782D01*
X160558080Y-84350877D01*
X160559643Y-84358738D01*
X160560646Y-84366689D01*
X160608266Y-84509546D01*
X160617927Y-84526494D01*
X160652156Y-84543608D01*
X160688460Y-84531507D01*
X160705574Y-84497278D01*
X160703134Y-84477922D01*
X160658080Y-84342762D01*
X160658080Y-84124585D01*
X160696792Y-84047161D01*
X160732937Y-84011017D01*
X160810361Y-83972306D01*
X160881992Y-83972306D01*
X160959415Y-84011017D01*
X160995559Y-84047162D01*
X161037095Y-84130234D01*
X161083383Y-84315385D01*
X161085722Y-84320337D01*
X161087169Y-84325619D01*
X161134787Y-84420856D01*
X161139702Y-84427189D01*
X161144154Y-84433851D01*
X161191772Y-84481470D01*
X161198438Y-84485924D01*
X161204767Y-84490836D01*
X161300005Y-84538455D01*
X161302420Y-84539116D01*
X161303232Y-84539928D01*
X161311093Y-84541491D01*
X161318821Y-84543608D01*
X161319909Y-84543245D01*
X161322366Y-84543734D01*
X161417604Y-84543734D01*
X161420060Y-84543245D01*
X161421149Y-84543608D01*
X161428876Y-84541491D01*
X161436738Y-84539928D01*
X161437549Y-84539116D01*
X161439965Y-84538455D01*
X161535202Y-84490837D01*
X161541535Y-84485921D01*
X161548197Y-84481470D01*
X161595816Y-84433852D01*
X161600270Y-84427185D01*
X161605182Y-84420857D01*
X161652801Y-84325619D01*
X161653462Y-84323203D01*
X161654274Y-84322392D01*
X161655837Y-84314530D01*
X161657954Y-84306803D01*
X161657591Y-84305714D01*
X161658080Y-84303258D01*
X161658080Y-84065163D01*
X161656516Y-84057301D01*
X161655514Y-84049351D01*
X161607895Y-83906495D01*
X161598234Y-83889546D01*
X161564005Y-83872432D01*
X161527701Y-83884533D01*
X161510587Y-83918762D01*
X161513027Y-83938117D01*
X161558080Y-84073276D01*
X161558080Y-84291454D01*
X161519368Y-84368877D01*
X161483224Y-84405022D01*
X161405801Y-84443734D01*
X161334170Y-84443734D01*
X161256746Y-84405022D01*
X161220601Y-84368878D01*
X161179066Y-84285807D01*
X161132778Y-84100655D01*
X161130438Y-84095702D01*
X161128992Y-84090421D01*
X161081373Y-83995183D01*
X161076461Y-83988854D01*
X161072007Y-83982188D01*
X161024388Y-83934570D01*
X161017726Y-83930118D01*
X161011393Y-83925203D01*
X160916156Y-83877585D01*
X160913740Y-83876923D01*
X160912929Y-83876112D01*
X160905067Y-83874548D01*
X160897340Y-83872432D01*
X160896251Y-83872794D01*
X160893795Y-83872306D01*
X160798557Y-83872306D01*
X160796100Y-83872794D01*
X160795012Y-83872432D01*
X160787284Y-83874548D01*
X160779423Y-83876112D01*
X160778611Y-83876923D01*
X160776196Y-83877585D01*
X160680958Y-83925204D01*
X160674629Y-83930115D01*
X160667963Y-83934570D01*
X160620345Y-83982189D01*
X160615894Y-83988848D01*
X160610979Y-83995183D01*
X160563359Y-84090421D01*
X160562697Y-84092836D01*
X160561886Y-84093648D01*
X160560322Y-84101509D01*
X160558206Y-84109237D01*
X160558568Y-84110325D01*
X160558080Y-84112782D01*
X160446969Y-84112782D01*
X160446969Y-83112782D01*
X160558080Y-83112782D01*
X160558080Y-83208020D01*
X160559643Y-83215881D01*
X160560646Y-83223832D01*
X160608266Y-83366689D01*
X160609506Y-83368864D01*
X160609506Y-83370011D01*
X160613955Y-83376669D01*
X160617927Y-83383637D01*
X160618954Y-83384150D01*
X160620345Y-83386232D01*
X160715583Y-83481470D01*
X160722242Y-83485920D01*
X160728577Y-83490836D01*
X160823815Y-83538455D01*
X160829096Y-83539901D01*
X160834049Y-83542241D01*
X161024525Y-83589860D01*
X161030642Y-83590157D01*
X161036652Y-83591353D01*
X161179509Y-83591353D01*
X161185518Y-83590157D01*
X161191636Y-83589860D01*
X161382112Y-83542241D01*
X161387064Y-83539901D01*
X161392346Y-83538455D01*
X161487583Y-83490837D01*
X161493916Y-83485921D01*
X161500578Y-83481470D01*
X161595816Y-83386232D01*
X161597206Y-83384150D01*
X161598234Y-83383637D01*
X161602204Y-83376671D01*
X161606655Y-83370011D01*
X161606655Y-83368863D01*
X161607895Y-83366688D01*
X161655514Y-83223832D01*
X161656516Y-83215881D01*
X161658080Y-83208020D01*
X161658080Y-83112782D01*
X161656516Y-83104920D01*
X161655514Y-83096970D01*
X161607895Y-82954114D01*
X161606655Y-82951938D01*
X161606655Y-82950790D01*
X161602200Y-82944123D01*
X161598234Y-82937165D01*
X161597207Y-82936651D01*
X161595816Y-82934569D01*
X161548197Y-82886951D01*
X161531976Y-82876112D01*
X161493708Y-82876112D01*
X161466648Y-82903172D01*
X161466648Y-82941440D01*
X161477487Y-82957661D01*
X161516759Y-82996934D01*
X161558080Y-83120895D01*
X161558080Y-83199907D01*
X161516759Y-83323868D01*
X161435606Y-83405022D01*
X161352534Y-83446558D01*
X161173354Y-83491353D01*
X161042807Y-83491353D01*
X160863628Y-83446558D01*
X160780554Y-83405021D01*
X160699401Y-83323868D01*
X160658080Y-83199905D01*
X160658080Y-83120896D01*
X160699401Y-82996933D01*
X160738674Y-82957662D01*
X160749513Y-82941441D01*
X160749513Y-82903172D01*
X160722453Y-82876112D01*
X160684184Y-82876112D01*
X160667963Y-82886951D01*
X160620345Y-82934570D01*
X160618954Y-82936651D01*
X160617927Y-82937165D01*
X160613955Y-82944132D01*
X160609506Y-82950791D01*
X160609506Y-82951937D01*
X160608266Y-82954113D01*
X160560646Y-83096970D01*
X160559643Y-83104920D01*
X160558080Y-83112782D01*
X160446969Y-83112782D01*
X160446969Y-81909897D01*
X160559644Y-81909897D01*
X160565056Y-81947781D01*
X160578080Y-81962306D01*
X161103388Y-82356287D01*
X161015942Y-82443734D01*
X160608080Y-82443734D01*
X160588946Y-82447540D01*
X160561886Y-82474600D01*
X160561886Y-82512868D01*
X160588946Y-82539928D01*
X160608080Y-82543734D01*
X161608080Y-82543734D01*
X161627214Y-82539928D01*
X161654274Y-82512868D01*
X161654274Y-82474600D01*
X161627214Y-82447540D01*
X161608080Y-82443734D01*
X161157362Y-82443734D01*
X161643435Y-81957661D01*
X161654274Y-81941440D01*
X161654274Y-81903172D01*
X161627214Y-81876112D01*
X161588946Y-81876112D01*
X161572725Y-81886951D01*
X161174817Y-82284858D01*
X160638080Y-81882306D01*
X160620489Y-81873870D01*
X160582605Y-81879282D01*
X160559644Y-81909897D01*
X160446969Y-81909897D01*
X160446969Y-81762759D01*
X161769191Y-81762759D01*
X161769191Y-84654845D01*
G37*
G36*
X159372534Y-107469482D02*
G01*
X159455606Y-107511018D01*
X159536759Y-107592171D01*
X159578080Y-107716133D01*
X159578080Y-107896115D01*
X158678080Y-107896115D01*
X158678080Y-107716134D01*
X158719401Y-107592171D01*
X158800554Y-107511018D01*
X158883628Y-107469481D01*
X159062807Y-107424687D01*
X159193354Y-107424687D01*
X159372534Y-107469482D01*
G37*
G36*
X159469966Y-106755639D02*
G01*
X158963795Y-106924362D01*
X158963795Y-106586915D01*
X159469966Y-106755639D01*
G37*
G36*
X159469966Y-105136591D02*
G01*
X158963795Y-105305314D01*
X158963795Y-104967867D01*
X159469966Y-105136591D01*
G37*
G36*
X159789191Y-108107226D02*
G01*
X158466969Y-108107226D01*
X158466969Y-107708020D01*
X158578080Y-107708020D01*
X158578080Y-107946115D01*
X158581886Y-107965249D01*
X158608946Y-107992309D01*
X158628080Y-107996115D01*
X159628080Y-107996115D01*
X159647214Y-107992309D01*
X159674274Y-107965249D01*
X159678080Y-107946115D01*
X159678080Y-107708020D01*
X159676516Y-107700158D01*
X159675514Y-107692208D01*
X159627895Y-107549352D01*
X159626655Y-107547176D01*
X159626655Y-107546029D01*
X159622204Y-107539368D01*
X159618234Y-107532403D01*
X159617206Y-107531889D01*
X159615816Y-107529808D01*
X159520578Y-107434570D01*
X159513916Y-107430118D01*
X159507583Y-107425203D01*
X159412346Y-107377585D01*
X159407064Y-107376138D01*
X159402112Y-107373799D01*
X159211636Y-107326180D01*
X159205518Y-107325882D01*
X159199509Y-107324687D01*
X159056652Y-107324687D01*
X159050642Y-107325882D01*
X159044525Y-107326180D01*
X158854049Y-107373799D01*
X158849096Y-107376138D01*
X158843815Y-107377585D01*
X158748577Y-107425204D01*
X158742242Y-107430119D01*
X158735583Y-107434570D01*
X158640345Y-107529808D01*
X158638954Y-107531889D01*
X158637927Y-107532403D01*
X158633955Y-107539370D01*
X158629506Y-107546029D01*
X158629506Y-107547175D01*
X158628266Y-107549351D01*
X158580646Y-107692208D01*
X158579643Y-107700158D01*
X158578080Y-107708020D01*
X158466969Y-107708020D01*
X158466969Y-106425850D01*
X158578206Y-106425850D01*
X158595320Y-106460079D01*
X158612269Y-106469740D01*
X158863795Y-106553582D01*
X158863795Y-106957696D01*
X158612269Y-107041538D01*
X158595320Y-107051199D01*
X158578206Y-107085428D01*
X158590307Y-107121732D01*
X158624536Y-107138846D01*
X158643891Y-107136406D01*
X159643891Y-106803073D01*
X159660839Y-106793412D01*
X159662510Y-106790069D01*
X159665852Y-106788399D01*
X159670865Y-106773360D01*
X159677954Y-106759183D01*
X159676772Y-106755639D01*
X159677954Y-106752095D01*
X159670865Y-106737917D01*
X159665852Y-106722879D01*
X159662510Y-106721208D01*
X159660839Y-106717866D01*
X159643891Y-106708205D01*
X158643891Y-106374872D01*
X158624536Y-106372432D01*
X158590307Y-106389546D01*
X158578206Y-106425850D01*
X158466969Y-106425850D01*
X158466969Y-105926981D01*
X158581886Y-105926981D01*
X158581886Y-105965249D01*
X158608946Y-105992309D01*
X158628080Y-105996115D01*
X159578080Y-105996115D01*
X159578080Y-106231829D01*
X159581886Y-106250963D01*
X159608946Y-106278023D01*
X159647214Y-106278023D01*
X159674274Y-106250963D01*
X159678080Y-106231829D01*
X159678080Y-105660401D01*
X159674274Y-105641267D01*
X159647214Y-105614207D01*
X159608946Y-105614207D01*
X159581886Y-105641267D01*
X159578080Y-105660401D01*
X159578080Y-105896115D01*
X158628080Y-105896115D01*
X158608946Y-105899921D01*
X158581886Y-105926981D01*
X158466969Y-105926981D01*
X158466969Y-104806802D01*
X158578206Y-104806802D01*
X158595320Y-104841031D01*
X158612269Y-104850692D01*
X158863795Y-104934534D01*
X158863795Y-105338648D01*
X158612269Y-105422490D01*
X158595320Y-105432151D01*
X158578206Y-105466380D01*
X158590307Y-105502684D01*
X158624536Y-105519798D01*
X158643891Y-105517358D01*
X159643891Y-105184025D01*
X159660839Y-105174364D01*
X159662510Y-105171021D01*
X159665852Y-105169351D01*
X159670865Y-105154312D01*
X159677954Y-105140135D01*
X159676772Y-105136591D01*
X159677954Y-105133047D01*
X159670865Y-105118869D01*
X159665852Y-105103831D01*
X159662510Y-105102160D01*
X159660839Y-105098818D01*
X159643891Y-105089157D01*
X158643891Y-104755824D01*
X158624536Y-104753384D01*
X158590307Y-104770498D01*
X158578206Y-104806802D01*
X158466969Y-104806802D01*
X158466969Y-103688885D01*
X158581886Y-103688885D01*
X158581886Y-103727153D01*
X158608946Y-103754213D01*
X158628080Y-103758019D01*
X159628080Y-103758019D01*
X159647214Y-103754213D01*
X159674274Y-103727153D01*
X159674274Y-103688885D01*
X159647214Y-103661825D01*
X159628080Y-103658019D01*
X158628080Y-103658019D01*
X158608946Y-103661825D01*
X158581886Y-103688885D01*
X158466969Y-103688885D01*
X158466969Y-102654095D01*
X158578479Y-102654095D01*
X158581886Y-102666587D01*
X158581886Y-102679535D01*
X158586740Y-102684389D01*
X158588548Y-102691016D01*
X158603273Y-102703813D01*
X159439802Y-103181829D01*
X158628080Y-103181829D01*
X158608946Y-103185635D01*
X158581886Y-103212695D01*
X158581886Y-103250963D01*
X158608946Y-103278023D01*
X158628080Y-103281829D01*
X159628080Y-103281829D01*
X159647214Y-103278023D01*
X159652068Y-103273168D01*
X159658695Y-103271361D01*
X159665120Y-103260116D01*
X159674274Y-103250963D01*
X159674274Y-103244097D01*
X159677681Y-103238135D01*
X159674274Y-103225642D01*
X159674274Y-103212695D01*
X159669418Y-103207839D01*
X159667612Y-103201215D01*
X159652887Y-103188417D01*
X158816358Y-102710401D01*
X159628080Y-102710401D01*
X159647214Y-102706595D01*
X159674274Y-102679535D01*
X159674274Y-102641267D01*
X159647214Y-102614207D01*
X159628080Y-102610401D01*
X158628080Y-102610401D01*
X158608946Y-102614207D01*
X158604091Y-102619061D01*
X158597465Y-102620869D01*
X158591039Y-102632113D01*
X158581886Y-102641267D01*
X158581886Y-102648132D01*
X158578479Y-102654095D01*
X158466969Y-102654095D01*
X158466969Y-102499290D01*
X159789191Y-102499290D01*
X159789191Y-108107226D01*
G37*
G36*
X166432534Y-81921863D02*
G01*
X166515606Y-81963399D01*
X166596759Y-82044552D01*
X166638080Y-82168514D01*
X166638080Y-82348496D01*
X165738080Y-82348496D01*
X165738080Y-82168515D01*
X165779401Y-82044552D01*
X165860554Y-81963399D01*
X165943628Y-81921862D01*
X166122807Y-81877068D01*
X166253354Y-81877068D01*
X166432534Y-81921863D01*
G37*
G36*
X166849191Y-84654845D02*
G01*
X165526969Y-84654845D01*
X165526969Y-84065163D01*
X165638080Y-84065163D01*
X165638080Y-84160401D01*
X165639643Y-84168262D01*
X165640646Y-84176213D01*
X165688266Y-84319070D01*
X165689506Y-84321245D01*
X165689506Y-84322392D01*
X165693955Y-84329050D01*
X165697927Y-84336018D01*
X165698954Y-84336531D01*
X165700345Y-84338613D01*
X165795583Y-84433851D01*
X165802242Y-84438301D01*
X165808577Y-84443217D01*
X165903815Y-84490836D01*
X165909096Y-84492282D01*
X165914049Y-84494622D01*
X166104525Y-84542241D01*
X166110642Y-84542538D01*
X166116652Y-84543734D01*
X166259509Y-84543734D01*
X166265518Y-84542538D01*
X166271636Y-84542241D01*
X166462112Y-84494622D01*
X166467064Y-84492282D01*
X166472346Y-84490836D01*
X166567583Y-84443218D01*
X166573916Y-84438302D01*
X166580578Y-84433851D01*
X166675816Y-84338613D01*
X166677206Y-84336531D01*
X166678234Y-84336018D01*
X166682204Y-84329052D01*
X166686655Y-84322392D01*
X166686655Y-84321244D01*
X166687895Y-84319069D01*
X166735514Y-84176213D01*
X166736516Y-84168262D01*
X166738080Y-84160401D01*
X166738080Y-84017544D01*
X166737591Y-84015087D01*
X166737954Y-84013999D01*
X166735837Y-84006271D01*
X166734274Y-83998410D01*
X166733462Y-83997598D01*
X166732801Y-83995183D01*
X166685182Y-83899945D01*
X166673221Y-83884533D01*
X166636916Y-83872432D01*
X166602688Y-83889546D01*
X166590587Y-83925851D01*
X166595740Y-83944667D01*
X166638080Y-84029347D01*
X166638080Y-84152288D01*
X166596759Y-84276249D01*
X166515606Y-84357403D01*
X166432534Y-84398939D01*
X166253354Y-84443734D01*
X166122807Y-84443734D01*
X165943628Y-84398939D01*
X165860554Y-84357402D01*
X165779401Y-84276249D01*
X165738080Y-84152286D01*
X165738080Y-84073277D01*
X165779401Y-83949314D01*
X165804030Y-83924687D01*
X166066652Y-83924687D01*
X166066652Y-84065163D01*
X166070458Y-84084297D01*
X166097518Y-84111357D01*
X166135786Y-84111357D01*
X166162846Y-84084297D01*
X166166652Y-84065163D01*
X166166652Y-83874687D01*
X166162846Y-83855553D01*
X166135786Y-83828493D01*
X166116652Y-83824687D01*
X165783319Y-83824687D01*
X165764185Y-83828493D01*
X165764184Y-83828493D01*
X165747963Y-83839332D01*
X165700345Y-83886951D01*
X165698954Y-83889032D01*
X165697927Y-83889546D01*
X165693955Y-83896513D01*
X165689506Y-83903172D01*
X165689506Y-83904318D01*
X165688266Y-83906494D01*
X165640646Y-84049351D01*
X165639643Y-84057301D01*
X165638080Y-84065163D01*
X165526969Y-84065163D01*
X165526969Y-82868381D01*
X165638479Y-82868381D01*
X165641886Y-82880873D01*
X165641886Y-82893821D01*
X165646740Y-82898675D01*
X165648548Y-82905302D01*
X165663273Y-82918099D01*
X166499802Y-83396115D01*
X165688080Y-83396115D01*
X165668946Y-83399921D01*
X165641886Y-83426981D01*
X165641886Y-83465249D01*
X165668946Y-83492309D01*
X165688080Y-83496115D01*
X166688080Y-83496115D01*
X166707214Y-83492309D01*
X166712068Y-83487454D01*
X166718695Y-83485647D01*
X166725120Y-83474402D01*
X166734274Y-83465249D01*
X166734274Y-83458383D01*
X166737681Y-83452421D01*
X166734274Y-83439928D01*
X166734274Y-83426981D01*
X166729418Y-83422125D01*
X166727612Y-83415501D01*
X166712887Y-83402703D01*
X165876358Y-82924687D01*
X166688080Y-82924687D01*
X166707214Y-82920881D01*
X166734274Y-82893821D01*
X166734274Y-82855553D01*
X166707214Y-82828493D01*
X166688080Y-82824687D01*
X165688080Y-82824687D01*
X165668946Y-82828493D01*
X165664091Y-82833347D01*
X165657465Y-82835155D01*
X165651039Y-82846399D01*
X165641886Y-82855553D01*
X165641886Y-82862418D01*
X165638479Y-82868381D01*
X165526969Y-82868381D01*
X165526969Y-82160401D01*
X165638080Y-82160401D01*
X165638080Y-82398496D01*
X165641886Y-82417630D01*
X165668946Y-82444690D01*
X165688080Y-82448496D01*
X166688080Y-82448496D01*
X166707214Y-82444690D01*
X166734274Y-82417630D01*
X166738080Y-82398496D01*
X166738080Y-82160401D01*
X166736516Y-82152539D01*
X166735514Y-82144589D01*
X166687895Y-82001733D01*
X166686655Y-81999557D01*
X166686655Y-81998410D01*
X166682204Y-81991749D01*
X166678234Y-81984784D01*
X166677206Y-81984270D01*
X166675816Y-81982189D01*
X166580578Y-81886951D01*
X166573916Y-81882499D01*
X166567583Y-81877584D01*
X166472346Y-81829966D01*
X166467064Y-81828519D01*
X166462112Y-81826180D01*
X166271636Y-81778561D01*
X166265518Y-81778263D01*
X166259509Y-81777068D01*
X166116652Y-81777068D01*
X166110642Y-81778263D01*
X166104525Y-81778561D01*
X165914049Y-81826180D01*
X165909096Y-81828519D01*
X165903815Y-81829966D01*
X165808577Y-81877585D01*
X165802242Y-81882500D01*
X165795583Y-81886951D01*
X165700345Y-81982189D01*
X165698954Y-81984270D01*
X165697927Y-81984784D01*
X165693955Y-81991751D01*
X165689506Y-81998410D01*
X165689506Y-81999556D01*
X165688266Y-82001732D01*
X165640646Y-82144589D01*
X165639643Y-82152539D01*
X165638080Y-82160401D01*
X165526969Y-82160401D01*
X165526969Y-81665957D01*
X166849191Y-81665957D01*
X166849191Y-84654845D01*
G37*
D11*
X165476189Y-62501504D02*
X164999999Y-62501504D01*
X165571427Y-62787219D02*
X165238094Y-61787219D01*
X165238094Y-61787219D02*
X164904761Y-62787219D01*
X164714284Y-62120552D02*
X164333332Y-62120552D01*
X164571427Y-61787219D02*
X164571427Y-62644361D01*
X164571427Y-62644361D02*
X164523808Y-62739600D01*
X164523808Y-62739600D02*
X164428570Y-62787219D01*
X164428570Y-62787219D02*
X164333332Y-62787219D01*
X163571427Y-62787219D02*
X163571427Y-62263409D01*
X163571427Y-62263409D02*
X163619046Y-62168171D01*
X163619046Y-62168171D02*
X163714284Y-62120552D01*
X163714284Y-62120552D02*
X163904760Y-62120552D01*
X163904760Y-62120552D02*
X163999998Y-62168171D01*
X163571427Y-62739600D02*
X163666665Y-62787219D01*
X163666665Y-62787219D02*
X163904760Y-62787219D01*
X163904760Y-62787219D02*
X163999998Y-62739600D01*
X163999998Y-62739600D02*
X164047617Y-62644361D01*
X164047617Y-62644361D02*
X164047617Y-62549123D01*
X164047617Y-62549123D02*
X163999998Y-62453885D01*
X163999998Y-62453885D02*
X163904760Y-62406266D01*
X163904760Y-62406266D02*
X163666665Y-62406266D01*
X163666665Y-62406266D02*
X163571427Y-62358647D01*
X163095236Y-62787219D02*
X163095236Y-62120552D01*
X163095236Y-62311028D02*
X163047617Y-62215790D01*
X163047617Y-62215790D02*
X162999998Y-62168171D01*
X162999998Y-62168171D02*
X162904760Y-62120552D01*
X162904760Y-62120552D02*
X162809522Y-62120552D01*
X162476188Y-62787219D02*
X162476188Y-62120552D01*
X162476188Y-61787219D02*
X162523807Y-61834838D01*
X162523807Y-61834838D02*
X162476188Y-61882457D01*
X162476188Y-61882457D02*
X162428569Y-61834838D01*
X162428569Y-61834838D02*
X162476188Y-61787219D01*
X162476188Y-61787219D02*
X162476188Y-61882457D01*
X161285712Y-62739600D02*
X161142855Y-62787219D01*
X161142855Y-62787219D02*
X160904760Y-62787219D01*
X160904760Y-62787219D02*
X160809522Y-62739600D01*
X160809522Y-62739600D02*
X160761903Y-62691980D01*
X160761903Y-62691980D02*
X160714284Y-62596742D01*
X160714284Y-62596742D02*
X160714284Y-62501504D01*
X160714284Y-62501504D02*
X160761903Y-62406266D01*
X160761903Y-62406266D02*
X160809522Y-62358647D01*
X160809522Y-62358647D02*
X160904760Y-62311028D01*
X160904760Y-62311028D02*
X161095236Y-62263409D01*
X161095236Y-62263409D02*
X161190474Y-62215790D01*
X161190474Y-62215790D02*
X161238093Y-62168171D01*
X161238093Y-62168171D02*
X161285712Y-62072933D01*
X161285712Y-62072933D02*
X161285712Y-61977695D01*
X161285712Y-61977695D02*
X161238093Y-61882457D01*
X161238093Y-61882457D02*
X161190474Y-61834838D01*
X161190474Y-61834838D02*
X161095236Y-61787219D01*
X161095236Y-61787219D02*
X160857141Y-61787219D01*
X160857141Y-61787219D02*
X160714284Y-61834838D01*
X160285712Y-62787219D02*
X160285712Y-61787219D01*
X159619046Y-61787219D02*
X159428570Y-61787219D01*
X159428570Y-61787219D02*
X159333332Y-61834838D01*
X159333332Y-61834838D02*
X159238094Y-61930076D01*
X159238094Y-61930076D02*
X159190475Y-62120552D01*
X159190475Y-62120552D02*
X159190475Y-62453885D01*
X159190475Y-62453885D02*
X159238094Y-62644361D01*
X159238094Y-62644361D02*
X159333332Y-62739600D01*
X159333332Y-62739600D02*
X159428570Y-62787219D01*
X159428570Y-62787219D02*
X159619046Y-62787219D01*
X159619046Y-62787219D02*
X159714284Y-62739600D01*
X159714284Y-62739600D02*
X159809522Y-62644361D01*
X159809522Y-62644361D02*
X159857141Y-62453885D01*
X159857141Y-62453885D02*
X159857141Y-62120552D01*
X159857141Y-62120552D02*
X159809522Y-61930076D01*
X159809522Y-61930076D02*
X159714284Y-61834838D01*
X159714284Y-61834838D02*
X159619046Y-61787219D01*
X158809522Y-61882457D02*
X158761903Y-61834838D01*
X158761903Y-61834838D02*
X158666665Y-61787219D01*
X158666665Y-61787219D02*
X158428570Y-61787219D01*
X158428570Y-61787219D02*
X158333332Y-61834838D01*
X158333332Y-61834838D02*
X158285713Y-61882457D01*
X158285713Y-61882457D02*
X158238094Y-61977695D01*
X158238094Y-61977695D02*
X158238094Y-62072933D01*
X158238094Y-62072933D02*
X158285713Y-62215790D01*
X158285713Y-62215790D02*
X158857141Y-62787219D01*
X158857141Y-62787219D02*
X158238094Y-62787219D01*
X157857141Y-62739600D02*
X157714284Y-62787219D01*
X157714284Y-62787219D02*
X157476189Y-62787219D01*
X157476189Y-62787219D02*
X157380951Y-62739600D01*
X157380951Y-62739600D02*
X157333332Y-62691980D01*
X157333332Y-62691980D02*
X157285713Y-62596742D01*
X157285713Y-62596742D02*
X157285713Y-62501504D01*
X157285713Y-62501504D02*
X157333332Y-62406266D01*
X157333332Y-62406266D02*
X157380951Y-62358647D01*
X157380951Y-62358647D02*
X157476189Y-62311028D01*
X157476189Y-62311028D02*
X157666665Y-62263409D01*
X157666665Y-62263409D02*
X157761903Y-62215790D01*
X157761903Y-62215790D02*
X157809522Y-62168171D01*
X157809522Y-62168171D02*
X157857141Y-62072933D01*
X157857141Y-62072933D02*
X157857141Y-61977695D01*
X157857141Y-61977695D02*
X157809522Y-61882457D01*
X157809522Y-61882457D02*
X157761903Y-61834838D01*
X157761903Y-61834838D02*
X157666665Y-61787219D01*
X157666665Y-61787219D02*
X157428570Y-61787219D01*
X157428570Y-61787219D02*
X157285713Y-61834838D01*
X156857141Y-62787219D02*
X156857141Y-61787219D01*
X156857141Y-61787219D02*
X156619046Y-61787219D01*
X156619046Y-61787219D02*
X156476189Y-61834838D01*
X156476189Y-61834838D02*
X156380951Y-61930076D01*
X156380951Y-61930076D02*
X156333332Y-62025314D01*
X156333332Y-62025314D02*
X156285713Y-62215790D01*
X156285713Y-62215790D02*
X156285713Y-62358647D01*
X156285713Y-62358647D02*
X156333332Y-62549123D01*
X156333332Y-62549123D02*
X156380951Y-62644361D01*
X156380951Y-62644361D02*
X156476189Y-62739600D01*
X156476189Y-62739600D02*
X156619046Y-62787219D01*
X156619046Y-62787219D02*
X156857141Y-62787219D01*
X155095236Y-62787219D02*
X155095236Y-61787219D01*
X155095236Y-61787219D02*
X154761903Y-62501504D01*
X154761903Y-62501504D02*
X154428570Y-61787219D01*
X154428570Y-61787219D02*
X154428570Y-62787219D01*
X153952379Y-62787219D02*
X153952379Y-62120552D01*
X153952379Y-61787219D02*
X153999998Y-61834838D01*
X153999998Y-61834838D02*
X153952379Y-61882457D01*
X153952379Y-61882457D02*
X153904760Y-61834838D01*
X153904760Y-61834838D02*
X153952379Y-61787219D01*
X153952379Y-61787219D02*
X153952379Y-61882457D01*
X153476189Y-62120552D02*
X153476189Y-62787219D01*
X153476189Y-62215790D02*
X153428570Y-62168171D01*
X153428570Y-62168171D02*
X153333332Y-62120552D01*
X153333332Y-62120552D02*
X153190475Y-62120552D01*
X153190475Y-62120552D02*
X153095237Y-62168171D01*
X153095237Y-62168171D02*
X153047618Y-62263409D01*
X153047618Y-62263409D02*
X153047618Y-62787219D01*
X152571427Y-62787219D02*
X152571427Y-62120552D01*
X152571427Y-61787219D02*
X152619046Y-61834838D01*
X152619046Y-61834838D02*
X152571427Y-61882457D01*
X152571427Y-61882457D02*
X152523808Y-61834838D01*
X152523808Y-61834838D02*
X152571427Y-61787219D01*
X152571427Y-61787219D02*
X152571427Y-61882457D01*
X163523809Y-64397163D02*
X163857142Y-63920972D01*
X164095237Y-64397163D02*
X164095237Y-63397163D01*
X164095237Y-63397163D02*
X163714285Y-63397163D01*
X163714285Y-63397163D02*
X163619047Y-63444782D01*
X163619047Y-63444782D02*
X163571428Y-63492401D01*
X163571428Y-63492401D02*
X163523809Y-63587639D01*
X163523809Y-63587639D02*
X163523809Y-63730496D01*
X163523809Y-63730496D02*
X163571428Y-63825734D01*
X163571428Y-63825734D02*
X163619047Y-63873353D01*
X163619047Y-63873353D02*
X163714285Y-63920972D01*
X163714285Y-63920972D02*
X164095237Y-63920972D01*
X163095237Y-64397163D02*
X163095237Y-63730496D01*
X163095237Y-63397163D02*
X163142856Y-63444782D01*
X163142856Y-63444782D02*
X163095237Y-63492401D01*
X163095237Y-63492401D02*
X163047618Y-63444782D01*
X163047618Y-63444782D02*
X163095237Y-63397163D01*
X163095237Y-63397163D02*
X163095237Y-63492401D01*
X162190476Y-64349544D02*
X162285714Y-64397163D01*
X162285714Y-64397163D02*
X162476190Y-64397163D01*
X162476190Y-64397163D02*
X162571428Y-64349544D01*
X162571428Y-64349544D02*
X162619047Y-64301924D01*
X162619047Y-64301924D02*
X162666666Y-64206686D01*
X162666666Y-64206686D02*
X162666666Y-63920972D01*
X162666666Y-63920972D02*
X162619047Y-63825734D01*
X162619047Y-63825734D02*
X162571428Y-63778115D01*
X162571428Y-63778115D02*
X162476190Y-63730496D01*
X162476190Y-63730496D02*
X162285714Y-63730496D01*
X162285714Y-63730496D02*
X162190476Y-63778115D01*
X161761904Y-64397163D02*
X161761904Y-63397163D01*
X161333333Y-64397163D02*
X161333333Y-63873353D01*
X161333333Y-63873353D02*
X161380952Y-63778115D01*
X161380952Y-63778115D02*
X161476190Y-63730496D01*
X161476190Y-63730496D02*
X161619047Y-63730496D01*
X161619047Y-63730496D02*
X161714285Y-63778115D01*
X161714285Y-63778115D02*
X161761904Y-63825734D01*
X160857142Y-64397163D02*
X160857142Y-63730496D01*
X160857142Y-63397163D02*
X160904761Y-63444782D01*
X160904761Y-63444782D02*
X160857142Y-63492401D01*
X160857142Y-63492401D02*
X160809523Y-63444782D01*
X160809523Y-63444782D02*
X160857142Y-63397163D01*
X160857142Y-63397163D02*
X160857142Y-63492401D01*
X159095238Y-64397163D02*
X159666666Y-64397163D01*
X159380952Y-64397163D02*
X159380952Y-63397163D01*
X159380952Y-63397163D02*
X159476190Y-63540020D01*
X159476190Y-63540020D02*
X159571428Y-63635258D01*
X159571428Y-63635258D02*
X159666666Y-63682877D01*
X158476190Y-63397163D02*
X158380952Y-63397163D01*
X158380952Y-63397163D02*
X158285714Y-63444782D01*
X158285714Y-63444782D02*
X158238095Y-63492401D01*
X158238095Y-63492401D02*
X158190476Y-63587639D01*
X158190476Y-63587639D02*
X158142857Y-63778115D01*
X158142857Y-63778115D02*
X158142857Y-64016210D01*
X158142857Y-64016210D02*
X158190476Y-64206686D01*
X158190476Y-64206686D02*
X158238095Y-64301924D01*
X158238095Y-64301924D02*
X158285714Y-64349544D01*
X158285714Y-64349544D02*
X158380952Y-64397163D01*
X158380952Y-64397163D02*
X158476190Y-64397163D01*
X158476190Y-64397163D02*
X158571428Y-64349544D01*
X158571428Y-64349544D02*
X158619047Y-64301924D01*
X158619047Y-64301924D02*
X158666666Y-64206686D01*
X158666666Y-64206686D02*
X158714285Y-64016210D01*
X158714285Y-64016210D02*
X158714285Y-63778115D01*
X158714285Y-63778115D02*
X158666666Y-63587639D01*
X158666666Y-63587639D02*
X158619047Y-63492401D01*
X158619047Y-63492401D02*
X158571428Y-63444782D01*
X158571428Y-63444782D02*
X158476190Y-63397163D01*
X157714285Y-64301924D02*
X157666666Y-64349544D01*
X157666666Y-64349544D02*
X157714285Y-64397163D01*
X157714285Y-64397163D02*
X157761904Y-64349544D01*
X157761904Y-64349544D02*
X157714285Y-64301924D01*
X157714285Y-64301924D02*
X157714285Y-64397163D01*
X157285714Y-63492401D02*
X157238095Y-63444782D01*
X157238095Y-63444782D02*
X157142857Y-63397163D01*
X157142857Y-63397163D02*
X156904762Y-63397163D01*
X156904762Y-63397163D02*
X156809524Y-63444782D01*
X156809524Y-63444782D02*
X156761905Y-63492401D01*
X156761905Y-63492401D02*
X156714286Y-63587639D01*
X156714286Y-63587639D02*
X156714286Y-63682877D01*
X156714286Y-63682877D02*
X156761905Y-63825734D01*
X156761905Y-63825734D02*
X157333333Y-64397163D01*
X157333333Y-64397163D02*
X156714286Y-64397163D01*
X156095238Y-63397163D02*
X156000000Y-63397163D01*
X156000000Y-63397163D02*
X155904762Y-63444782D01*
X155904762Y-63444782D02*
X155857143Y-63492401D01*
X155857143Y-63492401D02*
X155809524Y-63587639D01*
X155809524Y-63587639D02*
X155761905Y-63778115D01*
X155761905Y-63778115D02*
X155761905Y-64016210D01*
X155761905Y-64016210D02*
X155809524Y-64206686D01*
X155809524Y-64206686D02*
X155857143Y-64301924D01*
X155857143Y-64301924D02*
X155904762Y-64349544D01*
X155904762Y-64349544D02*
X156000000Y-64397163D01*
X156000000Y-64397163D02*
X156095238Y-64397163D01*
X156095238Y-64397163D02*
X156190476Y-64349544D01*
X156190476Y-64349544D02*
X156238095Y-64301924D01*
X156238095Y-64301924D02*
X156285714Y-64206686D01*
X156285714Y-64206686D02*
X156333333Y-64016210D01*
X156333333Y-64016210D02*
X156333333Y-63778115D01*
X156333333Y-63778115D02*
X156285714Y-63587639D01*
X156285714Y-63587639D02*
X156238095Y-63492401D01*
X156238095Y-63492401D02*
X156190476Y-63444782D01*
X156190476Y-63444782D02*
X156095238Y-63397163D01*
X155380952Y-63492401D02*
X155333333Y-63444782D01*
X155333333Y-63444782D02*
X155238095Y-63397163D01*
X155238095Y-63397163D02*
X155000000Y-63397163D01*
X155000000Y-63397163D02*
X154904762Y-63444782D01*
X154904762Y-63444782D02*
X154857143Y-63492401D01*
X154857143Y-63492401D02*
X154809524Y-63587639D01*
X154809524Y-63587639D02*
X154809524Y-63682877D01*
X154809524Y-63682877D02*
X154857143Y-63825734D01*
X154857143Y-63825734D02*
X155428571Y-64397163D01*
X155428571Y-64397163D02*
X154809524Y-64397163D01*
X153952381Y-63730496D02*
X153952381Y-64397163D01*
X154190476Y-63349544D02*
X154428571Y-64063829D01*
X154428571Y-64063829D02*
X153809524Y-64063829D01*
D10*
X151453769Y-61000000D02*
X166546231Y-61000000D01*
X166546231Y-65053862D01*
X151453769Y-65053862D01*
X151453769Y-61000000D01*
%LPC*%
D12*
G36*
X151500000Y-103500000D02*
G01*
X143000000Y-103500000D01*
X143000000Y-94500000D01*
X151500000Y-94500000D01*
X151500000Y-103500000D01*
G37*
D13*
X134000000Y-91250000D03*
X140500000Y-91250000D03*
X134000000Y-95750000D03*
X140500000Y-95750000D03*
D14*
X161000000Y-72850000D03*
X161000000Y-77730000D03*
D15*
X136275000Y-76537500D03*
D16*
X133735000Y-76537500D03*
D15*
X136275000Y-82537500D03*
D16*
X133735000Y-82537500D03*
D13*
X159500000Y-91250000D03*
X166000000Y-91250000D03*
X159500000Y-95750000D03*
X166000000Y-95750000D03*
D17*
X153400000Y-86500000D03*
D18*
X155940000Y-86500000D03*
X158480000Y-86500000D03*
X161020000Y-86500000D03*
X163560000Y-86500000D03*
X166100000Y-86500000D03*
D17*
X148880000Y-110000000D03*
D18*
X151420000Y-110000000D03*
X153960000Y-110000000D03*
X156500000Y-110000000D03*
X159040000Y-110000000D03*
D19*
X135000000Y-59000000D03*
X165000000Y-108500000D03*
D15*
X136275000Y-70537500D03*
D16*
X133735000Y-70537500D03*
%LPD*%
M02*
