M48
; DRILL file {KiCad 8.0.4} date 2024-10-18T17:00:11+0200
; FORMAT={-:-/ absolute / metric / decimal}
; #@! TF.CreationDate,2024-10-18T17:00:11+02:00
; #@! TF.GenerationSoftware,Kicad,Pcbnew,8.0.4
; #@! TF.FileFunction,Plated,1,2,PTH
FMAT,2
METRIC
; #@! TA.AperFunction,Plated,PTH,ViaDrill
T1C0.300
; #@! TA.AperFunction,Plated,PTH,ComponentDrill
T2C0.800
; #@! TA.AperFunction,Plated,PTH,ComponentDrill
T3C0.900
; #@! TA.AperFunction,Plated,PTH,ComponentDrill
T4C1.000
; #@! TA.AperFunction,Plated,PTH,ComponentDrill
T5C1.100
; #@! TA.AperFunction,Plated,PTH,ComponentDrill
T6C3.200
%
G90
G05
T1
X131.5Y-57.5
X131.5Y-62.4
X131.5Y-69.2
X131.5Y-76.0
X131.5Y-82.8
X131.5Y-89.6
X131.5Y-96.4
X131.5Y-103.2
X131.5Y-110.0
X132.5Y-101.25
X133.5Y-55.5
X133.5Y-112.0
X134.0Y-66.25
X134.0Y-107.5
X134.25Y-93.5
X134.75Y-98.0
X135.25Y-79.5
X136.0Y-72.75
X137.0Y-101.25
X137.75Y-69.0
X138.5Y-60.0
X138.5Y-77.5
X138.5Y-107.25
X139.0Y-65.0
X139.0Y-89.5
X139.5Y-82.537
X140.1Y-112.0
X140.5Y-85.5
X141.5Y-74.5
X141.5Y-76.5
X142.0Y-71.5
X142.25Y-73.475
X142.3Y-76.5
X142.5Y-55.5
X143.0Y-105.5
X143.5Y-95.0
X143.5Y-97.0
X143.5Y-99.0
X143.5Y-101.0
X143.5Y-103.0
X143.5Y-109.0
X144.25Y-63.75
X144.75Y-69.5
X145.5Y-73.5
X145.5Y-76.5
X145.5Y-77.5
X145.5Y-79.0
X145.5Y-84.0
X146.0Y-67.25
X146.0Y-86.0
X146.0Y-95.0
X146.0Y-97.0
X146.0Y-99.0
X146.0Y-101.0
X146.0Y-103.0
X146.7Y-112.0
X147.25Y-58.0
X147.5Y-80.5
X148.5Y-95.0
X148.5Y-97.0
X148.5Y-99.0
X148.5Y-101.0
X148.5Y-103.0
X148.75Y-61.0
X149.0Y-76.0
X150.195Y-57.0
X150.195Y-59.0
X150.5Y-84.0
X151.0Y-68.5
X151.0Y-80.5
X151.0Y-95.0
X151.0Y-97.0
X151.0Y-99.0
X151.0Y-101.0
X151.0Y-103.0
X151.295Y-57.0
X151.295Y-59.0
X152.0Y-104.0
X152.395Y-57.0
X152.5Y-72.5
X153.3Y-112.0
X153.495Y-57.0
X153.495Y-59.0
X153.5Y-79.5
X155.0Y-64.5
X155.25Y-102.5
X155.5Y-83.0
X156.5Y-82.5
X157.125Y-81.5
X157.192Y-79.308
X157.308Y-68.808
X157.326Y-71.195
X157.5Y-55.5
X158.0Y-60.5
X158.0Y-77.0
X158.5Y-73.5
X159.25Y-88.5
X159.9Y-112.0
X160.5Y-64.0
X161.25Y-69.75
X162.25Y-60.25
X162.75Y-80.75
X163.25Y-105.5
X163.75Y-66.0
X166.0Y-71.25
X166.0Y-79.25
X166.5Y-55.5
X166.5Y-112.0
X168.5Y-57.5
X168.5Y-62.4
X168.5Y-66.5
X168.5Y-103.2
X168.5Y-110.0
T2
X161.0Y-72.85
X161.0Y-77.73
T3
X133.735Y-70.537
X133.735Y-76.537
X133.735Y-82.537
X136.275Y-70.537
X136.275Y-76.537
X136.275Y-82.537
T4
X148.88Y-110.0
X151.42Y-110.0
X153.4Y-86.5
X153.96Y-110.0
X155.94Y-86.5
X156.5Y-110.0
X158.48Y-86.5
X159.04Y-110.0
X161.02Y-86.5
X163.56Y-86.5
X166.1Y-86.5
T5
X134.0Y-91.25
X134.0Y-95.75
X140.5Y-91.25
X140.5Y-95.75
X159.5Y-91.25
X159.5Y-95.75
X166.0Y-91.25
X166.0Y-95.75
T6
X135.0Y-59.0
X165.0Y-108.5
M30
