G04 #@! TF.GenerationSoftware,KiCad,Pcbnew,8.0.4*
G04 #@! TF.CreationDate,2024-10-18T17:00:07+02:00*
G04 #@! TF.ProjectId,Atari_SIO2SD_Mini,41746172-695f-4534-994f-3253445f4d69,rev?*
G04 #@! TF.SameCoordinates,Original*
G04 #@! TF.FileFunction,Copper,L2,Bot*
G04 #@! TF.FilePolarity,Positive*
%FSLAX46Y46*%
G04 Gerber Fmt 4.6, Leading zero omitted, Abs format (unit mm)*
G04 Created by KiCad (PCBNEW 8.0.4) date 2024-10-18 17:00:07*
%MOMM*%
%LPD*%
G01*
G04 APERTURE LIST*
G04 #@! TA.AperFunction,ComponentPad*
%ADD10C,2.000000*%
G04 #@! TD*
G04 #@! TA.AperFunction,ComponentPad*
%ADD11C,1.500000*%
G04 #@! TD*
G04 #@! TA.AperFunction,ComponentPad*
%ADD12R,1.800000X1.800000*%
G04 #@! TD*
G04 #@! TA.AperFunction,ComponentPad*
%ADD13C,1.800000*%
G04 #@! TD*
G04 #@! TA.AperFunction,ComponentPad*
%ADD14R,1.700000X1.700000*%
G04 #@! TD*
G04 #@! TA.AperFunction,ComponentPad*
%ADD15O,1.700000X1.700000*%
G04 #@! TD*
G04 #@! TA.AperFunction,ComponentPad*
%ADD16C,5.600000*%
G04 #@! TD*
G04 #@! TA.AperFunction,ViaPad*
%ADD17C,0.600000*%
G04 #@! TD*
G04 #@! TA.AperFunction,Conductor*
%ADD18C,0.250000*%
G04 #@! TD*
G04 APERTURE END LIST*
D10*
X134000000Y-91250000D03*
X140500000Y-91250000D03*
X134000000Y-95750000D03*
X140500000Y-95750000D03*
D11*
X161000000Y-72850000D03*
X161000000Y-77730000D03*
D12*
X136275000Y-76537500D03*
D13*
X133735000Y-76537500D03*
D12*
X136275000Y-82537500D03*
D13*
X133735000Y-82537500D03*
D10*
X159500000Y-91250000D03*
X166000000Y-91250000D03*
X159500000Y-95750000D03*
X166000000Y-95750000D03*
D14*
X153400000Y-86500000D03*
D15*
X155940000Y-86500000D03*
X158480000Y-86500000D03*
X161020000Y-86500000D03*
X163560000Y-86500000D03*
X166100000Y-86500000D03*
D14*
X148880000Y-110000000D03*
D15*
X151420000Y-110000000D03*
X153960000Y-110000000D03*
X156500000Y-110000000D03*
X159040000Y-110000000D03*
D16*
X135000000Y-59000000D03*
X165000000Y-108500000D03*
D12*
X136275000Y-70537500D03*
D13*
X133735000Y-70537500D03*
D17*
X158000000Y-60500000D03*
X144250000Y-63750000D03*
X161250000Y-69750000D03*
X168500000Y-110000000D03*
X131500000Y-69200000D03*
X145500000Y-76500000D03*
X135250000Y-79500000D03*
X166000000Y-71250000D03*
X133500000Y-112000000D03*
X153300000Y-112000000D03*
X145500000Y-73500000D03*
X138500000Y-60000000D03*
X155000000Y-64500000D03*
X131500000Y-89600000D03*
X163750000Y-66000000D03*
X134750000Y-98000000D03*
X148750000Y-61000000D03*
X137750000Y-69000000D03*
X138500000Y-107250000D03*
X152500000Y-72500000D03*
X140100000Y-112000000D03*
X147250000Y-58000000D03*
X159900000Y-112000000D03*
X166500000Y-55500000D03*
X131500000Y-96400000D03*
X166500000Y-112000000D03*
X168500000Y-62400000D03*
X134000000Y-107500000D03*
X136000000Y-72750000D03*
X142000000Y-71500000D03*
X168500000Y-103200000D03*
X155250000Y-102500000D03*
X159250000Y-88500000D03*
X138500000Y-77500000D03*
X143500000Y-109000000D03*
X145500000Y-84000000D03*
X142500000Y-55500000D03*
X146000000Y-86000000D03*
X140500000Y-85500000D03*
X146700000Y-112000000D03*
X162750000Y-80750000D03*
X163250000Y-105500000D03*
X139500000Y-82537500D03*
X143000000Y-105500000D03*
X139000000Y-89500000D03*
X168500000Y-66500000D03*
X160500000Y-64000000D03*
X134250000Y-93500000D03*
X145500000Y-79000000D03*
X134000000Y-66250000D03*
X131500000Y-62400000D03*
X158500000Y-73500000D03*
X157500000Y-55500000D03*
X131500000Y-82800000D03*
X158000000Y-77000000D03*
X152395000Y-57000000D03*
X168500000Y-57500000D03*
X131500000Y-76000000D03*
X131500000Y-110000000D03*
X133500000Y-55500000D03*
X153500000Y-79500000D03*
X151000000Y-80500000D03*
X145500000Y-77500000D03*
X151000000Y-68500000D03*
X149000000Y-76000000D03*
X139000000Y-65000000D03*
X152000000Y-104000000D03*
X147500000Y-80500000D03*
X166000000Y-79250000D03*
X131500000Y-103200000D03*
X162250000Y-60250000D03*
X131500000Y-57500000D03*
X146000000Y-99000000D03*
X148500000Y-99000000D03*
X151000000Y-99000000D03*
X132500000Y-101250000D03*
X151000000Y-103000000D03*
X148500000Y-101000000D03*
X151000000Y-95000000D03*
X151000000Y-101000000D03*
X137000000Y-101250000D03*
X146000000Y-95000000D03*
X150195000Y-57000000D03*
X148500000Y-97000000D03*
X143500000Y-103000000D03*
X143500000Y-99000000D03*
X148500000Y-95000000D03*
X146000000Y-103000000D03*
X143500000Y-95000000D03*
X151000000Y-97000000D03*
X146000000Y-101000000D03*
X148500000Y-103000000D03*
X146000000Y-97000000D03*
X150195000Y-59000000D03*
X143500000Y-101000000D03*
X143500000Y-97000000D03*
X150500000Y-84000000D03*
X155500000Y-83000000D03*
X156500000Y-82500000D03*
X157125000Y-81500000D03*
X151295000Y-57000000D03*
X151295000Y-59000000D03*
X144750000Y-69500000D03*
X153495000Y-59000000D03*
X146000000Y-67250000D03*
X153495000Y-57000000D03*
X157325669Y-71194611D03*
X157308058Y-68808058D03*
X157191942Y-79308058D03*
X142250000Y-73475000D03*
X142300003Y-76500000D03*
X141500000Y-74500000D03*
X141500000Y-76500000D03*
D18*
X150195000Y-57000000D02*
X150195000Y-59000000D01*
X132500000Y-101250000D02*
X137000000Y-101250000D01*
X158057947Y-89807947D02*
X159500000Y-91250000D01*
X150500000Y-84000000D02*
X150500000Y-85250000D01*
X151998191Y-87998191D02*
X151383883Y-87383883D01*
X155171881Y-88612500D02*
X153481263Y-88612500D01*
X151998191Y-87998191D02*
G75*
G03*
X153481263Y-88612520I1483109J1483091D01*
G01*
X150500000Y-85250000D02*
G75*
G03*
X151383876Y-87383890I3017800J0D01*
G01*
X155171881Y-88612500D02*
G75*
G02*
X158057953Y-89807941I19J-4081500D01*
G01*
X155940000Y-83751126D02*
X155940000Y-86500000D01*
X155500000Y-83000000D02*
X155720000Y-83220000D01*
X155940000Y-83751126D02*
G75*
G03*
X155720008Y-83219992I-751100J26D01*
G01*
X157214177Y-85234177D02*
X158480000Y-86500000D01*
X156500000Y-83510000D02*
X156500000Y-82500000D01*
X157214177Y-85234177D02*
G75*
G02*
X156499984Y-83510000I1724123J1724177D01*
G01*
X157125000Y-83547433D02*
X157125000Y-81500000D01*
X158701802Y-84941802D02*
X158519368Y-84941802D01*
X159999203Y-85479203D02*
X161020000Y-86500000D01*
X157533401Y-84533401D02*
G75*
G03*
X158519368Y-84941815I985999J986001D01*
G01*
X157533401Y-84533401D02*
G75*
G02*
X157124985Y-83547433I985999J986001D01*
G01*
X158701802Y-84941802D02*
G75*
G02*
X159999201Y-85479205I-2J-1834798D01*
G01*
X151295000Y-57000000D02*
X151295000Y-59000000D01*
X145103553Y-68146446D02*
X146000000Y-67250000D01*
X153495000Y-57000000D02*
X153495000Y-59000000D01*
X144750000Y-69000000D02*
X144750000Y-69500000D01*
X144750000Y-69000000D02*
G75*
G02*
X145103555Y-68146448I1207100J0D01*
G01*
X157308058Y-71164547D02*
X157308058Y-68808058D01*
X157316863Y-71185805D02*
X157325669Y-71194611D01*
X157308058Y-71164547D02*
G75*
G03*
X157316891Y-71185777I30042J47D01*
G01*
X157470971Y-79587087D02*
X157191942Y-79308058D01*
X162555901Y-85495901D02*
X163560000Y-86500000D01*
X159016335Y-84491802D02*
X160131791Y-84491802D01*
X157750000Y-83225466D02*
X157750000Y-80260722D01*
X157750000Y-83225466D02*
G75*
G03*
X158120892Y-84120910I1266300J-34D01*
G01*
X157470971Y-79587087D02*
G75*
G02*
X157749974Y-80260722I-673671J-673613D01*
G01*
X162555901Y-85495901D02*
G75*
G03*
X160131791Y-84491805I-2424101J-2424099D01*
G01*
X159016335Y-84491802D02*
G75*
G02*
X158120890Y-84120912I-35J1266302D01*
G01*
X142250000Y-73475000D02*
X142275001Y-73500001D01*
X142300003Y-76500000D02*
X142300003Y-73560360D01*
X142275001Y-73500001D02*
G75*
G02*
X142300018Y-73560360I-60401J-60399D01*
G01*
X141500000Y-74500000D02*
X141500000Y-76500000D01*
G04 #@! TA.AperFunction,Conductor*
G36*
X150506061Y-94500597D02*
G01*
X150682941Y-94518018D01*
X150706769Y-94522757D01*
X150871001Y-94572576D01*
X150893453Y-94581877D01*
X151044798Y-94662772D01*
X151065010Y-94676277D01*
X151197666Y-94785145D01*
X151214854Y-94802333D01*
X151323722Y-94934989D01*
X151337227Y-94955201D01*
X151418121Y-95106543D01*
X151427424Y-95129001D01*
X151477240Y-95293224D01*
X151481982Y-95317065D01*
X151499403Y-95493938D01*
X151500000Y-95506092D01*
X151500000Y-102493907D01*
X151499403Y-102506061D01*
X151481982Y-102682934D01*
X151477240Y-102706775D01*
X151427424Y-102870998D01*
X151418121Y-102893456D01*
X151337227Y-103044798D01*
X151323722Y-103065010D01*
X151214854Y-103197666D01*
X151197666Y-103214854D01*
X151065010Y-103323722D01*
X151044798Y-103337227D01*
X150893456Y-103418121D01*
X150870998Y-103427424D01*
X150706775Y-103477240D01*
X150682934Y-103481982D01*
X150506061Y-103499403D01*
X150493907Y-103500000D01*
X144006093Y-103500000D01*
X143993939Y-103499403D01*
X143817065Y-103481982D01*
X143793224Y-103477240D01*
X143629001Y-103427424D01*
X143606543Y-103418121D01*
X143455201Y-103337227D01*
X143434989Y-103323722D01*
X143302333Y-103214854D01*
X143285145Y-103197666D01*
X143176277Y-103065010D01*
X143162772Y-103044798D01*
X143081878Y-102893456D01*
X143072575Y-102870998D01*
X143022757Y-102706769D01*
X143018018Y-102682941D01*
X143000597Y-102506061D01*
X143000000Y-102493907D01*
X143000000Y-95506092D01*
X143000597Y-95493938D01*
X143018018Y-95317056D01*
X143022757Y-95293232D01*
X143072577Y-95128994D01*
X143081875Y-95106549D01*
X143162775Y-94955195D01*
X143176272Y-94934995D01*
X143285149Y-94802328D01*
X143302328Y-94785149D01*
X143434995Y-94676272D01*
X143455195Y-94662775D01*
X143606549Y-94581875D01*
X143628994Y-94572577D01*
X143793232Y-94522757D01*
X143817056Y-94518018D01*
X143993939Y-94500597D01*
X144006093Y-94500000D01*
X150493907Y-94500000D01*
X150506061Y-94500597D01*
G37*
G04 #@! TD.AperFunction*
G04 #@! TA.AperFunction,Conductor*
G36*
X165535051Y-55000648D02*
G01*
X165836928Y-55015479D01*
X165849036Y-55016671D01*
X166176700Y-55065276D01*
X166188614Y-55067646D01*
X166509948Y-55148136D01*
X166521583Y-55151666D01*
X166833469Y-55263261D01*
X166844683Y-55267906D01*
X167144148Y-55409543D01*
X167154876Y-55415278D01*
X167438980Y-55585564D01*
X167449098Y-55592325D01*
X167715155Y-55789648D01*
X167724562Y-55797367D01*
X167970000Y-56019820D01*
X167978602Y-56028423D01*
X168147371Y-56214632D01*
X168201047Y-56273854D01*
X168208767Y-56283261D01*
X168406082Y-56549312D01*
X168412843Y-56559430D01*
X168583136Y-56843551D01*
X168588872Y-56854283D01*
X168730491Y-57153715D01*
X168735148Y-57164957D01*
X168846741Y-57476843D01*
X168850273Y-57488488D01*
X168930755Y-57809797D01*
X168933129Y-57821732D01*
X168981729Y-58149384D01*
X168982922Y-58161494D01*
X168999350Y-58495937D01*
X168999499Y-58502021D01*
X168999499Y-58574303D01*
X168999500Y-58574316D01*
X168999500Y-108996948D01*
X168999351Y-109003033D01*
X168982947Y-109336928D01*
X168981754Y-109349037D01*
X168933151Y-109676694D01*
X168930777Y-109688630D01*
X168850292Y-110009944D01*
X168846759Y-110021588D01*
X168735170Y-110333459D01*
X168730514Y-110344702D01*
X168588885Y-110644151D01*
X168583148Y-110654883D01*
X168412862Y-110938988D01*
X168406102Y-110949106D01*
X168208775Y-111215170D01*
X168201055Y-111224576D01*
X167978611Y-111470006D01*
X167970006Y-111478611D01*
X167724576Y-111701055D01*
X167715170Y-111708775D01*
X167449106Y-111906102D01*
X167438988Y-111912862D01*
X167154883Y-112083148D01*
X167144151Y-112088885D01*
X166844702Y-112230514D01*
X166833459Y-112235170D01*
X166521588Y-112346759D01*
X166509944Y-112350292D01*
X166188630Y-112430777D01*
X166176694Y-112433151D01*
X165849037Y-112481754D01*
X165836928Y-112482947D01*
X165521989Y-112498419D01*
X165503031Y-112499351D01*
X165496949Y-112499500D01*
X134503051Y-112499500D01*
X134496968Y-112499351D01*
X134476900Y-112498365D01*
X134163071Y-112482947D01*
X134150962Y-112481754D01*
X133823305Y-112433151D01*
X133811369Y-112430777D01*
X133490055Y-112350292D01*
X133478411Y-112346759D01*
X133166540Y-112235170D01*
X133155301Y-112230515D01*
X132855844Y-112088883D01*
X132845121Y-112083150D01*
X132561011Y-111912862D01*
X132550893Y-111906102D01*
X132284829Y-111708775D01*
X132275423Y-111701055D01*
X132131478Y-111570591D01*
X132029986Y-111478604D01*
X132021395Y-111470013D01*
X131798944Y-111224576D01*
X131791224Y-111215170D01*
X131593897Y-110949106D01*
X131587137Y-110938988D01*
X131566756Y-110904984D01*
X131416844Y-110654871D01*
X131411120Y-110644163D01*
X131269479Y-110344688D01*
X131264829Y-110333459D01*
X131255364Y-110307007D01*
X131192902Y-110132438D01*
X131153240Y-110021588D01*
X131149707Y-110009944D01*
X131069219Y-109688617D01*
X131066848Y-109676694D01*
X131018245Y-109349037D01*
X131017052Y-109336927D01*
X131015933Y-109314158D01*
X131005517Y-109102135D01*
X147529500Y-109102135D01*
X147529500Y-110897870D01*
X147529501Y-110897876D01*
X147535908Y-110957483D01*
X147586202Y-111092328D01*
X147586206Y-111092335D01*
X147672452Y-111207544D01*
X147672455Y-111207547D01*
X147787664Y-111293793D01*
X147787671Y-111293797D01*
X147922517Y-111344091D01*
X147922516Y-111344091D01*
X147929444Y-111344835D01*
X147982127Y-111350500D01*
X149777872Y-111350499D01*
X149837483Y-111344091D01*
X149972331Y-111293796D01*
X150087546Y-111207546D01*
X150173796Y-111092331D01*
X150222810Y-110960916D01*
X150264681Y-110904984D01*
X150330145Y-110880566D01*
X150398418Y-110895417D01*
X150426673Y-110916569D01*
X150548599Y-111038495D01*
X150645384Y-111106265D01*
X150742165Y-111174032D01*
X150742167Y-111174033D01*
X150742170Y-111174035D01*
X150956337Y-111273903D01*
X151184592Y-111335063D01*
X151361034Y-111350500D01*
X151419999Y-111355659D01*
X151420000Y-111355659D01*
X151420001Y-111355659D01*
X151478966Y-111350500D01*
X151655408Y-111335063D01*
X151883663Y-111273903D01*
X152097830Y-111174035D01*
X152291401Y-111038495D01*
X152458495Y-110871401D01*
X152588425Y-110685842D01*
X152643002Y-110642217D01*
X152712500Y-110635023D01*
X152774855Y-110666546D01*
X152791575Y-110685842D01*
X152921500Y-110871395D01*
X152921505Y-110871401D01*
X153088599Y-111038495D01*
X153185384Y-111106265D01*
X153282165Y-111174032D01*
X153282167Y-111174033D01*
X153282170Y-111174035D01*
X153496337Y-111273903D01*
X153724592Y-111335063D01*
X153901034Y-111350500D01*
X153959999Y-111355659D01*
X153960000Y-111355659D01*
X153960001Y-111355659D01*
X154018966Y-111350500D01*
X154195408Y-111335063D01*
X154423663Y-111273903D01*
X154637830Y-111174035D01*
X154831401Y-111038495D01*
X154998495Y-110871401D01*
X155128730Y-110685405D01*
X155183307Y-110641781D01*
X155252805Y-110634587D01*
X155315160Y-110666110D01*
X155331879Y-110685405D01*
X155461890Y-110871078D01*
X155628917Y-111038105D01*
X155822421Y-111173600D01*
X156036507Y-111273429D01*
X156036516Y-111273433D01*
X156250000Y-111330634D01*
X156250000Y-110433012D01*
X156307007Y-110465925D01*
X156434174Y-110500000D01*
X156565826Y-110500000D01*
X156692993Y-110465925D01*
X156750000Y-110433012D01*
X156750000Y-111330633D01*
X156963483Y-111273433D01*
X156963492Y-111273429D01*
X157177578Y-111173600D01*
X157371082Y-111038105D01*
X157538105Y-110871082D01*
X157668119Y-110685405D01*
X157722696Y-110641781D01*
X157792195Y-110634588D01*
X157854549Y-110666110D01*
X157871269Y-110685405D01*
X158001505Y-110871401D01*
X158168599Y-111038495D01*
X158265384Y-111106265D01*
X158362165Y-111174032D01*
X158362167Y-111174033D01*
X158362170Y-111174035D01*
X158576337Y-111273903D01*
X158804592Y-111335063D01*
X158981034Y-111350500D01*
X159039999Y-111355659D01*
X159040000Y-111355659D01*
X159040001Y-111355659D01*
X159098966Y-111350500D01*
X159275408Y-111335063D01*
X159503663Y-111273903D01*
X159717830Y-111174035D01*
X159911401Y-111038495D01*
X160078495Y-110871401D01*
X160214035Y-110677830D01*
X160313903Y-110463663D01*
X160375063Y-110235408D01*
X160395659Y-110000000D01*
X160375063Y-109764592D01*
X160313903Y-109536337D01*
X160214035Y-109322171D01*
X160208731Y-109314595D01*
X160078494Y-109128597D01*
X159911402Y-108961506D01*
X159911395Y-108961501D01*
X159717834Y-108825967D01*
X159717830Y-108825965D01*
X159717828Y-108825964D01*
X159503663Y-108726097D01*
X159503659Y-108726096D01*
X159503655Y-108726094D01*
X159275413Y-108664938D01*
X159275403Y-108664936D01*
X159040001Y-108644341D01*
X159039999Y-108644341D01*
X158804596Y-108664936D01*
X158804586Y-108664938D01*
X158576344Y-108726094D01*
X158576335Y-108726098D01*
X158362171Y-108825964D01*
X158362169Y-108825965D01*
X158168597Y-108961505D01*
X158001508Y-109128594D01*
X157871269Y-109314595D01*
X157816692Y-109358219D01*
X157747193Y-109365412D01*
X157684839Y-109333890D01*
X157668119Y-109314594D01*
X157538113Y-109128926D01*
X157538108Y-109128920D01*
X157371082Y-108961894D01*
X157177578Y-108826399D01*
X156963492Y-108726570D01*
X156963486Y-108726567D01*
X156750000Y-108669364D01*
X156750000Y-109566988D01*
X156692993Y-109534075D01*
X156565826Y-109500000D01*
X156434174Y-109500000D01*
X156307007Y-109534075D01*
X156250000Y-109566988D01*
X156250000Y-108669364D01*
X156249999Y-108669364D01*
X156036513Y-108726567D01*
X156036507Y-108726570D01*
X155822422Y-108826399D01*
X155822420Y-108826400D01*
X155628926Y-108961886D01*
X155628920Y-108961891D01*
X155461891Y-109128920D01*
X155461890Y-109128922D01*
X155331880Y-109314595D01*
X155277303Y-109358219D01*
X155207804Y-109365412D01*
X155145450Y-109333890D01*
X155128730Y-109314594D01*
X154998494Y-109128597D01*
X154831402Y-108961506D01*
X154831395Y-108961501D01*
X154637834Y-108825967D01*
X154637830Y-108825965D01*
X154637828Y-108825964D01*
X154423663Y-108726097D01*
X154423659Y-108726096D01*
X154423655Y-108726094D01*
X154195413Y-108664938D01*
X154195403Y-108664936D01*
X153960001Y-108644341D01*
X153959999Y-108644341D01*
X153724596Y-108664936D01*
X153724586Y-108664938D01*
X153496344Y-108726094D01*
X153496335Y-108726098D01*
X153282171Y-108825964D01*
X153282169Y-108825965D01*
X153088597Y-108961505D01*
X152921505Y-109128597D01*
X152791575Y-109314158D01*
X152736998Y-109357783D01*
X152667500Y-109364977D01*
X152605145Y-109333454D01*
X152588425Y-109314158D01*
X152458494Y-109128597D01*
X152291402Y-108961506D01*
X152291395Y-108961501D01*
X152097834Y-108825967D01*
X152097830Y-108825965D01*
X152097828Y-108825964D01*
X151883663Y-108726097D01*
X151883659Y-108726096D01*
X151883655Y-108726094D01*
X151655413Y-108664938D01*
X151655403Y-108664936D01*
X151420001Y-108644341D01*
X151419999Y-108644341D01*
X151184596Y-108664936D01*
X151184586Y-108664938D01*
X150956344Y-108726094D01*
X150956335Y-108726098D01*
X150742171Y-108825964D01*
X150742169Y-108825965D01*
X150548600Y-108961503D01*
X150426673Y-109083430D01*
X150365350Y-109116914D01*
X150295658Y-109111930D01*
X150239725Y-109070058D01*
X150222810Y-109039081D01*
X150173797Y-108907671D01*
X150173793Y-108907664D01*
X150087547Y-108792455D01*
X150087544Y-108792452D01*
X149972335Y-108706206D01*
X149972328Y-108706202D01*
X149837482Y-108655908D01*
X149837483Y-108655908D01*
X149777883Y-108649501D01*
X149777881Y-108649500D01*
X149777873Y-108649500D01*
X149777864Y-108649500D01*
X147982129Y-108649500D01*
X147982123Y-108649501D01*
X147922516Y-108655908D01*
X147787671Y-108706202D01*
X147787664Y-108706206D01*
X147672455Y-108792452D01*
X147672452Y-108792455D01*
X147586206Y-108907664D01*
X147586202Y-108907671D01*
X147535908Y-109042517D01*
X147529501Y-109102116D01*
X147529500Y-109102135D01*
X131005517Y-109102135D01*
X131000649Y-109003032D01*
X131000500Y-108996948D01*
X131000500Y-108909671D01*
X131000498Y-108909555D01*
X131000498Y-108499997D01*
X161694652Y-108499997D01*
X161694652Y-108500002D01*
X161714028Y-108857368D01*
X161714029Y-108857385D01*
X161771926Y-109210539D01*
X161771932Y-109210565D01*
X161867672Y-109555392D01*
X161867674Y-109555399D01*
X162000142Y-109887870D01*
X162000151Y-109887888D01*
X162167784Y-110204077D01*
X162167787Y-110204082D01*
X162167789Y-110204085D01*
X162349461Y-110472032D01*
X162368634Y-110500309D01*
X162368641Y-110500319D01*
X162509836Y-110666546D01*
X162600332Y-110773086D01*
X162860163Y-111019211D01*
X163145081Y-111235800D01*
X163451747Y-111420315D01*
X163451749Y-111420316D01*
X163451751Y-111420317D01*
X163451755Y-111420319D01*
X163577752Y-111478611D01*
X163776565Y-111570591D01*
X164115726Y-111684868D01*
X164465254Y-111761805D01*
X164821052Y-111800500D01*
X164821058Y-111800500D01*
X165178942Y-111800500D01*
X165178948Y-111800500D01*
X165534746Y-111761805D01*
X165884274Y-111684868D01*
X166223435Y-111570591D01*
X166548253Y-111420315D01*
X166854919Y-111235800D01*
X167139837Y-111019211D01*
X167399668Y-110773086D01*
X167631365Y-110500311D01*
X167832211Y-110204085D01*
X167999853Y-109887880D01*
X168132324Y-109555403D01*
X168228071Y-109210552D01*
X168263090Y-108996948D01*
X168285970Y-108857385D01*
X168285970Y-108857382D01*
X168285972Y-108857371D01*
X168305348Y-108500000D01*
X168285972Y-108142629D01*
X168228071Y-107789448D01*
X168132324Y-107444597D01*
X167999853Y-107112120D01*
X167832211Y-106795915D01*
X167631365Y-106499689D01*
X167631361Y-106499684D01*
X167631358Y-106499680D01*
X167399668Y-106226914D01*
X167139837Y-105980789D01*
X167139830Y-105980783D01*
X167139827Y-105980781D01*
X167072245Y-105929407D01*
X166854919Y-105764200D01*
X166548253Y-105579685D01*
X166548252Y-105579684D01*
X166548248Y-105579682D01*
X166548244Y-105579680D01*
X166223447Y-105429414D01*
X166223441Y-105429411D01*
X166223435Y-105429409D01*
X166053854Y-105372270D01*
X165884273Y-105315131D01*
X165534744Y-105238194D01*
X165178949Y-105199500D01*
X165178948Y-105199500D01*
X164821052Y-105199500D01*
X164821050Y-105199500D01*
X164465255Y-105238194D01*
X164115726Y-105315131D01*
X163859970Y-105401306D01*
X163776565Y-105429409D01*
X163776563Y-105429410D01*
X163776552Y-105429414D01*
X163451755Y-105579680D01*
X163451751Y-105579682D01*
X163223367Y-105717096D01*
X163145081Y-105764200D01*
X163056768Y-105831333D01*
X162860172Y-105980781D01*
X162860163Y-105980789D01*
X162600331Y-106226914D01*
X162368641Y-106499680D01*
X162368634Y-106499690D01*
X162167790Y-106795913D01*
X162167784Y-106795922D01*
X162000151Y-107112111D01*
X162000142Y-107112129D01*
X161867674Y-107444600D01*
X161867672Y-107444607D01*
X161771932Y-107789434D01*
X161771926Y-107789460D01*
X161714029Y-108142614D01*
X161714028Y-108142631D01*
X161694652Y-108499997D01*
X131000498Y-108499997D01*
X131000498Y-101249996D01*
X131694435Y-101249996D01*
X131694435Y-101250003D01*
X131714630Y-101429249D01*
X131714631Y-101429254D01*
X131774211Y-101599523D01*
X131870184Y-101752262D01*
X131997738Y-101879816D01*
X132150478Y-101975789D01*
X132320745Y-102035368D01*
X132320750Y-102035369D01*
X132499996Y-102055565D01*
X132500000Y-102055565D01*
X132500004Y-102055565D01*
X132679249Y-102035369D01*
X132679250Y-102035368D01*
X132679255Y-102035368D01*
X132739918Y-102014140D01*
X132760978Y-102008788D01*
X132776254Y-102006307D01*
X133175233Y-101881181D01*
X133212339Y-101875500D01*
X136287664Y-101875500D01*
X136324769Y-101881181D01*
X136723745Y-102006306D01*
X136753525Y-102014654D01*
X136753532Y-102014654D01*
X136758812Y-102015652D01*
X136758704Y-102016222D01*
X136778681Y-102020649D01*
X136820745Y-102035368D01*
X136856596Y-102039407D01*
X136999996Y-102055565D01*
X137000000Y-102055565D01*
X137000004Y-102055565D01*
X137179249Y-102035369D01*
X137179252Y-102035368D01*
X137179255Y-102035368D01*
X137349522Y-101975789D01*
X137502262Y-101879816D01*
X137629816Y-101752262D01*
X137725789Y-101599522D01*
X137785368Y-101429255D01*
X137805565Y-101250000D01*
X137785368Y-101070745D01*
X137725789Y-100900478D01*
X137629816Y-100747738D01*
X137502262Y-100620184D01*
X137500088Y-100618818D01*
X137349523Y-100524211D01*
X137179254Y-100464631D01*
X137179249Y-100464630D01*
X137000004Y-100444435D01*
X136999996Y-100444435D01*
X136820746Y-100464631D01*
X136820742Y-100464632D01*
X136760084Y-100485856D01*
X136739028Y-100491207D01*
X136723754Y-100493689D01*
X136723748Y-100493691D01*
X136324764Y-100618818D01*
X136287658Y-100624500D01*
X133212337Y-100624500D01*
X133175231Y-100618818D01*
X132776254Y-100493693D01*
X132746465Y-100485342D01*
X132741192Y-100484347D01*
X132741298Y-100483783D01*
X132721314Y-100479348D01*
X132679254Y-100464631D01*
X132500004Y-100444435D01*
X132499996Y-100444435D01*
X132320750Y-100464630D01*
X132320745Y-100464631D01*
X132150476Y-100524211D01*
X131997737Y-100620184D01*
X131870184Y-100747737D01*
X131774211Y-100900476D01*
X131714631Y-101070745D01*
X131714630Y-101070750D01*
X131694435Y-101249996D01*
X131000498Y-101249996D01*
X131000497Y-95749994D01*
X132494859Y-95749994D01*
X132494859Y-95750005D01*
X132515385Y-95997729D01*
X132515387Y-95997738D01*
X132576412Y-96238717D01*
X132676266Y-96466364D01*
X132776564Y-96619882D01*
X133476212Y-95920234D01*
X133487482Y-95962292D01*
X133559890Y-96087708D01*
X133662292Y-96190110D01*
X133787708Y-96262518D01*
X133829765Y-96273787D01*
X133129942Y-96973609D01*
X133176768Y-97010055D01*
X133176770Y-97010056D01*
X133395385Y-97128364D01*
X133395396Y-97128369D01*
X133630506Y-97209083D01*
X133875707Y-97250000D01*
X134124293Y-97250000D01*
X134369493Y-97209083D01*
X134604603Y-97128369D01*
X134604614Y-97128364D01*
X134823228Y-97010057D01*
X134823231Y-97010055D01*
X134870056Y-96973609D01*
X134170234Y-96273787D01*
X134212292Y-96262518D01*
X134337708Y-96190110D01*
X134440110Y-96087708D01*
X134512518Y-95962292D01*
X134523787Y-95920235D01*
X135223434Y-96619882D01*
X135323731Y-96466369D01*
X135423587Y-96238717D01*
X135484612Y-95997738D01*
X135484614Y-95997729D01*
X135505141Y-95750005D01*
X135505141Y-95749994D01*
X138994859Y-95749994D01*
X138994859Y-95750005D01*
X139015385Y-95997729D01*
X139015387Y-95997738D01*
X139076412Y-96238717D01*
X139176266Y-96466364D01*
X139276564Y-96619882D01*
X139976212Y-95920234D01*
X139987482Y-95962292D01*
X140059890Y-96087708D01*
X140162292Y-96190110D01*
X140287708Y-96262518D01*
X140329765Y-96273787D01*
X139629942Y-96973609D01*
X139676768Y-97010055D01*
X139676770Y-97010056D01*
X139895385Y-97128364D01*
X139895396Y-97128369D01*
X140130506Y-97209083D01*
X140375707Y-97250000D01*
X140624293Y-97250000D01*
X140869493Y-97209083D01*
X141104603Y-97128369D01*
X141104614Y-97128364D01*
X141323228Y-97010057D01*
X141323231Y-97010055D01*
X141370056Y-96973609D01*
X140670234Y-96273787D01*
X140712292Y-96262518D01*
X140837708Y-96190110D01*
X140940110Y-96087708D01*
X141012518Y-95962292D01*
X141023787Y-95920235D01*
X141723434Y-96619882D01*
X141823731Y-96466369D01*
X141923587Y-96238717D01*
X141984612Y-95997738D01*
X141984614Y-95997729D01*
X142005141Y-95750005D01*
X142005141Y-95749994D01*
X141984932Y-95506108D01*
X142494500Y-95506108D01*
X142494500Y-102493890D01*
X142495109Y-102518714D01*
X142495707Y-102530876D01*
X142497530Y-102555598D01*
X142514950Y-102732474D01*
X142514952Y-102732494D01*
X142522227Y-102781541D01*
X142522228Y-102781545D01*
X142526967Y-102805373D01*
X142539023Y-102853507D01*
X142588841Y-103017736D01*
X142605558Y-103064455D01*
X142614861Y-103086913D01*
X142636067Y-103131747D01*
X142636070Y-103131752D01*
X142636078Y-103131769D01*
X142716957Y-103283083D01*
X142716962Y-103283091D01*
X142742454Y-103325623D01*
X142742461Y-103325634D01*
X142742462Y-103325635D01*
X142755967Y-103345847D01*
X142755973Y-103345855D01*
X142755975Y-103345858D01*
X142785514Y-103385688D01*
X142785523Y-103385700D01*
X142829282Y-103439021D01*
X142838422Y-103451714D01*
X142870180Y-103502257D01*
X142870182Y-103502260D01*
X142870184Y-103502262D01*
X142997738Y-103629816D01*
X143048300Y-103661585D01*
X143060982Y-103670719D01*
X143114272Y-103714454D01*
X143114303Y-103714479D01*
X143154152Y-103744032D01*
X143174364Y-103757537D01*
X143174369Y-103757540D01*
X143174375Y-103757544D01*
X143216907Y-103783036D01*
X143216915Y-103783041D01*
X143368229Y-103863920D01*
X143368233Y-103863922D01*
X143368252Y-103863932D01*
X143413086Y-103885138D01*
X143435544Y-103894441D01*
X143482263Y-103911158D01*
X143646486Y-103960974D01*
X143694611Y-103973028D01*
X143718452Y-103977770D01*
X143767516Y-103985048D01*
X143944390Y-104002469D01*
X143969139Y-104004294D01*
X143981293Y-104004891D01*
X144006093Y-104005500D01*
X144006110Y-104005500D01*
X150493890Y-104005500D01*
X150493907Y-104005500D01*
X150518707Y-104004891D01*
X150530861Y-104004294D01*
X150555610Y-104002469D01*
X150732483Y-103985048D01*
X150781547Y-103977770D01*
X150805388Y-103973028D01*
X150853513Y-103960974D01*
X151017736Y-103911158D01*
X151064455Y-103894441D01*
X151086913Y-103885138D01*
X151131747Y-103863932D01*
X151283089Y-103783038D01*
X151325635Y-103757537D01*
X151345847Y-103744032D01*
X151385696Y-103714479D01*
X151439016Y-103670718D01*
X151451690Y-103661591D01*
X151502262Y-103629816D01*
X151629816Y-103502262D01*
X151661591Y-103451690D01*
X151670721Y-103439014D01*
X151714454Y-103385726D01*
X151714479Y-103385696D01*
X151744032Y-103345847D01*
X151757537Y-103325635D01*
X151783038Y-103283089D01*
X151863932Y-103131747D01*
X151885138Y-103086913D01*
X151894441Y-103064455D01*
X151911158Y-103017736D01*
X151960974Y-102853513D01*
X151973028Y-102805388D01*
X151977770Y-102781547D01*
X151985048Y-102732483D01*
X152002469Y-102555610D01*
X152004294Y-102530861D01*
X152004891Y-102518707D01*
X152005500Y-102493907D01*
X152005500Y-95749994D01*
X157994859Y-95749994D01*
X157994859Y-95750005D01*
X158015385Y-95997729D01*
X158015387Y-95997738D01*
X158076412Y-96238717D01*
X158176266Y-96466364D01*
X158276564Y-96619882D01*
X158976212Y-95920234D01*
X158987482Y-95962292D01*
X159059890Y-96087708D01*
X159162292Y-96190110D01*
X159287708Y-96262518D01*
X159329765Y-96273787D01*
X158629942Y-96973609D01*
X158676768Y-97010055D01*
X158676770Y-97010056D01*
X158895385Y-97128364D01*
X158895396Y-97128369D01*
X159130506Y-97209083D01*
X159375707Y-97250000D01*
X159624293Y-97250000D01*
X159869493Y-97209083D01*
X160104603Y-97128369D01*
X160104614Y-97128364D01*
X160323228Y-97010057D01*
X160323231Y-97010055D01*
X160370056Y-96973609D01*
X159670234Y-96273787D01*
X159712292Y-96262518D01*
X159837708Y-96190110D01*
X159940110Y-96087708D01*
X160012518Y-95962292D01*
X160023787Y-95920235D01*
X160723434Y-96619882D01*
X160823731Y-96466369D01*
X160923587Y-96238717D01*
X160984612Y-95997738D01*
X160984614Y-95997729D01*
X161005141Y-95750005D01*
X161005141Y-95749994D01*
X164494859Y-95749994D01*
X164494859Y-95750005D01*
X164515385Y-95997729D01*
X164515387Y-95997738D01*
X164576412Y-96238717D01*
X164676266Y-96466364D01*
X164776564Y-96619882D01*
X165476212Y-95920234D01*
X165487482Y-95962292D01*
X165559890Y-96087708D01*
X165662292Y-96190110D01*
X165787708Y-96262518D01*
X165829765Y-96273787D01*
X165129942Y-96973609D01*
X165176768Y-97010055D01*
X165176770Y-97010056D01*
X165395385Y-97128364D01*
X165395396Y-97128369D01*
X165630506Y-97209083D01*
X165875707Y-97250000D01*
X166124293Y-97250000D01*
X166369493Y-97209083D01*
X166604603Y-97128369D01*
X166604614Y-97128364D01*
X166823228Y-97010057D01*
X166823231Y-97010055D01*
X166870056Y-96973609D01*
X166170234Y-96273787D01*
X166212292Y-96262518D01*
X166337708Y-96190110D01*
X166440110Y-96087708D01*
X166512518Y-95962292D01*
X166523787Y-95920235D01*
X167223434Y-96619882D01*
X167323731Y-96466369D01*
X167423587Y-96238717D01*
X167484612Y-95997738D01*
X167484614Y-95997729D01*
X167505141Y-95750005D01*
X167505141Y-95749994D01*
X167484614Y-95502270D01*
X167484612Y-95502261D01*
X167423587Y-95261282D01*
X167323731Y-95033630D01*
X167223434Y-94880116D01*
X166523787Y-95579764D01*
X166512518Y-95537708D01*
X166440110Y-95412292D01*
X166337708Y-95309890D01*
X166212292Y-95237482D01*
X166170235Y-95226212D01*
X166870057Y-94526390D01*
X166870056Y-94526389D01*
X166823229Y-94489943D01*
X166604614Y-94371635D01*
X166604603Y-94371630D01*
X166369493Y-94290916D01*
X166124293Y-94250000D01*
X165875707Y-94250000D01*
X165630506Y-94290916D01*
X165395396Y-94371630D01*
X165395390Y-94371632D01*
X165176761Y-94489949D01*
X165129942Y-94526388D01*
X165129942Y-94526390D01*
X165829765Y-95226212D01*
X165787708Y-95237482D01*
X165662292Y-95309890D01*
X165559890Y-95412292D01*
X165487482Y-95537708D01*
X165476212Y-95579764D01*
X164776564Y-94880116D01*
X164676267Y-95033632D01*
X164576412Y-95261282D01*
X164515387Y-95502261D01*
X164515385Y-95502270D01*
X164494859Y-95749994D01*
X161005141Y-95749994D01*
X160984614Y-95502270D01*
X160984612Y-95502261D01*
X160923587Y-95261282D01*
X160823731Y-95033630D01*
X160723434Y-94880116D01*
X160023787Y-95579764D01*
X160012518Y-95537708D01*
X159940110Y-95412292D01*
X159837708Y-95309890D01*
X159712292Y-95237482D01*
X159670235Y-95226212D01*
X160370057Y-94526390D01*
X160370056Y-94526389D01*
X160323229Y-94489943D01*
X160104614Y-94371635D01*
X160104603Y-94371630D01*
X159869493Y-94290916D01*
X159624293Y-94250000D01*
X159375707Y-94250000D01*
X159130506Y-94290916D01*
X158895396Y-94371630D01*
X158895390Y-94371632D01*
X158676761Y-94489949D01*
X158629942Y-94526388D01*
X158629942Y-94526390D01*
X159329765Y-95226212D01*
X159287708Y-95237482D01*
X159162292Y-95309890D01*
X159059890Y-95412292D01*
X158987482Y-95537708D01*
X158976212Y-95579764D01*
X158276564Y-94880116D01*
X158176267Y-95033632D01*
X158076412Y-95261282D01*
X158015387Y-95502261D01*
X158015385Y-95502270D01*
X157994859Y-95749994D01*
X152005500Y-95749994D01*
X152005500Y-95506092D01*
X152004891Y-95481292D01*
X152004294Y-95469138D01*
X152002469Y-95444389D01*
X151985048Y-95267516D01*
X151977770Y-95218452D01*
X151973028Y-95194611D01*
X151960974Y-95146486D01*
X151911158Y-94982263D01*
X151894441Y-94935544D01*
X151885138Y-94913086D01*
X151863932Y-94868252D01*
X151783038Y-94716910D01*
X151757537Y-94674364D01*
X151744032Y-94654152D01*
X151714479Y-94614303D01*
X151670715Y-94560977D01*
X151661585Y-94548300D01*
X151629816Y-94497738D01*
X151502262Y-94370184D01*
X151502260Y-94370182D01*
X151502257Y-94370180D01*
X151451714Y-94338422D01*
X151439021Y-94329282D01*
X151385700Y-94285523D01*
X151385688Y-94285514D01*
X151345858Y-94255975D01*
X151345854Y-94255972D01*
X151345847Y-94255967D01*
X151325635Y-94242462D01*
X151325624Y-94242455D01*
X151325619Y-94242452D01*
X151325615Y-94242449D01*
X151283122Y-94216979D01*
X151283079Y-94216955D01*
X151131770Y-94136079D01*
X151131758Y-94136072D01*
X151121282Y-94131117D01*
X151086919Y-94114864D01*
X151086912Y-94114861D01*
X151064473Y-94105565D01*
X151017736Y-94088841D01*
X150853504Y-94039022D01*
X150829351Y-94032972D01*
X150805373Y-94026967D01*
X150781545Y-94022228D01*
X150781540Y-94022227D01*
X150781543Y-94022227D01*
X150732494Y-94014952D01*
X150732474Y-94014950D01*
X150555598Y-93997530D01*
X150530876Y-93995707D01*
X150530871Y-93995706D01*
X150530861Y-93995706D01*
X150525602Y-93995447D01*
X150518714Y-93995109D01*
X150511473Y-93994931D01*
X150493907Y-93994500D01*
X144006093Y-93994500D01*
X143989229Y-93994914D01*
X143981285Y-93995109D01*
X143969126Y-93995706D01*
X143944399Y-93997530D01*
X143767523Y-94014950D01*
X143767503Y-94014952D01*
X143718449Y-94022228D01*
X143702347Y-94025431D01*
X143694612Y-94026970D01*
X143678490Y-94031008D01*
X143646502Y-94039021D01*
X143482259Y-94088842D01*
X143435541Y-94105558D01*
X143435504Y-94105573D01*
X143413103Y-94114853D01*
X143413079Y-94114863D01*
X143368269Y-94136058D01*
X143368264Y-94136060D01*
X143368259Y-94136063D01*
X143216905Y-94216963D01*
X143216897Y-94216967D01*
X143216891Y-94216971D01*
X143174359Y-94242463D01*
X143154142Y-94255972D01*
X143114304Y-94285518D01*
X143060977Y-94329282D01*
X143048289Y-94338419D01*
X142997739Y-94370183D01*
X142997735Y-94370186D01*
X142870186Y-94497735D01*
X142870183Y-94497739D01*
X142838419Y-94548289D01*
X142829282Y-94560977D01*
X142785518Y-94614304D01*
X142755972Y-94654142D01*
X142742463Y-94674359D01*
X142716971Y-94716891D01*
X142716963Y-94716905D01*
X142716958Y-94716915D01*
X142636058Y-94868269D01*
X142614863Y-94913079D01*
X142614853Y-94913103D01*
X142605573Y-94935504D01*
X142605558Y-94935541D01*
X142588842Y-94982259D01*
X142573259Y-95033632D01*
X142539023Y-95146496D01*
X142526971Y-95194611D01*
X142526970Y-95194613D01*
X142522228Y-95218447D01*
X142514954Y-95267490D01*
X142514949Y-95267534D01*
X142497530Y-95444398D01*
X142495706Y-95469125D01*
X142495109Y-95481284D01*
X142494500Y-95506108D01*
X141984932Y-95506108D01*
X141984614Y-95502270D01*
X141984612Y-95502261D01*
X141923587Y-95261282D01*
X141823731Y-95033630D01*
X141723434Y-94880116D01*
X141023787Y-95579764D01*
X141012518Y-95537708D01*
X140940110Y-95412292D01*
X140837708Y-95309890D01*
X140712292Y-95237482D01*
X140670235Y-95226212D01*
X141370057Y-94526390D01*
X141370056Y-94526389D01*
X141323229Y-94489943D01*
X141104614Y-94371635D01*
X141104603Y-94371630D01*
X140869493Y-94290916D01*
X140624293Y-94250000D01*
X140375707Y-94250000D01*
X140130506Y-94290916D01*
X139895396Y-94371630D01*
X139895390Y-94371632D01*
X139676761Y-94489949D01*
X139629942Y-94526388D01*
X139629942Y-94526390D01*
X140329765Y-95226212D01*
X140287708Y-95237482D01*
X140162292Y-95309890D01*
X140059890Y-95412292D01*
X139987482Y-95537708D01*
X139976212Y-95579764D01*
X139276564Y-94880116D01*
X139176267Y-95033632D01*
X139076412Y-95261282D01*
X139015387Y-95502261D01*
X139015385Y-95502270D01*
X138994859Y-95749994D01*
X135505141Y-95749994D01*
X135484614Y-95502270D01*
X135484612Y-95502261D01*
X135423587Y-95261282D01*
X135323731Y-95033630D01*
X135223434Y-94880116D01*
X134523787Y-95579764D01*
X134512518Y-95537708D01*
X134440110Y-95412292D01*
X134337708Y-95309890D01*
X134212292Y-95237482D01*
X134170235Y-95226212D01*
X134870057Y-94526390D01*
X134870056Y-94526389D01*
X134823229Y-94489943D01*
X134604614Y-94371635D01*
X134604603Y-94371630D01*
X134369493Y-94290916D01*
X134124293Y-94250000D01*
X133875707Y-94250000D01*
X133630506Y-94290916D01*
X133395396Y-94371630D01*
X133395390Y-94371632D01*
X133176761Y-94489949D01*
X133129942Y-94526388D01*
X133129942Y-94526390D01*
X133829765Y-95226212D01*
X133787708Y-95237482D01*
X133662292Y-95309890D01*
X133559890Y-95412292D01*
X133487482Y-95537708D01*
X133476212Y-95579764D01*
X132776564Y-94880116D01*
X132676267Y-95033632D01*
X132576412Y-95261282D01*
X132515387Y-95502261D01*
X132515385Y-95502270D01*
X132494859Y-95749994D01*
X131000497Y-95749994D01*
X131000497Y-91249994D01*
X132494357Y-91249994D01*
X132494357Y-91250005D01*
X132514890Y-91497812D01*
X132514892Y-91497824D01*
X132575936Y-91738881D01*
X132675826Y-91966606D01*
X132811833Y-92174782D01*
X132811836Y-92174785D01*
X132980256Y-92357738D01*
X133176491Y-92510474D01*
X133395190Y-92628828D01*
X133630386Y-92709571D01*
X133875665Y-92750500D01*
X134124335Y-92750500D01*
X134369614Y-92709571D01*
X134604810Y-92628828D01*
X134823509Y-92510474D01*
X135019744Y-92357738D01*
X135188164Y-92174785D01*
X135324173Y-91966607D01*
X135424063Y-91738881D01*
X135485108Y-91497821D01*
X135505643Y-91250000D01*
X135505643Y-91249994D01*
X138994357Y-91249994D01*
X138994357Y-91250005D01*
X139014890Y-91497812D01*
X139014892Y-91497824D01*
X139075936Y-91738881D01*
X139175826Y-91966606D01*
X139311833Y-92174782D01*
X139311836Y-92174785D01*
X139480256Y-92357738D01*
X139676491Y-92510474D01*
X139895190Y-92628828D01*
X140130386Y-92709571D01*
X140375665Y-92750500D01*
X140624335Y-92750500D01*
X140869614Y-92709571D01*
X141104810Y-92628828D01*
X141323509Y-92510474D01*
X141519744Y-92357738D01*
X141688164Y-92174785D01*
X141824173Y-91966607D01*
X141924063Y-91738881D01*
X141985108Y-91497821D01*
X142005643Y-91250000D01*
X141985108Y-91002179D01*
X141924063Y-90761119D01*
X141824173Y-90533393D01*
X141688166Y-90325217D01*
X141666557Y-90301744D01*
X141519744Y-90142262D01*
X141323509Y-89989526D01*
X141323507Y-89989525D01*
X141323506Y-89989524D01*
X141104811Y-89871172D01*
X141104802Y-89871169D01*
X140869616Y-89790429D01*
X140624335Y-89749500D01*
X140375665Y-89749500D01*
X140130383Y-89790429D01*
X139895197Y-89871169D01*
X139895188Y-89871172D01*
X139676493Y-89989524D01*
X139480257Y-90142261D01*
X139311833Y-90325217D01*
X139175826Y-90533393D01*
X139075936Y-90761118D01*
X139014892Y-91002175D01*
X139014890Y-91002187D01*
X138994357Y-91249994D01*
X135505643Y-91249994D01*
X135485108Y-91002179D01*
X135424063Y-90761119D01*
X135324173Y-90533393D01*
X135188166Y-90325217D01*
X135166557Y-90301744D01*
X135019744Y-90142262D01*
X134823509Y-89989526D01*
X134823507Y-89989525D01*
X134823506Y-89989524D01*
X134604811Y-89871172D01*
X134604802Y-89871169D01*
X134369616Y-89790429D01*
X134124335Y-89749500D01*
X133875665Y-89749500D01*
X133630383Y-89790429D01*
X133395197Y-89871169D01*
X133395188Y-89871172D01*
X133176493Y-89989524D01*
X132980257Y-90142261D01*
X132811833Y-90325217D01*
X132675826Y-90533393D01*
X132575936Y-90761118D01*
X132514892Y-91002175D01*
X132514890Y-91002187D01*
X132494357Y-91249994D01*
X131000497Y-91249994D01*
X131000496Y-83999996D01*
X149694435Y-83999996D01*
X149694435Y-84000003D01*
X149714631Y-84179253D01*
X149714631Y-84179254D01*
X149735857Y-84239916D01*
X149741209Y-84260975D01*
X149743691Y-84276246D01*
X149743694Y-84276258D01*
X149868818Y-84675230D01*
X149874500Y-84712336D01*
X149874500Y-85317629D01*
X149874510Y-85317830D01*
X149874510Y-85428982D01*
X149877751Y-85461886D01*
X149909594Y-85785210D01*
X149909597Y-85785226D01*
X149979425Y-86136286D01*
X149979428Y-86136298D01*
X150083340Y-86478857D01*
X150103880Y-86528445D01*
X150220326Y-86809571D01*
X150319086Y-86994341D01*
X150389064Y-87125261D01*
X150389067Y-87125267D01*
X150587935Y-87422899D01*
X150587940Y-87422906D01*
X150815021Y-87699610D01*
X150815030Y-87699619D01*
X150941582Y-87826174D01*
X150941583Y-87826174D01*
X150941584Y-87826175D01*
X150995288Y-87879879D01*
X150995289Y-87879879D01*
X151002356Y-87886946D01*
X151002355Y-87886946D01*
X151002359Y-87886949D01*
X151603693Y-88488285D01*
X151604006Y-88488568D01*
X151664033Y-88548596D01*
X151903124Y-88739269D01*
X151903130Y-88739272D01*
X151903134Y-88739276D01*
X152162082Y-88901987D01*
X152437620Y-89034683D01*
X152726282Y-89135694D01*
X153024438Y-89203751D01*
X153024445Y-89203751D01*
X153024446Y-89203752D01*
X153328335Y-89237997D01*
X153328339Y-89237997D01*
X153411010Y-89237997D01*
X153411031Y-89238000D01*
X153481252Y-89238000D01*
X153557201Y-89238001D01*
X153557205Y-89238000D01*
X155095934Y-89238000D01*
X155168833Y-89238000D01*
X155174917Y-89238149D01*
X155504555Y-89254341D01*
X155516657Y-89255533D01*
X155840095Y-89303510D01*
X155852026Y-89305883D01*
X156169211Y-89385332D01*
X156180844Y-89388862D01*
X156488713Y-89499019D01*
X156499954Y-89503674D01*
X156795539Y-89643474D01*
X156806260Y-89649205D01*
X157086715Y-89817302D01*
X157096830Y-89824060D01*
X157319935Y-89989526D01*
X157359470Y-90018847D01*
X157368876Y-90026567D01*
X157531887Y-90174311D01*
X157566059Y-90226407D01*
X157651512Y-90478681D01*
X157651513Y-90478686D01*
X158067139Y-91705699D01*
X158069899Y-91715039D01*
X158075936Y-91738879D01*
X158084494Y-91758390D01*
X158088378Y-91768406D01*
X158093320Y-91782994D01*
X158098937Y-91798717D01*
X158099204Y-91799428D01*
X158099206Y-91799432D01*
X158128503Y-91863441D01*
X158131866Y-91869109D01*
X158131249Y-91869475D01*
X158139226Y-91883169D01*
X158175824Y-91966603D01*
X158311833Y-92174782D01*
X158311836Y-92174785D01*
X158480256Y-92357738D01*
X158676491Y-92510474D01*
X158895190Y-92628828D01*
X159130386Y-92709571D01*
X159375665Y-92750500D01*
X159624335Y-92750500D01*
X159869614Y-92709571D01*
X160104810Y-92628828D01*
X160323509Y-92510474D01*
X160519744Y-92357738D01*
X160688164Y-92174785D01*
X160824173Y-91966607D01*
X160924063Y-91738881D01*
X160985108Y-91497821D01*
X161005643Y-91250000D01*
X161005643Y-91249994D01*
X164494357Y-91249994D01*
X164494357Y-91250005D01*
X164514890Y-91497812D01*
X164514892Y-91497824D01*
X164575936Y-91738881D01*
X164675826Y-91966606D01*
X164811833Y-92174782D01*
X164811836Y-92174785D01*
X164980256Y-92357738D01*
X165176491Y-92510474D01*
X165395190Y-92628828D01*
X165630386Y-92709571D01*
X165875665Y-92750500D01*
X166124335Y-92750500D01*
X166369614Y-92709571D01*
X166604810Y-92628828D01*
X166823509Y-92510474D01*
X167019744Y-92357738D01*
X167188164Y-92174785D01*
X167324173Y-91966607D01*
X167424063Y-91738881D01*
X167485108Y-91497821D01*
X167505643Y-91250000D01*
X167485108Y-91002179D01*
X167424063Y-90761119D01*
X167324173Y-90533393D01*
X167188166Y-90325217D01*
X167166557Y-90301744D01*
X167019744Y-90142262D01*
X166823509Y-89989526D01*
X166823507Y-89989525D01*
X166823506Y-89989524D01*
X166604811Y-89871172D01*
X166604802Y-89871169D01*
X166369616Y-89790429D01*
X166124335Y-89749500D01*
X165875665Y-89749500D01*
X165630383Y-89790429D01*
X165395197Y-89871169D01*
X165395188Y-89871172D01*
X165176493Y-89989524D01*
X164980257Y-90142261D01*
X164811833Y-90325217D01*
X164675826Y-90533393D01*
X164575936Y-90761118D01*
X164514892Y-91002175D01*
X164514890Y-91002187D01*
X164494357Y-91249994D01*
X161005643Y-91249994D01*
X160985108Y-91002179D01*
X160924063Y-90761119D01*
X160824173Y-90533393D01*
X160688166Y-90325217D01*
X160666557Y-90301744D01*
X160519744Y-90142262D01*
X160323509Y-89989526D01*
X160323507Y-89989525D01*
X160323506Y-89989524D01*
X160104811Y-89871172D01*
X160104805Y-89871170D01*
X160060673Y-89856019D01*
X160044846Y-89849327D01*
X160033030Y-89843334D01*
X158833450Y-89437000D01*
X158833438Y-89436997D01*
X158464898Y-89312161D01*
X158417000Y-89282397D01*
X158369483Y-89234880D01*
X158369476Y-89234873D01*
X158088218Y-88994656D01*
X157960665Y-88901984D01*
X157788999Y-88777262D01*
X157788990Y-88777256D01*
X157788979Y-88777248D01*
X157788966Y-88777240D01*
X157473624Y-88583997D01*
X157473618Y-88583994D01*
X157473608Y-88583989D01*
X157473605Y-88583987D01*
X157144041Y-88416066D01*
X156802317Y-88274521D01*
X156802318Y-88274521D01*
X156802315Y-88274520D01*
X156802316Y-88274520D01*
X156450552Y-88160226D01*
X156450529Y-88160219D01*
X156124751Y-88082009D01*
X156064159Y-88047219D01*
X156031995Y-87985192D01*
X156038471Y-87915624D01*
X156081530Y-87860599D01*
X156142890Y-87837907D01*
X156175408Y-87835063D01*
X156403663Y-87773903D01*
X156617830Y-87674035D01*
X156811401Y-87538495D01*
X156978495Y-87371401D01*
X157108425Y-87185842D01*
X157163002Y-87142217D01*
X157232500Y-87135023D01*
X157294855Y-87166546D01*
X157311575Y-87185842D01*
X157441281Y-87371082D01*
X157441505Y-87371401D01*
X157608599Y-87538495D01*
X157705384Y-87606265D01*
X157802165Y-87674032D01*
X157802167Y-87674033D01*
X157802170Y-87674035D01*
X158016337Y-87773903D01*
X158244592Y-87835063D01*
X158432918Y-87851539D01*
X158479999Y-87855659D01*
X158480000Y-87855659D01*
X158480001Y-87855659D01*
X158519234Y-87852226D01*
X158715408Y-87835063D01*
X158943663Y-87773903D01*
X159157830Y-87674035D01*
X159351401Y-87538495D01*
X159518495Y-87371401D01*
X159648425Y-87185842D01*
X159703002Y-87142217D01*
X159772500Y-87135023D01*
X159834855Y-87166546D01*
X159851575Y-87185842D01*
X159981281Y-87371082D01*
X159981505Y-87371401D01*
X160148599Y-87538495D01*
X160245384Y-87606265D01*
X160342165Y-87674032D01*
X160342167Y-87674033D01*
X160342170Y-87674035D01*
X160556337Y-87773903D01*
X160784592Y-87835063D01*
X160972918Y-87851539D01*
X161019999Y-87855659D01*
X161020000Y-87855659D01*
X161020001Y-87855659D01*
X161059234Y-87852226D01*
X161255408Y-87835063D01*
X161483663Y-87773903D01*
X161697830Y-87674035D01*
X161891401Y-87538495D01*
X162058495Y-87371401D01*
X162188425Y-87185842D01*
X162243002Y-87142217D01*
X162312500Y-87135023D01*
X162374855Y-87166546D01*
X162391575Y-87185842D01*
X162521281Y-87371082D01*
X162521505Y-87371401D01*
X162688599Y-87538495D01*
X162785384Y-87606265D01*
X162882165Y-87674032D01*
X162882167Y-87674033D01*
X162882170Y-87674035D01*
X163096337Y-87773903D01*
X163324592Y-87835063D01*
X163512918Y-87851539D01*
X163559999Y-87855659D01*
X163560000Y-87855659D01*
X163560001Y-87855659D01*
X163599234Y-87852226D01*
X163795408Y-87835063D01*
X164023663Y-87773903D01*
X164237830Y-87674035D01*
X164431401Y-87538495D01*
X164598495Y-87371401D01*
X164728730Y-87185405D01*
X164783307Y-87141781D01*
X164852805Y-87134587D01*
X164915160Y-87166110D01*
X164931879Y-87185405D01*
X165061890Y-87371078D01*
X165228917Y-87538105D01*
X165422421Y-87673600D01*
X165636507Y-87773429D01*
X165636516Y-87773433D01*
X165850000Y-87830634D01*
X165850000Y-86933012D01*
X165907007Y-86965925D01*
X166034174Y-87000000D01*
X166165826Y-87000000D01*
X166292993Y-86965925D01*
X166350000Y-86933012D01*
X166350000Y-87830633D01*
X166563483Y-87773433D01*
X166563492Y-87773429D01*
X166777578Y-87673600D01*
X166971082Y-87538105D01*
X167138105Y-87371082D01*
X167273600Y-87177578D01*
X167373429Y-86963492D01*
X167373432Y-86963486D01*
X167430636Y-86750000D01*
X166533012Y-86750000D01*
X166565925Y-86692993D01*
X166600000Y-86565826D01*
X166600000Y-86434174D01*
X166565925Y-86307007D01*
X166533012Y-86250000D01*
X167430636Y-86250000D01*
X167430635Y-86249999D01*
X167373432Y-86036513D01*
X167373429Y-86036507D01*
X167273600Y-85822422D01*
X167273599Y-85822420D01*
X167138113Y-85628926D01*
X167138108Y-85628920D01*
X166971082Y-85461894D01*
X166777578Y-85326399D01*
X166563492Y-85226570D01*
X166563486Y-85226567D01*
X166350000Y-85169364D01*
X166350000Y-86066988D01*
X166292993Y-86034075D01*
X166165826Y-86000000D01*
X166034174Y-86000000D01*
X165907007Y-86034075D01*
X165850000Y-86066988D01*
X165850000Y-85169364D01*
X165849999Y-85169364D01*
X165636513Y-85226567D01*
X165636507Y-85226570D01*
X165422422Y-85326399D01*
X165422420Y-85326400D01*
X165228926Y-85461886D01*
X165228920Y-85461891D01*
X165061891Y-85628920D01*
X165061890Y-85628922D01*
X164931880Y-85814595D01*
X164877303Y-85858219D01*
X164807804Y-85865412D01*
X164745450Y-85833890D01*
X164728730Y-85814594D01*
X164598494Y-85628597D01*
X164431402Y-85461506D01*
X164431395Y-85461501D01*
X164237834Y-85325967D01*
X164237830Y-85325965D01*
X164207037Y-85311606D01*
X164023663Y-85226097D01*
X164023659Y-85226096D01*
X164023655Y-85226094D01*
X163990322Y-85217163D01*
X163984142Y-85215334D01*
X162752855Y-84815790D01*
X162711422Y-84792833D01*
X162601887Y-84700921D01*
X162311941Y-84497899D01*
X162311930Y-84497892D01*
X162311924Y-84497888D01*
X162220846Y-84445304D01*
X162005376Y-84320902D01*
X162005352Y-84320889D01*
X161684570Y-84171307D01*
X161684559Y-84171303D01*
X161684557Y-84171302D01*
X161351926Y-84050234D01*
X161351925Y-84050233D01*
X161351915Y-84050230D01*
X161010017Y-83958621D01*
X161010020Y-83958621D01*
X161010010Y-83958619D01*
X161010004Y-83958617D01*
X161010000Y-83958617D01*
X160661413Y-83897152D01*
X160308780Y-83866301D01*
X160308778Y-83866301D01*
X160131789Y-83866302D01*
X159099884Y-83866302D01*
X159099851Y-83866300D01*
X159092267Y-83866300D01*
X159084970Y-83866300D01*
X159022406Y-83866301D01*
X159010253Y-83865704D01*
X158903454Y-83855188D01*
X158879612Y-83850446D01*
X158782772Y-83821072D01*
X158760313Y-83811770D01*
X158671060Y-83764064D01*
X158650861Y-83750568D01*
X158572680Y-83686408D01*
X158555499Y-83669226D01*
X158503694Y-83606100D01*
X158491252Y-83590939D01*
X158477748Y-83570728D01*
X158430044Y-83481478D01*
X158420742Y-83459020D01*
X158391369Y-83362186D01*
X158386627Y-83338343D01*
X158376097Y-83231402D01*
X158375500Y-83219248D01*
X158375500Y-83214630D01*
X158375502Y-83149533D01*
X158375500Y-83149528D01*
X158375501Y-83142769D01*
X158375500Y-83142731D01*
X158375500Y-80193252D01*
X158375474Y-80192727D01*
X158375475Y-80157300D01*
X158348478Y-79952197D01*
X158294942Y-79752372D01*
X158215781Y-79561244D01*
X158112352Y-79382083D01*
X158112348Y-79382078D01*
X158112346Y-79382074D01*
X158105774Y-79373509D01*
X158090793Y-79348283D01*
X158072957Y-79308054D01*
X157935835Y-78998771D01*
X157929084Y-78985277D01*
X157925976Y-78979063D01*
X157919831Y-78964538D01*
X157917731Y-78958537D01*
X157917731Y-78958536D01*
X157821758Y-78805796D01*
X157694204Y-78678242D01*
X157541465Y-78582269D01*
X157371196Y-78522689D01*
X157371191Y-78522688D01*
X157191946Y-78502493D01*
X157191938Y-78502493D01*
X157012692Y-78522688D01*
X157012687Y-78522689D01*
X156842418Y-78582269D01*
X156689679Y-78678242D01*
X156562126Y-78805795D01*
X156466153Y-78958534D01*
X156406573Y-79128803D01*
X156406572Y-79128808D01*
X156386377Y-79308054D01*
X156386377Y-79308061D01*
X156406572Y-79487307D01*
X156406573Y-79487312D01*
X156466153Y-79657581D01*
X156525707Y-79752360D01*
X156562126Y-79810320D01*
X156689680Y-79937874D01*
X156842420Y-80033847D01*
X156861756Y-80040612D01*
X156884657Y-80051360D01*
X156891859Y-80055686D01*
X156891868Y-80055689D01*
X156891874Y-80055693D01*
X157043953Y-80119653D01*
X157098119Y-80163788D01*
X157118821Y-80217773D01*
X157123439Y-80252857D01*
X157124499Y-80269041D01*
X157124498Y-80344241D01*
X157124500Y-80344274D01*
X157124500Y-80583677D01*
X157104815Y-80650716D01*
X157052011Y-80696471D01*
X157014384Y-80706897D01*
X156945750Y-80714630D01*
X156775478Y-80774210D01*
X156622737Y-80870184D01*
X156495184Y-80997737D01*
X156399211Y-81150476D01*
X156339631Y-81320745D01*
X156339630Y-81320750D01*
X156319435Y-81499996D01*
X156319435Y-81500003D01*
X156331678Y-81608667D01*
X156319623Y-81677489D01*
X156272274Y-81728868D01*
X156249413Y-81739591D01*
X156150480Y-81774209D01*
X155997737Y-81870184D01*
X155870182Y-81997739D01*
X155771739Y-82154410D01*
X155719405Y-82200700D01*
X155652863Y-82211657D01*
X155500004Y-82194435D01*
X155499996Y-82194435D01*
X155320750Y-82214630D01*
X155320745Y-82214631D01*
X155150476Y-82274211D01*
X154997737Y-82370184D01*
X154870184Y-82497737D01*
X154774211Y-82650476D01*
X154714631Y-82820745D01*
X154714630Y-82820750D01*
X154694435Y-82999996D01*
X154694435Y-83000003D01*
X154714630Y-83179249D01*
X154714631Y-83179254D01*
X154774211Y-83349523D01*
X154859566Y-83485364D01*
X154870184Y-83502262D01*
X154997738Y-83629816D01*
X155131666Y-83713968D01*
X155132185Y-83714294D01*
X155136377Y-83717048D01*
X155138430Y-83718456D01*
X155138437Y-83718462D01*
X155141914Y-83720499D01*
X155142407Y-83720788D01*
X155145659Y-83722761D01*
X155150478Y-83725789D01*
X155150480Y-83725790D01*
X155151501Y-83726431D01*
X155157410Y-83729578D01*
X155253185Y-83785689D01*
X155301075Y-83836559D01*
X155314500Y-83892677D01*
X155314500Y-84646250D01*
X155302275Y-84699937D01*
X154937320Y-85459759D01*
X154890551Y-85511667D01*
X154823142Y-85530049D01*
X154756497Y-85509069D01*
X154711774Y-85455388D01*
X154709363Y-85449405D01*
X154693797Y-85407671D01*
X154693793Y-85407664D01*
X154607547Y-85292455D01*
X154607544Y-85292452D01*
X154492335Y-85206206D01*
X154492328Y-85206202D01*
X154357482Y-85155908D01*
X154357483Y-85155908D01*
X154297883Y-85149501D01*
X154297881Y-85149500D01*
X154297873Y-85149500D01*
X154297864Y-85149500D01*
X152502129Y-85149500D01*
X152502123Y-85149501D01*
X152442516Y-85155908D01*
X152307671Y-85206202D01*
X152307664Y-85206206D01*
X152192455Y-85292452D01*
X152192452Y-85292455D01*
X152106206Y-85407664D01*
X152106202Y-85407671D01*
X152055908Y-85542517D01*
X152049501Y-85602116D01*
X152049500Y-85602135D01*
X152049500Y-86865546D01*
X152029815Y-86932585D01*
X151977011Y-86978340D01*
X151907853Y-86988284D01*
X151844297Y-86959259D01*
X151837819Y-86953227D01*
X151828634Y-86944042D01*
X151823855Y-86938987D01*
X151652062Y-86746748D01*
X151643392Y-86735876D01*
X151496215Y-86528445D01*
X151488817Y-86516672D01*
X151365782Y-86294056D01*
X151359749Y-86281527D01*
X151262422Y-86046555D01*
X151257829Y-86033431D01*
X151248198Y-86000000D01*
X151187412Y-85789007D01*
X151184322Y-85775468D01*
X151141716Y-85524705D01*
X151140162Y-85510907D01*
X151129801Y-85326400D01*
X151125695Y-85253288D01*
X151125500Y-85246336D01*
X151125500Y-84712338D01*
X151131182Y-84675232D01*
X151186796Y-84497899D01*
X151256307Y-84276254D01*
X151264654Y-84246474D01*
X151265653Y-84241184D01*
X151266222Y-84241291D01*
X151270651Y-84221310D01*
X151285368Y-84179255D01*
X151299905Y-84050234D01*
X151305565Y-84000003D01*
X151305565Y-83999996D01*
X151285369Y-83820750D01*
X151285368Y-83820745D01*
X151284242Y-83817527D01*
X151225789Y-83650478D01*
X151129816Y-83497738D01*
X151002262Y-83370184D01*
X150969379Y-83349522D01*
X150849523Y-83274211D01*
X150679254Y-83214631D01*
X150679249Y-83214630D01*
X150500004Y-83194435D01*
X150499996Y-83194435D01*
X150320750Y-83214630D01*
X150320745Y-83214631D01*
X150150476Y-83274211D01*
X149997737Y-83370184D01*
X149870184Y-83497737D01*
X149774211Y-83650476D01*
X149714631Y-83820745D01*
X149714630Y-83820750D01*
X149694435Y-83999996D01*
X131000496Y-83999996D01*
X131000496Y-82537493D01*
X132329700Y-82537493D01*
X132329700Y-82537506D01*
X132348864Y-82768797D01*
X132348866Y-82768808D01*
X132405842Y-82993800D01*
X132499075Y-83206348D01*
X132626016Y-83400647D01*
X132626019Y-83400651D01*
X132626021Y-83400653D01*
X132783216Y-83571413D01*
X132783219Y-83571415D01*
X132783222Y-83571418D01*
X132966365Y-83713964D01*
X132966371Y-83713968D01*
X132966374Y-83713970D01*
X133170497Y-83824436D01*
X133246262Y-83850446D01*
X133390015Y-83899797D01*
X133390017Y-83899797D01*
X133390019Y-83899798D01*
X133618951Y-83938000D01*
X133618952Y-83938000D01*
X133851048Y-83938000D01*
X133851049Y-83938000D01*
X134079981Y-83899798D01*
X134299503Y-83824436D01*
X134503626Y-83713970D01*
X134686784Y-83571413D01*
X134695130Y-83562346D01*
X134755010Y-83526354D01*
X134824849Y-83528449D01*
X134882468Y-83567969D01*
X134902544Y-83602991D01*
X134931203Y-83679830D01*
X134931206Y-83679835D01*
X135017452Y-83795044D01*
X135017455Y-83795047D01*
X135132664Y-83881293D01*
X135132671Y-83881297D01*
X135267517Y-83931591D01*
X135267516Y-83931591D01*
X135274444Y-83932335D01*
X135327127Y-83938000D01*
X137222872Y-83937999D01*
X137282483Y-83931591D01*
X137417331Y-83881296D01*
X137532546Y-83795046D01*
X137618796Y-83679831D01*
X137669091Y-83544983D01*
X137675500Y-83485373D01*
X137675499Y-81589628D01*
X137669091Y-81530017D01*
X137659233Y-81503587D01*
X137618797Y-81395171D01*
X137618793Y-81395164D01*
X137532547Y-81279955D01*
X137532544Y-81279952D01*
X137417335Y-81193706D01*
X137417328Y-81193702D01*
X137282482Y-81143408D01*
X137282483Y-81143408D01*
X137222883Y-81137001D01*
X137222881Y-81137000D01*
X137222873Y-81137000D01*
X137222864Y-81137000D01*
X135327129Y-81137000D01*
X135327123Y-81137001D01*
X135267516Y-81143408D01*
X135132671Y-81193702D01*
X135132664Y-81193706D01*
X135017455Y-81279952D01*
X135017452Y-81279955D01*
X134931206Y-81395164D01*
X134931203Y-81395170D01*
X134902544Y-81472008D01*
X134860672Y-81527941D01*
X134795208Y-81552358D01*
X134726935Y-81537506D01*
X134695135Y-81512658D01*
X134686784Y-81503587D01*
X134686778Y-81503582D01*
X134686777Y-81503581D01*
X134503634Y-81361035D01*
X134503628Y-81361031D01*
X134299504Y-81250564D01*
X134299495Y-81250561D01*
X134079984Y-81175202D01*
X133889450Y-81143408D01*
X133851049Y-81137000D01*
X133618951Y-81137000D01*
X133580550Y-81143408D01*
X133390015Y-81175202D01*
X133170504Y-81250561D01*
X133170495Y-81250564D01*
X132966371Y-81361031D01*
X132966365Y-81361035D01*
X132783222Y-81503581D01*
X132783219Y-81503584D01*
X132783216Y-81503586D01*
X132783216Y-81503587D01*
X132738319Y-81552358D01*
X132626016Y-81674352D01*
X132499075Y-81868651D01*
X132405842Y-82081199D01*
X132348866Y-82306191D01*
X132348864Y-82306202D01*
X132329700Y-82537493D01*
X131000496Y-82537493D01*
X131000496Y-76537493D01*
X132329700Y-76537493D01*
X132329700Y-76537506D01*
X132348864Y-76768797D01*
X132348866Y-76768808D01*
X132405842Y-76993800D01*
X132499075Y-77206348D01*
X132626016Y-77400647D01*
X132626019Y-77400651D01*
X132626021Y-77400653D01*
X132783216Y-77571413D01*
X132783219Y-77571415D01*
X132783222Y-77571418D01*
X132966365Y-77713964D01*
X132966371Y-77713968D01*
X132966374Y-77713970D01*
X133170497Y-77824436D01*
X133284487Y-77863568D01*
X133390015Y-77899797D01*
X133390017Y-77899797D01*
X133390019Y-77899798D01*
X133618951Y-77938000D01*
X133618952Y-77938000D01*
X133851048Y-77938000D01*
X133851049Y-77938000D01*
X134079981Y-77899798D01*
X134299503Y-77824436D01*
X134503626Y-77713970D01*
X134686784Y-77571413D01*
X134695130Y-77562346D01*
X134755010Y-77526354D01*
X134824849Y-77528449D01*
X134882468Y-77567969D01*
X134902544Y-77602991D01*
X134931203Y-77679830D01*
X134931206Y-77679835D01*
X135017452Y-77795044D01*
X135017455Y-77795047D01*
X135132664Y-77881293D01*
X135132671Y-77881297D01*
X135267517Y-77931591D01*
X135267516Y-77931591D01*
X135274444Y-77932335D01*
X135327127Y-77938000D01*
X137222872Y-77937999D01*
X137282483Y-77931591D01*
X137417331Y-77881296D01*
X137532546Y-77795046D01*
X137581239Y-77730000D01*
X159744723Y-77730000D01*
X159762359Y-77931591D01*
X159763793Y-77947975D01*
X159763793Y-77947979D01*
X159820422Y-78159322D01*
X159820424Y-78159326D01*
X159820425Y-78159330D01*
X159866661Y-78258484D01*
X159912897Y-78357638D01*
X159912898Y-78357639D01*
X160038402Y-78536877D01*
X160193123Y-78691598D01*
X160372361Y-78817102D01*
X160570670Y-78909575D01*
X160782023Y-78966207D01*
X160964926Y-78982208D01*
X160999998Y-78985277D01*
X161000000Y-78985277D01*
X161000002Y-78985277D01*
X161028254Y-78982805D01*
X161217977Y-78966207D01*
X161429330Y-78909575D01*
X161627639Y-78817102D01*
X161806877Y-78691598D01*
X161961598Y-78536877D01*
X162087102Y-78357639D01*
X162179575Y-78159330D01*
X162236207Y-77947977D01*
X162255277Y-77730000D01*
X162253874Y-77713968D01*
X162241403Y-77571418D01*
X162236207Y-77512023D01*
X162179575Y-77300670D01*
X162087102Y-77102362D01*
X162087100Y-77102359D01*
X162087099Y-77102357D01*
X161961599Y-76923124D01*
X161887997Y-76849522D01*
X161806877Y-76768402D01*
X161627639Y-76642898D01*
X161627640Y-76642898D01*
X161627638Y-76642897D01*
X161528484Y-76596661D01*
X161429330Y-76550425D01*
X161429326Y-76550424D01*
X161429322Y-76550422D01*
X161217977Y-76493793D01*
X161000002Y-76474723D01*
X160999998Y-76474723D01*
X160854682Y-76487436D01*
X160782023Y-76493793D01*
X160782020Y-76493793D01*
X160570677Y-76550422D01*
X160570668Y-76550426D01*
X160372361Y-76642898D01*
X160372357Y-76642900D01*
X160193121Y-76768402D01*
X160038402Y-76923121D01*
X159912900Y-77102357D01*
X159912898Y-77102361D01*
X159864408Y-77206348D01*
X159827561Y-77285368D01*
X159820426Y-77300668D01*
X159820422Y-77300677D01*
X159763793Y-77512020D01*
X159763793Y-77512024D01*
X159746126Y-77713968D01*
X159744723Y-77730000D01*
X137581239Y-77730000D01*
X137618796Y-77679831D01*
X137669091Y-77544983D01*
X137675500Y-77485373D01*
X137675499Y-75589628D01*
X137669091Y-75530017D01*
X137659233Y-75503587D01*
X137618797Y-75395171D01*
X137618793Y-75395164D01*
X137532547Y-75279955D01*
X137532544Y-75279952D01*
X137417335Y-75193706D01*
X137417328Y-75193702D01*
X137282482Y-75143408D01*
X137282483Y-75143408D01*
X137222883Y-75137001D01*
X137222881Y-75137000D01*
X137222873Y-75137000D01*
X137222864Y-75137000D01*
X135327129Y-75137000D01*
X135327123Y-75137001D01*
X135267516Y-75143408D01*
X135132671Y-75193702D01*
X135132664Y-75193706D01*
X135017455Y-75279952D01*
X135017452Y-75279955D01*
X134931206Y-75395164D01*
X134931203Y-75395170D01*
X134902544Y-75472008D01*
X134860672Y-75527941D01*
X134795208Y-75552358D01*
X134726935Y-75537506D01*
X134695135Y-75512658D01*
X134686784Y-75503587D01*
X134686778Y-75503582D01*
X134686777Y-75503581D01*
X134503634Y-75361035D01*
X134503628Y-75361031D01*
X134299504Y-75250564D01*
X134299495Y-75250561D01*
X134079984Y-75175202D01*
X133889450Y-75143408D01*
X133851049Y-75137000D01*
X133618951Y-75137000D01*
X133580550Y-75143408D01*
X133390015Y-75175202D01*
X133170504Y-75250561D01*
X133170495Y-75250564D01*
X132966371Y-75361031D01*
X132966365Y-75361035D01*
X132783222Y-75503581D01*
X132783219Y-75503584D01*
X132783216Y-75503586D01*
X132783216Y-75503587D01*
X132738319Y-75552358D01*
X132626016Y-75674352D01*
X132499075Y-75868651D01*
X132405842Y-76081199D01*
X132348866Y-76306191D01*
X132348864Y-76306202D01*
X132329700Y-76537493D01*
X131000496Y-76537493D01*
X131000496Y-74499996D01*
X140694435Y-74499996D01*
X140694435Y-74500003D01*
X140714631Y-74679253D01*
X140714631Y-74679254D01*
X140735857Y-74739916D01*
X140741209Y-74760975D01*
X140743691Y-74776246D01*
X140743694Y-74776258D01*
X140868818Y-75175230D01*
X140874500Y-75212336D01*
X140874500Y-75787662D01*
X140868818Y-75824768D01*
X140743692Y-76223746D01*
X140735344Y-76253528D01*
X140734347Y-76258809D01*
X140733783Y-76258702D01*
X140729349Y-76278684D01*
X140714631Y-76320748D01*
X140714630Y-76320751D01*
X140694435Y-76499996D01*
X140694435Y-76500003D01*
X140714630Y-76679249D01*
X140714631Y-76679254D01*
X140774211Y-76849523D01*
X140820458Y-76923124D01*
X140870184Y-77002262D01*
X140997738Y-77129816D01*
X141088080Y-77186582D01*
X141146817Y-77223489D01*
X141150478Y-77225789D01*
X141320739Y-77285366D01*
X141320745Y-77285368D01*
X141320750Y-77285369D01*
X141499996Y-77305565D01*
X141500000Y-77305565D01*
X141500004Y-77305565D01*
X141679249Y-77285369D01*
X141679251Y-77285368D01*
X141679255Y-77285368D01*
X141679258Y-77285366D01*
X141679262Y-77285366D01*
X141856095Y-77223489D01*
X141856846Y-77225637D01*
X141915128Y-77216035D01*
X141943592Y-77224391D01*
X141943908Y-77223489D01*
X142120748Y-77285368D01*
X142120753Y-77285369D01*
X142299999Y-77305565D01*
X142300003Y-77305565D01*
X142300007Y-77305565D01*
X142479252Y-77285369D01*
X142479255Y-77285368D01*
X142479258Y-77285368D01*
X142649525Y-77225789D01*
X142802265Y-77129816D01*
X142929819Y-77002262D01*
X143025792Y-76849522D01*
X143085371Y-76679255D01*
X143085372Y-76679249D01*
X143105568Y-76500003D01*
X143105568Y-76499996D01*
X143085372Y-76320748D01*
X143070653Y-76278684D01*
X143064143Y-76260081D01*
X143058791Y-76239023D01*
X143056309Y-76223745D01*
X142931185Y-75824769D01*
X142925503Y-75787663D01*
X142925503Y-74155205D01*
X142928272Y-74129145D01*
X142937502Y-74086206D01*
X143019330Y-73705548D01*
X143020432Y-73700222D01*
X143024815Y-73684411D01*
X143035368Y-73654255D01*
X143035369Y-73654247D01*
X143055565Y-73475003D01*
X143055565Y-73474996D01*
X143035369Y-73295750D01*
X143035368Y-73295745D01*
X142975788Y-73125476D01*
X142879815Y-72972737D01*
X142757075Y-72849997D01*
X159744723Y-72849997D01*
X159744723Y-72850002D01*
X159763793Y-73067975D01*
X159763793Y-73067979D01*
X159820422Y-73279322D01*
X159820424Y-73279326D01*
X159820425Y-73279330D01*
X159828082Y-73295750D01*
X159912897Y-73477638D01*
X159912898Y-73477639D01*
X160038402Y-73656877D01*
X160193123Y-73811598D01*
X160372361Y-73937102D01*
X160570670Y-74029575D01*
X160782023Y-74086207D01*
X160964926Y-74102208D01*
X160999998Y-74105277D01*
X161000000Y-74105277D01*
X161000002Y-74105277D01*
X161028254Y-74102805D01*
X161217977Y-74086207D01*
X161429330Y-74029575D01*
X161627639Y-73937102D01*
X161806877Y-73811598D01*
X161961598Y-73656877D01*
X162087102Y-73477639D01*
X162179575Y-73279330D01*
X162236207Y-73067977D01*
X162255277Y-72850000D01*
X162236207Y-72632023D01*
X162179575Y-72420670D01*
X162087102Y-72222362D01*
X162087100Y-72222359D01*
X162087099Y-72222357D01*
X161961599Y-72043124D01*
X161898454Y-71979979D01*
X161806877Y-71888402D01*
X161627639Y-71762898D01*
X161627640Y-71762898D01*
X161627638Y-71762897D01*
X161528484Y-71716661D01*
X161429330Y-71670425D01*
X161429326Y-71670424D01*
X161429322Y-71670422D01*
X161217977Y-71613793D01*
X161000002Y-71594723D01*
X160999998Y-71594723D01*
X160854682Y-71607436D01*
X160782023Y-71613793D01*
X160782020Y-71613793D01*
X160570677Y-71670422D01*
X160570668Y-71670426D01*
X160372361Y-71762898D01*
X160372357Y-71762900D01*
X160193121Y-71888402D01*
X160038402Y-72043121D01*
X159912900Y-72222357D01*
X159912898Y-72222361D01*
X159820426Y-72420668D01*
X159820422Y-72420677D01*
X159763793Y-72632020D01*
X159763793Y-72632024D01*
X159744723Y-72849997D01*
X142757075Y-72849997D01*
X142752262Y-72845184D01*
X142599523Y-72749211D01*
X142429254Y-72689631D01*
X142429249Y-72689630D01*
X142250004Y-72669435D01*
X142249996Y-72669435D01*
X142070750Y-72689630D01*
X142070745Y-72689631D01*
X141900476Y-72749211D01*
X141747737Y-72845184D01*
X141620184Y-72972737D01*
X141524211Y-73125476D01*
X141464631Y-73295745D01*
X141464630Y-73295750D01*
X141444435Y-73474996D01*
X141444435Y-73475005D01*
X141455661Y-73574647D01*
X141443606Y-73643468D01*
X141396257Y-73694847D01*
X141346325Y-73711749D01*
X141320750Y-73714630D01*
X141150478Y-73774210D01*
X140997737Y-73870184D01*
X140870184Y-73997737D01*
X140774211Y-74150476D01*
X140714631Y-74320745D01*
X140714630Y-74320750D01*
X140694435Y-74499996D01*
X131000496Y-74499996D01*
X131000496Y-70537493D01*
X132329700Y-70537493D01*
X132329700Y-70537506D01*
X132348864Y-70768797D01*
X132348866Y-70768808D01*
X132405842Y-70993800D01*
X132499075Y-71206348D01*
X132626016Y-71400647D01*
X132626019Y-71400651D01*
X132626021Y-71400653D01*
X132783216Y-71571413D01*
X132783219Y-71571415D01*
X132783222Y-71571418D01*
X132966365Y-71713964D01*
X132966371Y-71713968D01*
X132966374Y-71713970D01*
X133056783Y-71762897D01*
X133170478Y-71824426D01*
X133170497Y-71824436D01*
X133284487Y-71863568D01*
X133390015Y-71899797D01*
X133390017Y-71899797D01*
X133390019Y-71899798D01*
X133618951Y-71938000D01*
X133618952Y-71938000D01*
X133851048Y-71938000D01*
X133851049Y-71938000D01*
X134079981Y-71899798D01*
X134299503Y-71824436D01*
X134503626Y-71713970D01*
X134525593Y-71696873D01*
X134656835Y-71594723D01*
X134686784Y-71571413D01*
X134695130Y-71562346D01*
X134755010Y-71526354D01*
X134824849Y-71528449D01*
X134882468Y-71567969D01*
X134902544Y-71602991D01*
X134931203Y-71679830D01*
X134931206Y-71679835D01*
X135017452Y-71795044D01*
X135017455Y-71795047D01*
X135132664Y-71881293D01*
X135132671Y-71881297D01*
X135267517Y-71931591D01*
X135267516Y-71931591D01*
X135274444Y-71932335D01*
X135327127Y-71938000D01*
X137222872Y-71937999D01*
X137282483Y-71931591D01*
X137417331Y-71881296D01*
X137532546Y-71795046D01*
X137618796Y-71679831D01*
X137669091Y-71544983D01*
X137675500Y-71485373D01*
X137675499Y-69589628D01*
X137669091Y-69530017D01*
X137659233Y-69503587D01*
X137657894Y-69499996D01*
X143944435Y-69499996D01*
X143944435Y-69500003D01*
X143964630Y-69679249D01*
X143964631Y-69679254D01*
X144024211Y-69849523D01*
X144120184Y-70002262D01*
X144247738Y-70129816D01*
X144400478Y-70225789D01*
X144570745Y-70285368D01*
X144570750Y-70285369D01*
X144749996Y-70305565D01*
X144750000Y-70305565D01*
X144750004Y-70305565D01*
X144929249Y-70285369D01*
X144929252Y-70285368D01*
X144929255Y-70285368D01*
X145099522Y-70225789D01*
X145252262Y-70129816D01*
X145379816Y-70002262D01*
X145475789Y-69849522D01*
X145535368Y-69679255D01*
X145535369Y-69679249D01*
X145555565Y-69500003D01*
X145555565Y-69499996D01*
X145535369Y-69320753D01*
X145535368Y-69320751D01*
X145535368Y-69320745D01*
X145512135Y-69254349D01*
X145507098Y-69235139D01*
X145503749Y-69216333D01*
X145448582Y-69049349D01*
X145402882Y-68911024D01*
X145400544Y-68841195D01*
X145401956Y-68836156D01*
X145410481Y-68808054D01*
X156502493Y-68808054D01*
X156502493Y-68808061D01*
X156522689Y-68987311D01*
X156522689Y-68987312D01*
X156543915Y-69047974D01*
X156549267Y-69069033D01*
X156551749Y-69084304D01*
X156551750Y-69084310D01*
X156551751Y-69084313D01*
X156638535Y-69361035D01*
X156676876Y-69483288D01*
X156682558Y-69520394D01*
X156682558Y-70493945D01*
X156677986Y-70527305D01*
X156564425Y-70933845D01*
X156558743Y-70956126D01*
X156558376Y-70958310D01*
X156553142Y-70978655D01*
X156540302Y-71015351D01*
X156540299Y-71015362D01*
X156520104Y-71194607D01*
X156520104Y-71194614D01*
X156540299Y-71373860D01*
X156540300Y-71373865D01*
X156599880Y-71544134D01*
X156679235Y-71670426D01*
X156695853Y-71696873D01*
X156823407Y-71824427D01*
X156823425Y-71824438D01*
X156943357Y-71899797D01*
X156976147Y-71920400D01*
X157146414Y-71979979D01*
X157146419Y-71979980D01*
X157325665Y-72000176D01*
X157325669Y-72000176D01*
X157325673Y-72000176D01*
X157504918Y-71979980D01*
X157504921Y-71979979D01*
X157504924Y-71979979D01*
X157675191Y-71920400D01*
X157827931Y-71824427D01*
X157955485Y-71696873D01*
X158051458Y-71544133D01*
X158111037Y-71373866D01*
X158113283Y-71353935D01*
X158131234Y-71194614D01*
X158131234Y-71194607D01*
X158111038Y-71015359D01*
X158085055Y-70941105D01*
X158080471Y-70924304D01*
X158075912Y-70901347D01*
X157947670Y-70537493D01*
X157940609Y-70517458D01*
X157933558Y-70476239D01*
X157933558Y-69520396D01*
X157939240Y-69483290D01*
X157966875Y-69395171D01*
X158064365Y-69084312D01*
X158072712Y-69054532D01*
X158073711Y-69049242D01*
X158074280Y-69049349D01*
X158078709Y-69029368D01*
X158093426Y-68987313D01*
X158102022Y-68911025D01*
X158113623Y-68808061D01*
X158113623Y-68808054D01*
X158093427Y-68628808D01*
X158093426Y-68628803D01*
X158033846Y-68458534D01*
X157937873Y-68305795D01*
X157810320Y-68178242D01*
X157657581Y-68082269D01*
X157487312Y-68022689D01*
X157487307Y-68022688D01*
X157308062Y-68002493D01*
X157308054Y-68002493D01*
X157128808Y-68022688D01*
X157128803Y-68022689D01*
X156958534Y-68082269D01*
X156805795Y-68178242D01*
X156678242Y-68305795D01*
X156582269Y-68458534D01*
X156522689Y-68628803D01*
X156522688Y-68628808D01*
X156502493Y-68808054D01*
X145410481Y-68808054D01*
X145416228Y-68789111D01*
X145425528Y-68766661D01*
X145467761Y-68687649D01*
X145481262Y-68667442D01*
X145542011Y-68593419D01*
X145550166Y-68584422D01*
X145938598Y-68195990D01*
X145968848Y-68173774D01*
X146336206Y-67981824D01*
X146344043Y-67978428D01*
X146349515Y-67975792D01*
X146349516Y-67975790D01*
X146349522Y-67975789D01*
X146502262Y-67879816D01*
X146629816Y-67752262D01*
X146725789Y-67599522D01*
X146785368Y-67429255D01*
X146785369Y-67429249D01*
X146805565Y-67250003D01*
X146805565Y-67249996D01*
X146785369Y-67070750D01*
X146785368Y-67070745D01*
X146725788Y-66900476D01*
X146629815Y-66747737D01*
X146502262Y-66620184D01*
X146349523Y-66524211D01*
X146179254Y-66464631D01*
X146179249Y-66464630D01*
X146000004Y-66444435D01*
X145999996Y-66444435D01*
X145820750Y-66464630D01*
X145820745Y-66464631D01*
X145650476Y-66524211D01*
X145497737Y-66620184D01*
X145370184Y-66747737D01*
X145274212Y-66900476D01*
X145271567Y-66905968D01*
X145268179Y-66913781D01*
X145076223Y-67281148D01*
X145054003Y-67311404D01*
X144614614Y-67750792D01*
X144614559Y-67750851D01*
X144576328Y-67789083D01*
X144506707Y-67879815D01*
X144431039Y-67978428D01*
X144430084Y-67979672D01*
X144430083Y-67979673D01*
X144309966Y-68187718D01*
X144309964Y-68187722D01*
X144218035Y-68409658D01*
X144155857Y-68641709D01*
X144155856Y-68641715D01*
X144143508Y-68735498D01*
X144138983Y-68756109D01*
X143993276Y-69224986D01*
X143993237Y-69225112D01*
X143993212Y-69225194D01*
X143993169Y-69225330D01*
X143985167Y-69254122D01*
X143984184Y-69259378D01*
X143983585Y-69259266D01*
X143979178Y-69279171D01*
X143964632Y-69320744D01*
X143964630Y-69320751D01*
X143944435Y-69499996D01*
X137657894Y-69499996D01*
X137618797Y-69395171D01*
X137618793Y-69395164D01*
X137532547Y-69279955D01*
X137532544Y-69279952D01*
X137417335Y-69193706D01*
X137417328Y-69193702D01*
X137282482Y-69143408D01*
X137282483Y-69143408D01*
X137222883Y-69137001D01*
X137222881Y-69137000D01*
X137222873Y-69137000D01*
X137222864Y-69137000D01*
X135327129Y-69137000D01*
X135327123Y-69137001D01*
X135267516Y-69143408D01*
X135132671Y-69193702D01*
X135132664Y-69193706D01*
X135017455Y-69279952D01*
X135017452Y-69279955D01*
X134931206Y-69395164D01*
X134931203Y-69395170D01*
X134902544Y-69472008D01*
X134860672Y-69527941D01*
X134795208Y-69552358D01*
X134726935Y-69537506D01*
X134695135Y-69512658D01*
X134686784Y-69503587D01*
X134686778Y-69503582D01*
X134686777Y-69503581D01*
X134503634Y-69361035D01*
X134503628Y-69361031D01*
X134299504Y-69250564D01*
X134299495Y-69250561D01*
X134079984Y-69175202D01*
X133889450Y-69143408D01*
X133851049Y-69137000D01*
X133618951Y-69137000D01*
X133580550Y-69143408D01*
X133390015Y-69175202D01*
X133170504Y-69250561D01*
X133170495Y-69250564D01*
X132966371Y-69361031D01*
X132966365Y-69361035D01*
X132783222Y-69503581D01*
X132783219Y-69503584D01*
X132783216Y-69503586D01*
X132783216Y-69503587D01*
X132738319Y-69552358D01*
X132626016Y-69674352D01*
X132499075Y-69868651D01*
X132405842Y-70081199D01*
X132348866Y-70306191D01*
X132348864Y-70306202D01*
X132329700Y-70537493D01*
X131000496Y-70537493D01*
X131000496Y-62934107D01*
X131000499Y-59000000D01*
X131694652Y-59000000D01*
X131713602Y-59349523D01*
X131714028Y-59357368D01*
X131714029Y-59357385D01*
X131771926Y-59710539D01*
X131771932Y-59710565D01*
X131867672Y-60055392D01*
X131867674Y-60055399D01*
X132000142Y-60387870D01*
X132000151Y-60387888D01*
X132167784Y-60704077D01*
X132167790Y-60704086D01*
X132368634Y-61000309D01*
X132368641Y-61000319D01*
X132600331Y-61273085D01*
X132600332Y-61273086D01*
X132860163Y-61519211D01*
X133145081Y-61735800D01*
X133451747Y-61920315D01*
X133451749Y-61920316D01*
X133451751Y-61920317D01*
X133451755Y-61920319D01*
X133776552Y-62070585D01*
X133776565Y-62070591D01*
X134115726Y-62184868D01*
X134465254Y-62261805D01*
X134821052Y-62300500D01*
X134821058Y-62300500D01*
X135178942Y-62300500D01*
X135178948Y-62300500D01*
X135534746Y-62261805D01*
X135884274Y-62184868D01*
X136223435Y-62070591D01*
X136548253Y-61920315D01*
X136854919Y-61735800D01*
X137139837Y-61519211D01*
X137399668Y-61273086D01*
X137631365Y-61000311D01*
X137832211Y-60704085D01*
X137999853Y-60387880D01*
X138132324Y-60055403D01*
X138228071Y-59710552D01*
X138285972Y-59357371D01*
X138305348Y-59000000D01*
X138285972Y-58642629D01*
X138273133Y-58564316D01*
X138228073Y-58289460D01*
X138228072Y-58289459D01*
X138228071Y-58289448D01*
X138132324Y-57944597D01*
X138024999Y-57675232D01*
X137999857Y-57612129D01*
X137999848Y-57612111D01*
X137832215Y-57295922D01*
X137832213Y-57295919D01*
X137832211Y-57295915D01*
X137631573Y-56999996D01*
X149389435Y-56999996D01*
X149389435Y-57000003D01*
X149409631Y-57179253D01*
X149409631Y-57179254D01*
X149430857Y-57239916D01*
X149436209Y-57260975D01*
X149438691Y-57276246D01*
X149438692Y-57276252D01*
X149438693Y-57276255D01*
X149544028Y-57612129D01*
X149563818Y-57675230D01*
X149569500Y-57712336D01*
X149569500Y-58287662D01*
X149563818Y-58324768D01*
X149438692Y-58723746D01*
X149430344Y-58753528D01*
X149429347Y-58758809D01*
X149428783Y-58758702D01*
X149424349Y-58778684D01*
X149409631Y-58820748D01*
X149409630Y-58820751D01*
X149389435Y-58999996D01*
X149389435Y-59000003D01*
X149409630Y-59179249D01*
X149409631Y-59179254D01*
X149469211Y-59349523D01*
X149565184Y-59502262D01*
X149692738Y-59629816D01*
X149845478Y-59725789D01*
X150015745Y-59785368D01*
X150015750Y-59785369D01*
X150194996Y-59805565D01*
X150195000Y-59805565D01*
X150195004Y-59805565D01*
X150374249Y-59785369D01*
X150374252Y-59785368D01*
X150374255Y-59785368D01*
X150544522Y-59725789D01*
X150679029Y-59641272D01*
X150746264Y-59622272D01*
X150810970Y-59641272D01*
X150875720Y-59681957D01*
X150945475Y-59725788D01*
X151115745Y-59785368D01*
X151115750Y-59785369D01*
X151294996Y-59805565D01*
X151295000Y-59805565D01*
X151295004Y-59805565D01*
X151474249Y-59785369D01*
X151474252Y-59785368D01*
X151474255Y-59785368D01*
X151644522Y-59725789D01*
X151797262Y-59629816D01*
X151924816Y-59502262D01*
X152020789Y-59349522D01*
X152080368Y-59179255D01*
X152100565Y-59000000D01*
X152080369Y-58820751D01*
X152080369Y-58820748D01*
X152065650Y-58778684D01*
X152059140Y-58760081D01*
X152053788Y-58739023D01*
X152051306Y-58723745D01*
X151926182Y-58324769D01*
X151920500Y-58287663D01*
X151920500Y-57712338D01*
X151926182Y-57675232D01*
X151945975Y-57612120D01*
X152051307Y-57276254D01*
X152059654Y-57246474D01*
X152060653Y-57241184D01*
X152061222Y-57241291D01*
X152065651Y-57221310D01*
X152080368Y-57179255D01*
X152081979Y-57164957D01*
X152100565Y-57000003D01*
X152100565Y-56999996D01*
X152689435Y-56999996D01*
X152689435Y-57000003D01*
X152709631Y-57179253D01*
X152709631Y-57179254D01*
X152730857Y-57239916D01*
X152736209Y-57260975D01*
X152738691Y-57276246D01*
X152738692Y-57276252D01*
X152738693Y-57276255D01*
X152844028Y-57612129D01*
X152863818Y-57675230D01*
X152869500Y-57712336D01*
X152869500Y-58287662D01*
X152863818Y-58324768D01*
X152738692Y-58723746D01*
X152730344Y-58753528D01*
X152729347Y-58758809D01*
X152728783Y-58758702D01*
X152724349Y-58778684D01*
X152709631Y-58820748D01*
X152709630Y-58820751D01*
X152689435Y-58999996D01*
X152689435Y-59000003D01*
X152709630Y-59179249D01*
X152709631Y-59179254D01*
X152769211Y-59349523D01*
X152865184Y-59502262D01*
X152992738Y-59629816D01*
X153145478Y-59725789D01*
X153315745Y-59785368D01*
X153315750Y-59785369D01*
X153494996Y-59805565D01*
X153495000Y-59805565D01*
X153495004Y-59805565D01*
X153674249Y-59785369D01*
X153674252Y-59785368D01*
X153674255Y-59785368D01*
X153844522Y-59725789D01*
X153997262Y-59629816D01*
X154124816Y-59502262D01*
X154220789Y-59349522D01*
X154280368Y-59179255D01*
X154300565Y-59000000D01*
X154280369Y-58820751D01*
X154280369Y-58820748D01*
X154265650Y-58778684D01*
X154259140Y-58760081D01*
X154253788Y-58739023D01*
X154251306Y-58723745D01*
X154126182Y-58324769D01*
X154120500Y-58287663D01*
X154120500Y-57712338D01*
X154126182Y-57675232D01*
X154145975Y-57612120D01*
X154251307Y-57276254D01*
X154259654Y-57246474D01*
X154260653Y-57241184D01*
X154261222Y-57241291D01*
X154265651Y-57221310D01*
X154280368Y-57179255D01*
X154281979Y-57164957D01*
X154300565Y-57000003D01*
X154300565Y-56999996D01*
X154280369Y-56820750D01*
X154280368Y-56820745D01*
X154264743Y-56776092D01*
X154220789Y-56650478D01*
X154124816Y-56497738D01*
X153997262Y-56370184D01*
X153979028Y-56358727D01*
X153844523Y-56274211D01*
X153674254Y-56214631D01*
X153674249Y-56214630D01*
X153495004Y-56194435D01*
X153494996Y-56194435D01*
X153315750Y-56214630D01*
X153315745Y-56214631D01*
X153145476Y-56274211D01*
X152992737Y-56370184D01*
X152865184Y-56497737D01*
X152769211Y-56650476D01*
X152709631Y-56820745D01*
X152709630Y-56820750D01*
X152689435Y-56999996D01*
X152100565Y-56999996D01*
X152080369Y-56820750D01*
X152080368Y-56820745D01*
X152064743Y-56776092D01*
X152020789Y-56650478D01*
X151924816Y-56497738D01*
X151797262Y-56370184D01*
X151779028Y-56358727D01*
X151644523Y-56274211D01*
X151474254Y-56214631D01*
X151474249Y-56214630D01*
X151295004Y-56194435D01*
X151294996Y-56194435D01*
X151115750Y-56214630D01*
X151115745Y-56214631D01*
X150945476Y-56274211D01*
X150810972Y-56358727D01*
X150743736Y-56377727D01*
X150679028Y-56358727D01*
X150544523Y-56274211D01*
X150374254Y-56214631D01*
X150374249Y-56214630D01*
X150195004Y-56194435D01*
X150194996Y-56194435D01*
X150015750Y-56214630D01*
X150015745Y-56214631D01*
X149845476Y-56274211D01*
X149692737Y-56370184D01*
X149565184Y-56497737D01*
X149469211Y-56650476D01*
X149409631Y-56820745D01*
X149409630Y-56820750D01*
X149389435Y-56999996D01*
X137631573Y-56999996D01*
X137631365Y-56999689D01*
X137631361Y-56999684D01*
X137631358Y-56999680D01*
X137399668Y-56726914D01*
X137222857Y-56559430D01*
X137139837Y-56480789D01*
X137139830Y-56480783D01*
X137139827Y-56480781D01*
X137059765Y-56419920D01*
X136854919Y-56264200D01*
X136548253Y-56079685D01*
X136548252Y-56079684D01*
X136548248Y-56079682D01*
X136548244Y-56079680D01*
X136223447Y-55929414D01*
X136223441Y-55929411D01*
X136223435Y-55929409D01*
X136053854Y-55872270D01*
X135884273Y-55815131D01*
X135534744Y-55738194D01*
X135178949Y-55699500D01*
X135178948Y-55699500D01*
X134821052Y-55699500D01*
X134821050Y-55699500D01*
X134465255Y-55738194D01*
X134115726Y-55815131D01*
X133859970Y-55901306D01*
X133776565Y-55929409D01*
X133776563Y-55929410D01*
X133776552Y-55929414D01*
X133451755Y-56079680D01*
X133451751Y-56079682D01*
X133261031Y-56194435D01*
X133145081Y-56264200D01*
X133120007Y-56283261D01*
X132860172Y-56480781D01*
X132860163Y-56480789D01*
X132600331Y-56726914D01*
X132368641Y-56999680D01*
X132368634Y-56999690D01*
X132167790Y-57295913D01*
X132167784Y-57295922D01*
X132000151Y-57612111D01*
X132000142Y-57612129D01*
X131867674Y-57944600D01*
X131867672Y-57944607D01*
X131771932Y-58289434D01*
X131771926Y-58289460D01*
X131714029Y-58642614D01*
X131714028Y-58642627D01*
X131714028Y-58642629D01*
X131694652Y-59000000D01*
X131000499Y-59000000D01*
X131000499Y-58503010D01*
X131000646Y-58497008D01*
X131017052Y-58163066D01*
X131018245Y-58150962D01*
X131048856Y-57944597D01*
X131066849Y-57823296D01*
X131069218Y-57811385D01*
X131149710Y-57490043D01*
X131153240Y-57478411D01*
X131153801Y-57476843D01*
X131264835Y-57166525D01*
X131269476Y-57155318D01*
X131411124Y-56855828D01*
X131416840Y-56845136D01*
X131587145Y-56560998D01*
X131593888Y-56550905D01*
X131791232Y-56284818D01*
X131798935Y-56275433D01*
X132021405Y-56029975D01*
X132029975Y-56021405D01*
X132275433Y-55798935D01*
X132284818Y-55791232D01*
X132550905Y-55593888D01*
X132560998Y-55587145D01*
X132845136Y-55416840D01*
X132855828Y-55411124D01*
X133155318Y-55269476D01*
X133166525Y-55264835D01*
X133478412Y-55153239D01*
X133490043Y-55149710D01*
X133811385Y-55069218D01*
X133823296Y-55066849D01*
X134150962Y-55018244D01*
X134163068Y-55017052D01*
X134496967Y-55000648D01*
X134503051Y-55000500D01*
X134565892Y-55000500D01*
X141434107Y-55000500D01*
X158434109Y-55000500D01*
X165528968Y-55000500D01*
X165535051Y-55000648D01*
G37*
G04 #@! TD.AperFunction*
G04 #@! TA.AperFunction,Conductor*
G36*
X150319680Y-58403427D02*
G01*
X150322571Y-58408199D01*
X150468970Y-58875012D01*
X150468176Y-58883931D01*
X150462317Y-58889309D01*
X150199511Y-58999115D01*
X150190556Y-58999142D01*
X150190489Y-58999115D01*
X149927682Y-58889309D01*
X149921370Y-58882957D01*
X149921029Y-58875013D01*
X150067429Y-58408199D01*
X150073175Y-58401330D01*
X150078593Y-58400000D01*
X150311407Y-58400000D01*
X150319680Y-58403427D01*
G37*
G04 #@! TD.AperFunction*
G04 #@! TA.AperFunction,Conductor*
G36*
X150462318Y-57110691D02*
G01*
X150468629Y-57117042D01*
X150468970Y-57124987D01*
X150322571Y-57591801D01*
X150316825Y-57598670D01*
X150311407Y-57600000D01*
X150078593Y-57600000D01*
X150070320Y-57596573D01*
X150067429Y-57591801D01*
X149921029Y-57124987D01*
X149921823Y-57116068D01*
X149927679Y-57110692D01*
X150190490Y-57000883D01*
X150199444Y-57000857D01*
X150462318Y-57110691D01*
G37*
G04 #@! TD.AperFunction*
G04 #@! TA.AperFunction,Conductor*
G36*
X133091802Y-101122429D02*
G01*
X133098670Y-101128174D01*
X133100000Y-101133592D01*
X133100000Y-101366407D01*
X133096573Y-101374680D01*
X133091801Y-101377571D01*
X132624987Y-101523970D01*
X132616068Y-101523176D01*
X132610691Y-101517318D01*
X132500883Y-101254509D01*
X132500857Y-101245556D01*
X132500862Y-101245542D01*
X132610691Y-100982680D01*
X132617042Y-100976370D01*
X132624986Y-100976029D01*
X133091802Y-101122429D01*
G37*
G04 #@! TD.AperFunction*
G04 #@! TA.AperFunction,Conductor*
G36*
X136883931Y-100976823D02*
G01*
X136889309Y-100982682D01*
X136999115Y-101245489D01*
X136999142Y-101254444D01*
X136999115Y-101254511D01*
X136889309Y-101517317D01*
X136882957Y-101523629D01*
X136875012Y-101523970D01*
X136408199Y-101377571D01*
X136401330Y-101371825D01*
X136400000Y-101366407D01*
X136400000Y-101133592D01*
X136403427Y-101125319D01*
X136408196Y-101122429D01*
X136875013Y-100976029D01*
X136883931Y-100976823D01*
G37*
G04 #@! TD.AperFunction*
G04 #@! TA.AperFunction,Conductor*
G36*
X158181059Y-89749729D02*
G01*
X158680877Y-89919033D01*
X159870854Y-90322113D01*
X159877590Y-90328013D01*
X159878182Y-90336949D01*
X159877914Y-90337662D01*
X159502562Y-91246215D01*
X159496235Y-91252553D01*
X159496215Y-91252562D01*
X158587662Y-91627914D01*
X158578708Y-91627905D01*
X158572381Y-91621567D01*
X158572113Y-91620854D01*
X158133548Y-90326120D01*
X157999730Y-89931059D01*
X158000322Y-89922124D01*
X158002536Y-89919036D01*
X158169034Y-89752538D01*
X158177306Y-89749112D01*
X158181059Y-89749729D01*
G37*
G04 #@! TD.AperFunction*
G04 #@! TA.AperFunction,Conductor*
G36*
X150767318Y-84110691D02*
G01*
X150773629Y-84117042D01*
X150773970Y-84124987D01*
X150627571Y-84591801D01*
X150621825Y-84598670D01*
X150616407Y-84600000D01*
X150383593Y-84600000D01*
X150375320Y-84596573D01*
X150372429Y-84591801D01*
X150226029Y-84124987D01*
X150226823Y-84116068D01*
X150232679Y-84110692D01*
X150495490Y-84000883D01*
X150504444Y-84000857D01*
X150767318Y-84110691D01*
G37*
G04 #@! TD.AperFunction*
G04 #@! TA.AperFunction,Conductor*
G36*
X156065912Y-84803427D02*
G01*
X156068186Y-84806634D01*
X156719950Y-86163586D01*
X156720442Y-86172528D01*
X156714469Y-86179199D01*
X156713892Y-86179457D01*
X155944489Y-86499134D01*
X155935534Y-86499143D01*
X155935511Y-86499134D01*
X155166107Y-86179457D01*
X155159782Y-86173118D01*
X155159791Y-86164163D01*
X155160049Y-86163586D01*
X155811814Y-84806634D01*
X155818485Y-84800661D01*
X155822361Y-84800000D01*
X156057639Y-84800000D01*
X156065912Y-84803427D01*
G37*
G04 #@! TD.AperFunction*
G04 #@! TA.AperFunction,Conductor*
G36*
X155775327Y-82889652D02*
G01*
X155781624Y-82895971D01*
X155986151Y-83390074D01*
X155986149Y-83399029D01*
X155979818Y-83405358D01*
X155765028Y-83494324D01*
X155756073Y-83494324D01*
X155754637Y-83493610D01*
X155393970Y-83282305D01*
X155388564Y-83275166D01*
X155389063Y-83267761D01*
X155497759Y-83003593D01*
X155504074Y-82997248D01*
X155766374Y-82889622D01*
X155775327Y-82889652D01*
G37*
G04 #@! TD.AperFunction*
G04 #@! TA.AperFunction,Conductor*
G36*
X157373251Y-85211968D02*
G01*
X157855027Y-85381102D01*
X158793629Y-85710611D01*
X158800300Y-85716584D01*
X158800792Y-85725526D01*
X158800567Y-85726116D01*
X158482562Y-86496214D01*
X158476237Y-86502553D01*
X158476214Y-86502562D01*
X157706116Y-86820567D01*
X157697161Y-86820558D01*
X157690836Y-86814219D01*
X157690611Y-86813629D01*
X157580755Y-86500707D01*
X157304818Y-85714702D01*
X157191968Y-85393251D01*
X157192460Y-85384309D01*
X157194731Y-85381105D01*
X157361103Y-85214733D01*
X157369375Y-85211307D01*
X157373251Y-85211968D01*
G37*
G04 #@! TD.AperFunction*
G04 #@! TA.AperFunction,Conductor*
G36*
X156767318Y-82610691D02*
G01*
X156773629Y-82617042D01*
X156773970Y-82624987D01*
X156627571Y-83091801D01*
X156621825Y-83098670D01*
X156616407Y-83100000D01*
X156383593Y-83100000D01*
X156375320Y-83096573D01*
X156372429Y-83091801D01*
X156226029Y-82624987D01*
X156226823Y-82616068D01*
X156232679Y-82610692D01*
X156495490Y-82500883D01*
X156504444Y-82500857D01*
X156767318Y-82610691D01*
G37*
G04 #@! TD.AperFunction*
G04 #@! TA.AperFunction,Conductor*
G36*
X157392318Y-81610691D02*
G01*
X157398629Y-81617042D01*
X157398970Y-81624987D01*
X157252571Y-82091801D01*
X157246825Y-82098670D01*
X157241407Y-82100000D01*
X157008593Y-82100000D01*
X157000320Y-82096573D01*
X156997429Y-82091801D01*
X156851029Y-81624987D01*
X156851823Y-81616068D01*
X156857679Y-81610692D01*
X157120490Y-81500883D01*
X157129444Y-81500857D01*
X157392318Y-81610691D01*
G37*
G04 #@! TD.AperFunction*
G04 #@! TA.AperFunction,Conductor*
G36*
X159976997Y-85280410D02*
G01*
X161333148Y-85710851D01*
X161339996Y-85716620D01*
X161340760Y-85725543D01*
X161340423Y-85726468D01*
X161022664Y-86496093D01*
X161016339Y-86502432D01*
X161016316Y-86502442D01*
X160246583Y-86820373D01*
X160237628Y-86820364D01*
X160231302Y-86814026D01*
X160230931Y-86812991D01*
X160135652Y-86502432D01*
X159823721Y-85485695D01*
X159824570Y-85476781D01*
X159825434Y-85475395D01*
X159963994Y-85284684D01*
X159971628Y-85280007D01*
X159976997Y-85280410D01*
G37*
G04 #@! TD.AperFunction*
G04 #@! TA.AperFunction,Conductor*
G36*
X151419680Y-58403427D02*
G01*
X151422571Y-58408199D01*
X151568970Y-58875012D01*
X151568176Y-58883931D01*
X151562317Y-58889309D01*
X151299511Y-58999115D01*
X151290556Y-58999142D01*
X151290489Y-58999115D01*
X151027682Y-58889309D01*
X151021370Y-58882957D01*
X151021029Y-58875013D01*
X151167429Y-58408199D01*
X151173175Y-58401330D01*
X151178593Y-58400000D01*
X151411407Y-58400000D01*
X151419680Y-58403427D01*
G37*
G04 #@! TD.AperFunction*
G04 #@! TA.AperFunction,Conductor*
G36*
X151562318Y-57110691D02*
G01*
X151568629Y-57117042D01*
X151568970Y-57124987D01*
X151422571Y-57591801D01*
X151416825Y-57598670D01*
X151411407Y-57600000D01*
X151178593Y-57600000D01*
X151170320Y-57596573D01*
X151167429Y-57591801D01*
X151021029Y-57124987D01*
X151021823Y-57116068D01*
X151027679Y-57110692D01*
X151290490Y-57000883D01*
X151299444Y-57000857D01*
X151562318Y-57110691D01*
G37*
G04 #@! TD.AperFunction*
G04 #@! TA.AperFunction,Conductor*
G36*
X145732707Y-67139248D02*
G01*
X145996184Y-67247436D01*
X146002536Y-67253748D01*
X146002563Y-67253815D01*
X146110751Y-67517292D01*
X146110724Y-67526247D01*
X146105346Y-67532106D01*
X145671740Y-67758673D01*
X145662821Y-67759467D01*
X145658049Y-67756576D01*
X145493423Y-67591950D01*
X145489996Y-67583677D01*
X145491324Y-67578264D01*
X145717894Y-67144651D01*
X145724762Y-67138907D01*
X145732707Y-67139248D01*
G37*
G04 #@! TD.AperFunction*
G04 #@! TA.AperFunction,Conductor*
G36*
X153762318Y-57110691D02*
G01*
X153768629Y-57117042D01*
X153768970Y-57124987D01*
X153622571Y-57591801D01*
X153616825Y-57598670D01*
X153611407Y-57600000D01*
X153378593Y-57600000D01*
X153370320Y-57596573D01*
X153367429Y-57591801D01*
X153221029Y-57124987D01*
X153221823Y-57116068D01*
X153227679Y-57110692D01*
X153490490Y-57000883D01*
X153499444Y-57000857D01*
X153762318Y-57110691D01*
G37*
G04 #@! TD.AperFunction*
G04 #@! TA.AperFunction,Conductor*
G36*
X153619680Y-58403427D02*
G01*
X153622571Y-58408199D01*
X153768970Y-58875012D01*
X153768176Y-58883931D01*
X153762317Y-58889309D01*
X153499511Y-58999115D01*
X153490556Y-58999142D01*
X153490489Y-58999115D01*
X153227682Y-58889309D01*
X153221370Y-58882957D01*
X153221029Y-58875013D01*
X153367429Y-58408199D01*
X153373175Y-58401330D01*
X153378593Y-58400000D01*
X153611407Y-58400000D01*
X153619680Y-58403427D01*
G37*
G04 #@! TD.AperFunction*
G04 #@! TA.AperFunction,Conductor*
G36*
X144867980Y-68923559D02*
G01*
X144875614Y-68928238D01*
X144877258Y-68931445D01*
X145023764Y-69374903D01*
X145023106Y-69383833D01*
X145017163Y-69389370D01*
X144754354Y-69499103D01*
X144745399Y-69499128D01*
X144745334Y-69499101D01*
X144482655Y-69389299D01*
X144476343Y-69382946D01*
X144475994Y-69375032D01*
X144476034Y-69374903D01*
X144625096Y-68895234D01*
X144630823Y-68888352D01*
X144638096Y-68887152D01*
X144867980Y-68923559D01*
G37*
G04 #@! TD.AperFunction*
G04 #@! TA.AperFunction,Conductor*
G36*
X157433049Y-70601541D02*
G01*
X157435811Y-70605925D01*
X157599158Y-71069381D01*
X157598676Y-71078323D01*
X157592634Y-71084066D01*
X157330180Y-71193726D01*
X157321225Y-71193753D01*
X157321158Y-71193726D01*
X157058044Y-71083791D01*
X157051732Y-71077439D01*
X157051286Y-71069849D01*
X157180669Y-70606665D01*
X157186196Y-70599620D01*
X157191938Y-70598114D01*
X157424776Y-70598114D01*
X157433049Y-70601541D01*
G37*
G04 #@! TD.AperFunction*
G04 #@! TA.AperFunction,Conductor*
G36*
X157575376Y-68918749D02*
G01*
X157581687Y-68925100D01*
X157582028Y-68933045D01*
X157435629Y-69399859D01*
X157429883Y-69406728D01*
X157424465Y-69408058D01*
X157191651Y-69408058D01*
X157183378Y-69404631D01*
X157180487Y-69399859D01*
X157034087Y-68933045D01*
X157034881Y-68924126D01*
X157040737Y-68918750D01*
X157303548Y-68808941D01*
X157312502Y-68808915D01*
X157575376Y-68918749D01*
G37*
G04 #@! TD.AperFunction*
G04 #@! TA.AperFunction,Conductor*
G36*
X157467534Y-79197601D02*
G01*
X157473717Y-79203654D01*
X157645237Y-79590521D01*
X157645457Y-79599473D01*
X157641041Y-79604991D01*
X157446590Y-79734906D01*
X157437807Y-79736653D01*
X157435554Y-79735963D01*
X157087834Y-79589720D01*
X157081537Y-79583354D01*
X157081548Y-79574488D01*
X157189529Y-79311746D01*
X157195842Y-79305398D01*
X157458581Y-79197572D01*
X157467534Y-79197601D01*
G37*
G04 #@! TD.AperFunction*
G04 #@! TA.AperFunction,Conductor*
G36*
X162503739Y-85266401D02*
G01*
X163873251Y-85710798D01*
X163880063Y-85716611D01*
X163880769Y-85725538D01*
X163880454Y-85726392D01*
X163562636Y-86496129D01*
X163556312Y-86502468D01*
X163556288Y-86502478D01*
X162786460Y-86820424D01*
X162777505Y-86820415D01*
X162771180Y-86814076D01*
X162770845Y-86813157D01*
X162671419Y-86500623D01*
X162342058Y-85465311D01*
X162342815Y-85456390D01*
X162344054Y-85454479D01*
X162490985Y-85270235D01*
X162498821Y-85265905D01*
X162503739Y-85266401D01*
G37*
G04 #@! TD.AperFunction*
G04 #@! TA.AperFunction,Conductor*
G36*
X142518192Y-73586056D02*
G01*
X142524504Y-73592408D01*
X142525120Y-73599311D01*
X142426989Y-74055813D01*
X142421900Y-74063181D01*
X142415550Y-74065054D01*
X142182740Y-74065054D01*
X142174467Y-74061627D01*
X142171974Y-74057934D01*
X142171072Y-74055813D01*
X141977444Y-73600639D01*
X141977360Y-73591687D01*
X141983631Y-73585295D01*
X141983653Y-73585285D01*
X142245490Y-73475883D01*
X142254444Y-73475857D01*
X142518192Y-73586056D01*
G37*
G04 #@! TD.AperFunction*
G04 #@! TA.AperFunction,Conductor*
G36*
X142424683Y-75903427D02*
G01*
X142427574Y-75908199D01*
X142573973Y-76375012D01*
X142573179Y-76383931D01*
X142567320Y-76389309D01*
X142304514Y-76499115D01*
X142295559Y-76499142D01*
X142295492Y-76499115D01*
X142032685Y-76389309D01*
X142026373Y-76382957D01*
X142026032Y-76375013D01*
X142172432Y-75908199D01*
X142178178Y-75901330D01*
X142183596Y-75900000D01*
X142416410Y-75900000D01*
X142424683Y-75903427D01*
G37*
G04 #@! TD.AperFunction*
G04 #@! TA.AperFunction,Conductor*
G36*
X141767318Y-74610691D02*
G01*
X141773629Y-74617042D01*
X141773970Y-74624987D01*
X141627571Y-75091801D01*
X141621825Y-75098670D01*
X141616407Y-75100000D01*
X141383593Y-75100000D01*
X141375320Y-75096573D01*
X141372429Y-75091801D01*
X141226029Y-74624987D01*
X141226823Y-74616068D01*
X141232679Y-74610692D01*
X141495490Y-74500883D01*
X141504444Y-74500857D01*
X141767318Y-74610691D01*
G37*
G04 #@! TD.AperFunction*
G04 #@! TA.AperFunction,Conductor*
G36*
X141624680Y-75903427D02*
G01*
X141627571Y-75908199D01*
X141773970Y-76375012D01*
X141773176Y-76383931D01*
X141767317Y-76389309D01*
X141504511Y-76499115D01*
X141495556Y-76499142D01*
X141495489Y-76499115D01*
X141232682Y-76389309D01*
X141226370Y-76382957D01*
X141226029Y-76375013D01*
X141372429Y-75908199D01*
X141378175Y-75901330D01*
X141383593Y-75900000D01*
X141616407Y-75900000D01*
X141624680Y-75903427D01*
G37*
G04 #@! TD.AperFunction*
M02*
